<?xml version="1.0" standalone="no"?>
<!DOCTYPE svg PUBLIC "-//W3C//DTD SVG 1.1//EN" "http://www.w3.org/Graphics/SVG/1.1/DTD/svg11.dtd" >
<svg xmlns="http://www.w3.org/2000/svg">
<metadata>Generated by IcoMoon</metadata>
<defs>
<font id="icomoon" horiz-adv-x="1024">
<font-face units-per-em="1024" ascent="960" descent="-64" />
<missing-glyph horiz-adv-x="1024" />
<glyph unicode="&#x20;" horiz-adv-x="512" d="" />
<glyph unicode="&#xe900;" glyph-name="comment" d="M921.6 925.867h-819.2c-55.501 0-102.4-46.899-102.4-102.4v-563.2c0-55.501 46.899-102.4 102.4-102.4h487.39l165.598-182.153c3.294-3.618 7.902-5.581 12.612-5.581 2.065 0 4.147 0.375 6.161 1.143 6.571 2.543 10.906 8.875 10.906 15.923v170.667h136.533c55.501 0 102.4 46.899 102.4 102.4v563.2c0 55.501-46.899 102.4-102.4 102.4z" />
<glyph unicode="&#xe901;" glyph-name="bowtie" d="M269.369 402.534c-5.874 0-11.387 3.17-14.303 8.405-1.081 1.933-26.452 48.497-26.452 139.444 0 90.964 25.379 137.527 26.452 139.461 3.301 5.931 9.896 9.159 16.613 8.249 3.088-0.442 76.317-11.059 133.702-39.084 6.996-3.416 13.779-7.078 20.152-10.879 7.766-4.637 10.306-14.696 5.669-22.471s-14.688-10.306-22.471-5.669c-5.595 3.342-11.559 6.57-17.736 9.585-39.641 19.358-89.252 29.925-111.788 34.038-6.513-16.966-17.842-54.87-17.842-113.23 0-58.884 11.248-96.412 17.768-113.213 22.536 4.112 72.262 14.713 111.854 34.046 48.505 23.683 61.17 48.464 61.284 48.71 3.949 8.020 13.672 11.493 21.75 7.692 8.086-3.826 11.674-13.287 7.995-21.43-1.597-3.547-17.359-35.471-76.644-64.414-57.377-28.025-130.613-38.65-133.702-39.084-0.77-0.098-1.532-0.156-2.302-0.156zM754.647 402.534c-0.77 0-1.54 0.057-2.31 0.164-3.088 0.442-76.341 11.067-133.718 39.084-59.286 28.942-75.047 60.875-76.644 64.414-3.727 8.241-0.066 17.949 8.184 21.676 8.225 3.736 17.94 0.066 21.676-8.184 0 0 12.673-24.781 61.178-48.464 39.551-19.309 89.235-29.917 111.796-34.038 6.513 16.966 17.826 54.862 17.826 113.205 0 58.327-11.305 96.215-17.834 113.222-22.569-4.121-72.245-14.721-111.788-34.030-48.226-23.552-61.063-48.234-61.178-48.472-3.727-8.241-13.451-11.919-21.676-8.184-8.249 3.719-11.911 13.435-8.184 21.676 1.597 3.547 17.359 35.471 76.644 64.422 57.385 28.025 130.63 38.642 133.718 39.084 6.726 0.893 13.312-2.318 16.613-8.249 1.081-1.933 26.444-48.505 26.444-139.461 0-90.948-25.362-137.511-26.444-139.444-2.916-5.251-8.421-8.421-14.303-8.421zM556.892 486.969c0 0-14.017-10.658-44.892-10.658s-44.892 10.658-44.892 10.658v123.142c0 0 20.529 8.045 44.892 8.045 24.388 0 44.892-8.045 44.892-8.045v-123.142zM512 459.928c-35.373 0-52.929 12.567-54.804 14-4.080 3.097-6.472 7.922-6.472 13.042v123.142c0 6.742 4.129 12.796 10.404 15.254 0.958 0.377 23.724 9.175 50.881 9.175 27.165 0 49.93-8.806 50.881-9.175 6.275-2.466 10.404-8.52 10.404-15.254v-123.142c0-5.12-2.392-9.945-6.472-13.042-1.892-1.434-19.448-14-54.821-14zM483.492 497.070c5.644-2.040 15.065-4.375 28.508-4.375 13.41 0 22.798 2.327 28.508 4.391v100.925c-7.209 1.827-17.474 3.768-28.508 3.768s-21.299-1.933-28.508-3.768v-100.942zM467.108 534.008h-76.685c-9.044 0-16.384 7.34-16.384 16.384s7.34 16.384 16.384 16.384h76.685c9.044 0 16.384-7.34 16.384-16.384s-7.34-16.384-16.384-16.384zM637.616 534.008h-80.724c-9.044 0-16.384 7.34-16.384 16.384s7.34 16.384 16.384 16.384h80.724c9.044 0 16.384-7.34 16.384-16.384s-7.34-16.384-16.384-16.384z" />
<glyph unicode="&#xe902;" glyph-name="car" d="M287.785 439.726h73.728c0.086-0.001 0.188-0.001 0.29-0.001 26.286 0 47.596 21.309 47.596 47.596 0 22.111-15.078 40.701-35.512 46.048l-74.059 19.325c-3.637 0.997-7.814 1.57-12.124 1.57-26.286 0-47.596-21.309-47.596-47.596 0-0.005 0-0.010 0-0.014v-19.25c0-26.332 21.346-47.677 47.677-47.677zM272.957 506.655c0.003 8.187 6.64 14.823 14.828 14.823 1.34 0 2.638-0.178 3.872-0.511l73.624-19.227c6.577-1.611 11.381-7.455 11.381-14.421 0-8.189-6.639-14.828-14.828-14.828-0.113 0-0.226 0.001-0.339 0.004h-73.711c-8.17 0.046-14.781 6.657-14.828 14.823zM724.173 552.694l-73.728-19.251c-20.767-5.42-35.846-24.010-35.846-46.122 0-26.286 21.309-47.596 47.596-47.596 0.132 0 0.263 0.001 0.395 0.002h73.708c26.268 0.047 47.549 21.328 47.596 47.591v19.338c0 0.004 0 0.009 0 0.014 0 26.286-21.309 47.596-47.596 47.596-4.31 0-8.487-0.573-12.457-1.647zM745.308 518.369c3.55-2.721 5.816-6.963 5.816-11.735 0-0.022 0-0.043 0-0.065v-19.248c-0.046-8.17-6.657-14.781-14.823-14.828h-73.732c-0.096-0.002-0.209-0.003-0.322-0.003-8.189 0-14.828 6.639-14.828 14.828 0 6.966 4.804 12.81 11.279 14.4l73.83 19.272c1.13 0.31 2.428 0.489 3.767 0.492 3.415-0.012 6.552-1.182 9.045-3.137zM299.008 613.888h425.984c0.005 0 0.010 0 0.016 0 9.049 0 16.384 7.335 16.384 16.384 0 2.183-0.427 4.267-1.202 6.172-13.805 34.87-40.921 99.423-54.847 119.33-9.994 14.336-24.576 21.955-49.644 26.378-32.141 5.077-69.205 7.977-106.947 7.977-5.89 0-11.764-0.071-17.62-0.211-4.158 0.142-10.077 0.214-16.013 0.214-37.579 0-74.486-2.871-110.516-8.407-21.288-3.915-35.624-11.533-45.618-25.951-13.844-19.907-40.96-84.46-54.886-119.439-0.736-1.796-1.164-3.881-1.164-6.065 0-8.939 7.159-16.207 16.057-16.381zM365.609 736.768c2.458 3.604 6.226 9.011 28.426 12.861 30.987 4.898 66.718 7.696 103.103 7.696 5.226 0 10.438-0.058 15.636-0.173 4.038 0.134 9.706 0.202 15.389 0.202 35.835 0 71.036-2.719 105.406-7.962 18.268-3.367 22.036-8.774 24.494-12.296 14.333-24.967 28.538-54.637 40.627-85.371l-375.107-4.741c13.756 35.459 27.959 65.101 44.087 93.506zM158.188 566.784c-13.145-24.866-20.861-54.35-20.861-85.637 0-1.573 0.020-3.142 0.058-4.706l-0.005-191.952c0.047-31.199 25.326-56.478 56.52-56.525h51.86c31.199 0.047 56.478 25.326 56.525 56.52v13.767h419.43v-13.763c0.047-31.199 25.326-56.478 56.52-56.525h51.942c31.199 0.047 56.478 25.326 56.525 56.52v191.697c0.032 1.298 0.051 2.827 0.051 4.36 0 31.325-7.715 60.849-21.348 86.774 27.418 3.788 47.648 26.863 48.003 54.728 0 11.506 0 20.845 0 29.529v0c-0.753 30.039-24.862 54.205-54.807 55.048-5.158 0.002-10.319 0.002-15.644 0.002-13.886-0.293-26.79-4.244-37.863-10.924-13.583 33.697-35.784 84.242-51.676 107.18-30.31 43.5-73.728 55.542-103.465 60.785-36.592 5.997-78.766 9.423-121.74 9.423-5.701 0-11.388-0.060-17.061-0.18-4.31 0.135-10.384 0.204-16.475 0.204-42.463 0-84.145-3.346-124.796-9.787-25.409-4.656-68.744-16.617-99.055-60.198-15.892-22.938-38.093-73.728-52.019-106.988-10.78 6.497-23.742 10.449-37.604 10.73-5.24 0.001-10.319 0.001-15.398 0.001-30.248-0.673-54.587-25.041-55.213-55.237-0.001-8.251-0.001-18-0.001-29.551 0.606-27.721 20.794-50.553 47.25-55.245zM143.36 650.342c0 0 0 0 0 0.001 0 12.882 10.396 23.336 23.256 23.428h14.099c13.394-0.761 25.29-6.61 33.896-15.627 2.94-2.757 6.879-4.438 11.211-4.438 6.832 0 12.688 4.182 15.146 10.126 22.896 56.879 44.604 102.918 56.647 120.203 23.020 32.768 56.033 42.598 81.92 47.186 33.982 5.363 73.168 8.426 113.070 8.426 6.647 0 13.275-0.085 19.881-0.254 4.653 0.169 11.282 0.254 17.931 0.254 39.9 0 79.084-3.064 117.33-8.968 21.949-4.046 54.962-13.548 77.654-46.644 12.042-17.367 33.751-63.324 56.607-120.095 2.498-6.053 8.354-10.235 15.186-10.235 4.332 0 8.271 1.681 11.201 4.427 8.554 8.982 20.355 14.821 33.517 15.631l14.479 0.007c0.244 0.009 0.531 0.014 0.819 0.014 12.94 0 23.429-10.49 23.429-23.429 0-0.005 0-0.010 0-0.015 0-8.191 0-16.383 0-27.524 0-13.573-11.003-24.576-24.576-24.576h-19.333c-9.049 0-16.384-7.335-16.384-16.384 0-3.707 1.231-7.126 3.307-9.872q2.755-3.645 5.295-7.414c15.461-23.389 24.665-52.092 24.665-82.945 0-1.829-0.032-3.65-0.097-5.464l0.007-191.676c0-13.121-10.636-23.757-23.757-23.757h-51.528c-13.121 0-23.757 10.636-23.757 23.757v30.147c0 9.049-7.335 16.384-16.384 16.384h-452.198c-9.049 0-16.384-7.335-16.384-16.384v-30.147c0-13.121-10.636-23.757-23.757-23.757h-52.019c-13.121 0-23.757 10.636-23.757 23.757v192.184c-0.052 1.478-0.081 3.215-0.081 4.959 0 30.824 9.202 59.498 25.009 83.426q2.188 3.202 4.973 6.888c2.046 2.704 3.277 6.123 3.277 9.83 0 9.049-7.335 16.384-16.384 16.384h-2.294l-16.548 0.246c-13.573 0-24.576 11.003-24.576 24.576 0 10.732 0 19.497 0 27.361z" />
<glyph unicode="&#xe903;" glyph-name="car-taxy" d="M980.327 584.15c-4.62 0-9.362-0.659-14.094-1.967l-49.732-13.697-52.57 128.045c-15.75 38.376-62.319 69.601-103.808 69.601h-34.979v106.154c0 18.66-15.177 33.837-33.837 33.837h-358.611c-18.66 0-33.837-15.177-33.837-33.837v-106.154h-35.701c-41.484 0-88.058-31.22-103.808-69.596l-52.497-127.869-49.082 13.521c-4.733 1.304-9.479 1.967-14.094 1.967-25.306-0.005-43.677-19.341-43.677-45.978v-27.214c0-31.099 25.301-56.395 56.395-56.395h3.618l-7.507-18.281c-14.636-35.655-26.546-96.021-26.546-134.559v-255.453c0-31.099 25.297-56.395 56.395-56.395h67.796c31.099 0 56.395 25.297 56.395 56.395v62.784h610.193v-62.784c0-31.099 25.301-56.395 56.395-56.395h67.783c31.099 0 56.395 25.297 56.395 56.395v255.453c0 38.538-11.911 98.904-26.546 134.559l-7.507 18.281h4.345c31.099 0 56.395 25.297 56.395 56.395v27.214c0 26.637-18.367 45.974-43.673 45.974zM647.924 860.997c0 0.744 0.609 1.353 1.353 1.353h26.068c0.744 0 1.353-0.609 1.353-1.353v-93.828c0-0.451-0.257-0.79-0.596-1.038h-27.584c-0.338 0.248-0.596 0.587-0.596 1.038v93.828zM460.962 862.35h31.324c0.744 0 1.579-0.564 1.854-1.259l37.18-93.463 34.081 42.161c0.469 0.577 0.514 1.561 0.104 2.179l-32.709 49.253c-0.415 0.623-0.14 1.128 0.605 1.128h28.969c0.744 0 1.674-0.519 2.062-1.15l16.86-27.349c0.388-0.636 1.029-0.636 1.417 0l16.873 27.349c0.388 0.636 1.317 1.15 2.062 1.15h28.983c0.744 0 1.015-0.505 0.605-1.128l-32.736-49.253c-0.415-0.623-0.365-1.602 0.099-2.179l34.703-42.924c0.235-0.284 0.289-0.55 0.203-0.74h-30.76c-0.406 0.212-0.771 0.496-0.984 0.835l-19.044 30.476c-0.397 0.632-1.038 0.632-1.435 0l-19.003-30.476c-0.212-0.338-0.577-0.623-0.984-0.835h-57.961c-0.397 0.235-0.74 0.559-0.871 0.97l-6.388 19.562c-0.23 0.708-1.029 1.286-1.773 1.286h-35.507c-0.744 0-1.557-0.573-1.8-1.277l-6.885-19.58c-0.144-0.406-0.487-0.731-0.889-0.961h-27.877c-0.221 0.23-0.316 0.546-0.158 0.938l37.916 94.022c0.284 0.699 1.119 1.263 1.863 1.263zM369.286 767.168v74.532c0 0.744-0.609 1.353-1.353 1.353h-31.333c-0.744 0-1.353 0.609-1.353 1.353v16.594c0 0.744 0.609 1.353 1.353 1.353h94.338c0.744 0 1.353-0.609 1.353-1.353v-16.594c0-0.744-0.609-1.353-1.353-1.353h-31.514c-0.744 0-1.353-0.609-1.353-1.353v-74.532c0-0.451-0.257-0.79-0.596-1.038h-27.593c-0.338 0.244-0.596 0.587-0.596 1.038zM146.7 485.999l79.878 194.582c9.425 22.955 37.438 41.737 62.251 41.737h445.623c24.814 0 52.827-18.782 62.251-41.737l79.878-194.582c9.425-22.955-3.167-41.737-27.981-41.737h-673.92c-24.814 0-37.406 18.782-27.981 41.737zM327.147 235.414c0-12.407-10.151-22.558-22.558-22.558h-152.466c-12.407 0-22.558 10.151-22.558 22.558v72.33c0 12.407 10.151 22.558 22.558 22.558h152.466c12.407 0 22.558-10.151 22.558-22.558v-72.33zM892.256 235.414c0-12.407-10.151-22.558-22.558-22.558h-152.466c-12.407 0-22.558 10.151-22.558 22.558v72.33c0 12.407 10.151 22.558 22.558 22.558h152.466c12.407 0 22.558-10.151 22.558-22.558v-72.33zM487.964 807.245c0.744 0 1.11 0.559 0.817 1.241l-11.243 25.946c-0.298 0.681-0.794 0.69-1.101 0.014l-11.906-25.973c-0.307-0.677 0.045-1.227 0.79-1.227h22.644z" />
<glyph unicode="&#xe904;" glyph-name="check" d="M715.981 748.646v-76.186l35.226 53.248v0.819l8.192 12.288v0.819l2.458 4.096v5.734c0 50.79-40.96 91.75-91.75 91.75h-37.683v-47.514h37.683c26.214-0.819 45.875-20.48 45.875-45.056zM715.981 265.318c0-24.576-19.661-44.237-44.237-44.237h-353.075c-24.576 0-44.237 19.661-44.237 44.237v483.328c0 24.576 19.661 44.237 44.237 44.237h37.683v47.514h-37.683c-50.79 0-91.75-40.96-91.75-91.75v-483.328c0-50.79 40.96-91.75 91.75-91.75h353.075c50.79 0 91.75 40.96 91.75 91.75v294.912l-47.514-70.451v-224.461zM388.301 776.499h213.811c4.915 0 8.192 4.096 8.192 8.192v61.44c0 5.734-4.096 11.469-9.011 13.107l-65.536 15.565v11.469c0 22.938-18.842 40.96-40.96 40.96-22.938 0-40.96-18.842-40.96-40.96v-11.469l-65.536-15.565c-5.734-1.638-9.011-7.373-9.011-13.107v-61.44c0-4.096 4.096-8.192 9.011-8.192zM494.797 906.752c9.83 0 17.203-7.373 17.203-17.203s-7.373-17.203-17.203-17.203c-9.83 0-17.203 7.373-17.203 17.203 0 9.011 8.192 17.203 17.203 17.203zM353.075 664.269h317.85v-47.514h-317.85v47.514zM652.083 575.795h-299.008v-47.514h267.878zM592.282 486.502h-239.206v-46.694h208.077zM353.075 397.21v-47.514h194.97c-0.819 1.638-0.819 3.277-1.638 5.734l-3.277 29.491c-0.819 4.096-0.819 8.192 0 12.288h-190.054zM837.222 737.178l-22.938 15.565c-3.277 2.458-7.373 3.277-11.469 3.277-0.819 0-1.638 0-2.458 0s-1.638 0-2.458-0.819c-0.819 0-1.638 0-2.458-0.819-0.819 0-1.638-0.819-2.458-0.819-1.638-0.819-3.277-1.638-4.096-3.277-0.819-0.819-1.638-1.638-1.638-1.638-0.819-0.819-0.819-1.638-1.638-2.458l-11.469-15.565 58.163-38.502 10.65 16.384c6.554 9.011 4.096 22.118-5.734 28.672zM763.494 714.24l-93.389-138.445-31.13-47.514-27.853-41.779-31.13-47.514-9.83-15.565-3.277-4.096c-6.554-9.83-9.83-21.299-8.192-32.768l3.277-29.491c0-1.638 1.638-3.277 2.458-4.915 0.819 0 0.819-0.819 1.638-0.819s2.458 0 4.096 0l28.672 8.192c10.65 3.277 20.48 10.65 27.034 20.48l18.842 28.672 19.661 30.31 7.373 11.469 45.056 67.174 47.514 70.451 58.982 89.293-58.163 38.502-1.638-1.638zM614.4 387.379c-4.915-7.373-12.288-13.107-19.661-15.565l-21.299-5.734-2.458 22.118c-0.819 8.192 1.638 16.384 6.554 24.576l3.277 4.915 37.683-24.576-4.096-5.734z" />
<glyph unicode="&#xe905;" glyph-name="check2" d="M338.772 826.336h123.949c6.352 0 11.5 5.138 11.5 11.491 0 6.343-5.138 11.491-11.5 11.491h-123.949c-6.334 0-11.491-5.147-11.491-11.491 0.009-6.352 5.156-11.491 11.491-11.491zM304.137 754.412h195.33c6.334 0 11.491 5.138 11.491 11.491 0 6.343-5.147 11.491-11.491 11.491h-195.33c-6.343 0-11.491-5.147-11.491-11.491s5.147-11.491 11.491-11.491zM499.467 719.994h-195.33c-6.343 0-11.491-5.138-11.491-11.491 0-6.343 5.138-11.491 11.491-11.491h195.33c6.334 0 11.491 5.147 11.491 11.491-0.009 6.352-5.156 11.491-11.491 11.491zM499.467 662.587h-195.33c-6.343 0-11.491-5.138-11.491-11.491 0-6.343 5.138-11.491 11.491-11.491h195.33c6.334 0 11.491 5.147 11.491 11.491-0.009 6.352-5.156 11.491-11.491 11.491zM817.804 222.321l-38.133 87.366c5.274 116.283-27.594 223.223-29.007 227.736-0.326 1.060-0.807 2.057-1.414 2.972-11.518 17.227-70.103 103.805-93.057 117.651-19.103 11.518-75.223 30.312-95.005 36.773v191.896c0 6.343-5.147 11.5-11.5 11.5h-297.875c-6.343 0-11.5-5.147-11.5-11.5v-118.73c-8.509 3.969-16.067 4.477-22.519 1.414-4.295-2.030-11.608-7.485-12.469-21.16-0.888-13.974 5.627-33.538 17.943-48.255-1.894-0.317-3.743-0.807-5.473-1.631-4.295-2.039-11.608-7.494-12.469-21.169-0.852-13.33 5.129-31.672 16.375-46.116-3.788-3.117-7.748-8.654-8.373-18.514-1.078-17.046 8.926-42.292 26.996-57.018v-99.545c0-6.352 5.147-11.491 11.5-11.491h100.597c0.145-0.163 0.19-0.372 0.335-0.535l44.766-46.669c6.606-20.226 50.185-139.346 173.464-190.21 1.432-0.58 2.918-0.87 4.377-0.87 4.513 0 8.799 2.691 10.63 7.114 2.42 5.872-0.372 12.587-6.235 15.007-121.693 50.212-160.686 176.971-161.058 178.248-0.535 1.749-1.468 3.362-2.737 4.694l-31.871 33.221h71.318c-12.768-12.605-21.015-24.993-21.549-25.79-3.489-5.292-2.021-12.424 3.271-15.931 1.948-1.278 4.141-1.894 6.316-1.894 3.734 0 7.395 1.821 9.615 5.165 0.172 0.281 17.662 26.588 39.392 38.142 0.163 0.091 0.29 0.208 0.435 0.299h56.809c6.343 0 11.5 5.129 11.5 11.491v55.649c10.675-5.664 22.501-11.626 35.749-17.943-53.293-102.726 17.925-181.366 26.506-190.265 2.256-2.338 5.265-3.507 8.274-3.507 2.873 0 5.745 1.060 7.975 3.208 4.576 4.404 4.712 11.681 0.299 16.248-7.639 7.929-73.003 80.144-17.163 173.573 1.676 2.782 2.075 6.162 1.124 9.27-0.961 3.099-3.199 5.664-6.144 7.023-25.419 11.826-45.582 22.175-61.612 31.273-0.245 0.181-0.526 0.299-0.779 0.462-65.699 37.526-60.253 54.091-56.012 66.859 0.036 0.082 0.054 0.154 0.091 0.227l162.444-54.082c6.017-2.003 12.524 1.26 14.535 7.286 2.003 6.026-1.26 12.524-7.277 14.535l-108.018 35.958v58.866c26.352-8.754 69.034-23.751 83.134-32.251 14.191-8.564 59.138-70.964 84.865-109.323 4.024-13.647 32.732-115.168 27.394-220.921-0.091-1.767 0.236-3.543 0.942-5.165l39.202-89.84c1.885-4.323 6.117-6.905 10.539-6.905 1.531 0 3.090 0.317 4.585 0.952 5.827 2.546 8.482 9.325 5.954 15.152zM240.314 670.67v-26.216c-9.234 11.536-13.031 26.869-11.98 32.605 1.541-0.462 4.368-1.676 8.781-4.839 1.006-0.716 2.084-1.196 3.199-1.55zM228.334 748.114c1.541-0.462 4.368-1.676 8.781-4.839 1.006-0.716 2.084-1.187 3.208-1.55v-26.216c-9.243 11.527-13.031 26.86-11.989 32.605zM236.327 612.429c0.879-0.263 2.229-0.825 3.987-1.785v-17.29c-3.353 7.938-4.64 15.451-3.987 19.075zM495.027 633.77c-3.308 1.106-6.978 0.643-9.905-1.278-2.936-1.903-4.83-5.057-5.165-8.554-0.236-2.501-1.214-5.437-2.347-8.854-8.536-25.636-8.564-49.705 60.579-90.619v-57.009h-274.885v407.769h274.885v-255.81l-43.162 14.354zM420.701 602.533l-18.994-12.388v6.688c0 6.343-5.147 11.491-11.491 11.491h-88.173c-6.352 0-11.509-5.138-11.509-11.491v-82.89c0-6.352 5.147-11.491 11.509-11.491h88.173c6.334 0 11.491 5.129 11.491 11.491v48.744l31.563 20.598c5.31 3.471 6.806 10.584 3.335 15.895-3.462 5.337-10.575 6.824-15.904 3.353zM378.726 525.452h-65.192v59.899h65.192v-10.213l-21.513-14.037-13.43 15.768c-4.114 4.83-11.364 5.419-16.212 1.314-4.83-4.123-5.401-11.364-1.296-16.194l20-23.489c2.256-2.655 5.482-4.051 8.763-4.051 2.157 0 4.341 0.616 6.271 1.876l17.417 11.364v-22.238z" />
<glyph unicode="&#xe906;" glyph-name="credit-card" d="M901.597 790.502h-779.192c-67.497 0-122.405-54.908-122.405-122.407v-440.189c0-67.495 54.908-122.407 122.405-122.407h779.19c67.492 0 122.405 54.913 122.405 122.407v440.189c0.002 67.499-54.91 122.407-122.403 122.407zM956.272 227.908c0-30.15-24.527-54.676-54.674-54.676h-779.192c-30.147 0-54.679 24.527-54.679 54.676v294.988h888.543l0.002-294.988zM956.272 619.522l-888.543-0.065v48.639c0 30.15 24.531 54.679 54.679 54.679h779.19c30.147 0 54.674-24.529 54.674-54.679v-48.575zM151.784 236.045h185.411c6.639 0 12.025 5.382 12.025 12.021v36.581c0 6.641-5.387 12.023-12.025 12.023h-185.411c-6.639 0-12.025-5.382-12.025-12.023v-36.581c-0.002-6.639 5.384-12.021 12.025-12.021zM695.848 405.25c19.267 0 37.026-6.454 51.25-17.305 14.224 10.847 31.976 17.305 51.25 17.305 46.726 0 84.605-37.88 84.605-84.605s-37.882-84.601-84.605-84.601c-19.27 0-37.026 6.451-51.25 17.305-14.224-10.851-31.978-17.305-51.25-17.305-46.728 0-84.605 37.875-84.605 84.601s37.882 84.605 84.605 84.605z" />
<glyph unicode="&#xe907;" glyph-name="handicon_wh" d="M617.172 786.63c-12.643 0-24.521 7.878-28.959 20.48-6.595 18.637-17.039 35.157-30.966 49.084-49.357 49.357-135.154 49.275-184.443 0.041-12.834-12.834-22.637-27.798-29.204-44.483-6.199-15.797-24.194-23.484-39.84-17.353-15.797 6.199-23.566 24.044-17.353 39.84 9.68 24.562 24.125 46.599 42.953 65.44 36.236 36.236 84.446 56.197 135.687 56.197s99.396-19.961 135.605-56.197c20.48-20.439 35.799-44.674 45.479-72.076 5.639-16.002-2.717-33.56-18.719-39.199-3.4-1.215-6.84-1.775-10.24-1.775zM413.327 328.67c-16.957 0-30.72 13.763-30.72 30.72v355.56c0 49.835 40.523 90.399 90.358 90.399 49.876 0 90.44-40.564 90.44-90.399v-293.437c0-16.957-13.763-30.72-30.72-30.72s-30.72 13.763-30.72 30.72v293.437c0 15.961-12.998 28.959-29 28.959-15.961 0-28.918-12.998-28.918-28.959v-355.56c0-16.957-13.749-30.72-30.72-30.72zM660.698 390.793c-16.957 0-30.72 13.763-30.72 30.72v109.036c0 12.957-8.684 24.439-21.081 27.921-16.357 4.601-25.887 21.559-21.327 37.874 4.601 16.316 21.436 25.846 37.874 21.327 38.844-10.923 65.959-46.722 65.959-87.122v-109.036c0.014-16.971-13.749-30.72-30.706-30.72zM680.209-46.21h-0.082c-16.957 0.041-30.638 13.763-30.638 30.679 0 4.082 0.724 99.915 61.836 169.52 52.074 77.319 57.521 85.879 57.521 157.764v195.68c0 15.92-12.998 28.877-28.959 28.877-16.957 0-30.72 13.763-30.72 30.72s13.763 30.72 30.72 30.72c49.835 0 90.399-40.523 90.399-90.317v-195.68c0-91.163-13.203-110.715-68.676-193.126-0.806-1.161-2.157-3.004-3.086-4.041-46.599-51.883-47.596-129.434-47.596-130.198-0.082-16.916-13.831-30.597-30.72-30.597zM427.814-38.059c-16.957 0-30.72 13.763-30.72 30.72 0 14.404 0.478 27.798 0.915 40.482 1.679 47.514 2.717 76.24-21.354 108.721-34.161 46.162-52.524 66.041-71.967 87.040-17.995 19.483-36.605 39.595-67.884 80.036-21.163 27.238-65.154 83.995-55.364 142.759 5.325 31.962 29.245 59.201 60.921 69.359 28.399 9.161 56.798 3.045 76.281-16.275 0.164-0.041 13.722-11.482 30.365-26.842 12.479-11.523 13.285-30.925 1.802-43.404-11.523-12.561-30.966-13.326-43.404-1.802-16.561 15.278-29.846 26.406-30.037 26.597-6.199 5.967-13.885 3.919-16.207 3.236-8.206-2.635-17.285-10.158-19.074-20.958-5.407-32.276 27.484-74.684 43.281-95.041 29.641-38.325 47.322-57.44 64.444-75.953 20.603-22.282 40.086-43.363 76.199-92.201 36.878-49.766 35.28-95.041 33.396-147.483-0.437-11.96-0.874-24.644-0.874-38.284 0-16.944-13.763-30.706-30.72-30.706z" />
<glyph unicode="&#xe908;" glyph-name="heart" d="M941.29 814.55c-53.62 53.62-124.608 82.927-200.371 82.927s-146.968-29.524-200.588-83.144l-28.004-28.004-28.438 28.438c-53.62 53.62-125.042 83.361-200.805 83.361-75.546 0-146.751-29.524-200.154-82.927-53.62-53.62-83.144-124.825-82.927-200.588 0-75.763 29.741-146.751 83.361-200.371l407.689-407.689c5.644-5.644 13.242-8.683 20.623-8.683s14.979 2.822 20.623 8.466l408.557 407.038c53.62 53.62 83.144 124.825 83.144 200.588 0.217 75.763-29.090 146.968-82.71 200.588zM899.609 454.837l-387.934-386.414-387.066 387.066c-42.549 42.549-65.994 98.992-65.994 159.125s23.228 116.576 65.777 158.907c42.332 42.332 98.774 65.777 158.69 65.777 60.133 0 116.793-23.445 159.342-65.994l49.062-49.062c11.506-11.506 29.958-11.506 41.464 0l48.627 48.627c42.549 42.549 99.209 65.994 159.125 65.994s116.358-23.445 158.907-65.777c42.549-42.549 65.777-98.992 65.777-159.125 0.217-60.133-23.228-116.576-65.777-159.125z" />
<glyph unicode="&#xe909;" glyph-name="heart2" d="M512-23.040l-71.68 71.68c-266.24 235.52-440.32 394.24-440.32 588.8 0 158.72 122.88 281.6 281.6 281.6 87.040 0 174.080-40.96 230.4-107.52 56.32 66.56 143.36 107.52 230.4 107.52 158.72 0 281.6-122.88 281.6-281.6 0-194.56-174.080-353.28-440.32-588.8l-71.68-71.68z" />
<glyph unicode="&#xe90a;" glyph-name="nosmoking" d="M200.49 714.249v-9.955h-45.84v9.955c0 39.802 11.567 70.335 34.362 90.762 20.231 18.138 47.531 26.962 83.416 26.962h19.777c44.958 0 71.938 16.74 71.938 71.912v9.946h45.813v-9.937c0-39.785-11.549-70.335-34.344-90.762-20.257-18.156-47.523-26.962-83.407-26.962h-19.777c-44.958-0.009-71.938-16.749-71.938-71.92zM957.217 658.49h-303.318l261.2 261.165c9.465 9.465 11.62 18.681 0 30.301l-2.093 2.101c-11.647 11.638-20.845 9.483-30.319 0l-293.594-293.567h-433.74c-29.171 0-51.984-8.967-67.807-26.615-13.962-15.592-20.765-35.876-20.765-61.992v-5.859c0-26.143 6.785-46.409 20.765-61.983 15.823-17.657 38.636-26.606 67.807-26.624h250.684l-293.363-293.354c-9.465-9.465-11.638-18.69 0-30.301l2.101-2.101c11.62-11.638 20.836-9.474 30.301 0l325.757 325.748h486.382v183.082zM227.506 521.238h-72.152c-32.813 0-42.768 16.046-42.75 42.776v5.859c0 26.731 9.946 42.768 42.75 42.768h72.152v-91.403zM273.337 521.238v91.412h269.953l-91.43-91.412h-178.523zM906.409 521.238h-389.743l91.43 91.412h298.322v-91.412z" />
<glyph unicode="&#xe90b;" glyph-name="plain" d="M784.794 887.91l-13.926-0.819c-15.565-0.819-30.31-6.554-42.598-16.384l-167.936-145.818-314.573 36.045c-13.107 1.638-27.034-2.458-36.864-12.288l-32.768-32.768c-8.192-8.192-12.288-19.661-9.83-31.13 1.638-11.469 9.011-21.299 18.842-26.214l210.534-107.315-90.112-104.858-79.462-4.096c-9.83-0.819-18.022-4.915-23.757-12.288l-7.373-9.83c-6.554-9.011-9.011-19.661-6.554-30.31s9.83-19.661 18.842-23.757l85.197-41.779 41.779-85.197c4.915-9.83 13.926-16.384 23.757-18.842 10.65-2.458 21.299 0 30.31 6.554l9.83 7.373c7.373 5.734 12.288 14.746 12.288 23.757l4.096 79.462 104.038 90.931 108.134-210.534c4.915-9.83 14.746-17.203 26.214-18.842 1.638 0 4.096-0.819 5.734-0.819 9.83 0 18.842 4.096 25.395 10.65l32.768 32.768c9.83 9.83 13.926 22.938 12.288 36.045l-36.045 314.573 145.818 167.936c9.83 11.469 16.384 27.034 16.384 42.598l0.819 13.926c0.819 18.842-6.554 37.683-19.661 50.79-13.926 13.926-32.768 21.299-51.61 20.48zM822.477 804.352c0-8.192-3.277-16.384-9.011-22.118l-149.914-173.67c-3.277-3.277-4.096-8.192-4.096-12.288l36.864-321.946c0.819-3.277-0.819-6.554-3.277-9.011l-32.768-32.768c0-1.638-1.638-1.638-1.638-1.638-0.819 0-1.638 0.819-2.458 1.638l-117.146 229.376c-2.458 4.096-6.554 7.373-11.469 9.011-4.915 0.819-9.83-0.819-13.926-4.096l-125.338-108.954c-3.277-3.277-5.734-7.373-5.734-11.469l-4.096-86.016-9.83-7.373c-0.819-0.819-2.458-0.819-2.458-0.819-0.819 0-1.638 0.819-2.458 1.638l-44.237 90.112c-1.638 3.277-4.096 5.734-7.373 7.373l-90.112 44.237c-0.819 0.819-1.638 1.638-1.638 2.458s0 1.638 0.819 2.458l6.554 9.011 86.835 4.096c4.096 0 9.011 2.458 11.469 5.734l108.954 125.338c3.277 4.096 4.915 9.011 4.096 13.926s-4.096 9.011-9.011 11.469l-229.376 117.965c-1.638 0.819-1.638 1.638-1.638 2.458s0 1.638 0.819 2.458l32.768 32.768c2.458 2.458 5.734 3.277 9.83 3.277l321.946-36.864c4.915-0.819 9.011 0.819 12.288 4.096l172.851 149.914c5.734 5.734 13.926 8.192 22.118 9.011l13.926 0.819c9.83 0 19.661-3.277 26.214-10.65 7.373-7.373 10.65-16.384 10.65-27.034v-13.926z" />
<glyph unicode="&#xe90c;" glyph-name="plain2" d="M238.933 448c-92.809 0-136.533 3.379-136.533 34.133 0 6.656 0 23.484 60.723 57.378l-57.856 86.767c-4.506 6.758-3.618 15.77 2.15 21.538l34.133 34.133c5.188 5.222 13.107 6.485 19.695 3.209l128.887-64.478 94.754 47.377c8.431 4.233 18.671 0.785 22.903-7.612 4.233-8.431 0.785-18.671-7.646-22.903l-102.4-51.2c-4.813-2.389-10.479-2.389-15.258 0l-125.508 62.771-15.531-15.531 60.484-90.761c2.697-4.028 3.55-9.045 2.321-13.756s-4.369-8.636-8.704-10.889c-20.036-10.342-40.107-22.869-51.302-31.676 24.098-4.369 75.503-4.369 94.686-4.369 114.21 0 648.533 209.408 648.533 273.067 0 13.21-32.427 34.133-119.467 34.133-88.917 0-196.574-49.118-197.666-49.63-8.567-3.925-18.705-0.171-22.665 8.363-3.959 8.567-0.205 18.705 8.363 22.665 4.676 2.116 115.473 52.736 211.968 52.736 138.65 0 153.6-47.718 153.6-68.267 0-107.349-591.804-307.2-682.667-307.2zM426.667 618.667c-2.901 0-5.837 0.751-8.465 2.253l-238.933 136.533c-4.608 2.628-7.748 7.27-8.465 12.561s1.092 10.581 4.847 14.336l68.267 68.267c4.471 4.437 10.957 6.076 16.964 4.267l341.333-102.4c6.485-1.946 11.196-7.509 12.049-14.234 0.819-6.69-2.355-13.278-8.158-16.759l-170.667-102.4c-2.697-1.604-5.734-2.423-8.772-2.423zM215.586 775.987l210.842-120.491 128.956 77.38-294.502 88.371-45.295-45.261zM768.034 738.202c-4.471 0-8.943 1.741-12.254 5.188-6.519 6.758-6.417 17.442 0.273 24.030 1.638 1.57 40.687 38.98 114.347 38.98 9.421 0 17.067-7.646 17.067-17.067s-7.646-17.067-17.067-17.067c-59.017 0-89.293-28.16-90.556-29.355-3.311-3.14-7.578-4.71-11.81-4.71zM699.733 345.6c-4.983 0-9.899 2.185-13.21 6.281l-153.6 187.733c-5.973 7.27-4.881 18.022 2.423 24.030 7.27 5.973 18.022 4.915 24.030-2.423l144.964-177.152 43.827 21.914-47.855 191.522c-2.287 9.148 3.277 18.398 12.425 20.685 9.045 2.287 18.398-3.243 20.685-12.425l51.2-204.8c1.946-7.748-1.775-15.804-8.909-19.388l-68.267-34.133c-2.526-1.263-5.12-1.843-7.714-1.843zM494.933 243.2h-375.467c-9.421 0-17.067 7.646-17.067 17.067s7.646 17.067 17.067 17.067h375.467c9.421 0 17.067-7.646 17.067-17.067s-7.646-17.067-17.067-17.067z" />
<glyph unicode="&#xe90d;" glyph-name="plaine" d="M864.207 544.428c-1.122 5.022-4.547 9.224-9.232 11.354l-276.234 124.977c-0.082 40.919-0.164 101.278-0.164 128.852 0 61.293-48.366 101.908-67.961 101.908-13.206 0-28-13.418-33.751-19.186-10.338-10.379-34.374-39.215-34.218-82.772 0.098-28.099 0.008-88.809-0.098-130.032l-273.687-123.748c-4.694-2.122-8.11-6.324-9.232-11.354l-14.246-63.709c-1.18-5.276 0.319-10.781 3.99-14.737s9.060-5.849 14.41-5.046l279.896 41.755 9.044-170.082-100.057-47.866c-5.292-2.531-8.831-7.7-9.265-13.55l-4.366-58.122c-0.377-5.030 1.581-9.953 5.308-13.345 3.736-3.4 8.823-4.891 13.795-4.030l110.223 18.907c11.018-18.096 31.556-25.313 42.263-25.313 10.756 0 31.4 7.373 42.426 25.739l112.648-19.341c4.956-0.86 10.060 0.639 13.795 4.030s5.693 8.315 5.308 13.345l-4.366 58.122c-0.442 5.865-3.99 11.051-9.306 13.574l-102.523 48.701 8.954 169.648 282.477-42.181c0.852-0.123 1.753-0.229 2.523-0.18 9.142 0.18 16.441 7.315 16.441 16.384 0.016 2.056-14.795 67.297-14.795 67.297zM564.576 538.186c-4.588 0.68-9.208-0.598-12.788-3.514s-5.751-7.209-5.997-11.821l-10.486-198.615c-0.352-6.627 3.334-12.812 9.331-15.663l103.834-49.324 2.081-27.714-104.661 17.949c-8.462 1.466-16.646-3.908-18.686-12.272-4.473-18.366-28.639-18.538-33.087-0.393-1.827 7.43-8.487 12.476-15.892 12.476-0.918 0-1.851-0.082-2.785-0.238l-102.162-17.523 2.081 27.738 101.376 48.497c5.972 2.859 9.642 9.036 9.29 15.655l-10.584 199c-0.246 4.612-2.425 8.897-5.997 11.821-3.58 2.916-8.217 4.202-12.78 3.514l-274.096-40.894 7.25 32.424 275.841 124.731c5.849 2.646 9.609 8.462 9.634 14.877 0.123 40.714 0.238 110.125 0.131 140.78-0.139 37.921 23.814 68.174 35.185 68.157 11.346-0.016 35.201-30.253 35.201-68.223 0-30.073 0.098-99.123 0.18-139.469 0.008-6.423 3.777-12.247 9.634-14.893l278.389-125.952 7.25-32.424-276.685 41.312z" />
<glyph unicode="&#xe90e;" glyph-name="price" d="M848.316 409.225c-6.656 6.656-17.476 6.656-24.132 0l-124.45-124.45-56.183 56.183c-6.656 6.656-17.476 6.656-24.132 0s-6.656-17.476 0-24.132l68.267-68.267c3.345-3.311 7.714-4.983 12.083-4.983s8.738 1.673 12.015 4.983l136.533 136.533c6.656 6.656 6.656 17.476 0 24.132zM502.579 361.233c-4.779 2.389-10.445 2.389-15.258 0l-207.735-103.868 44.373 221.798c1.126 5.598-0.649 11.401-4.676 15.428l-163.294 163.294 221.935 29.423c5.632 0.751 10.513 4.233 13.039 9.284l104.004 208.486 103.97-208.486c2.526-5.052 7.407-8.533 13.039-9.284l221.901-29.423-80.316-80.316c-6.656-6.656-6.656-17.476 0-24.132s17.476-6.656 24.132 0l104.755 104.755c4.608 4.574 6.178 11.401 4.096 17.545s-7.509 10.581-13.926 11.435l-247.194 32.768-115.234 231.014c-5.734 11.571-24.815 11.571-30.549 0l-115.234-231.014-247.194-32.768c-6.417-0.853-11.81-5.291-13.926-11.435-2.082-6.144-0.512-12.937 4.096-17.545l181.282-181.282-49.391-247.023c-1.263-6.417 1.229-12.971 6.383-16.93 3.038-2.321 6.724-3.516 10.377-3.516 2.594 0 5.222 0.614 7.578 1.775l235.315 117.658c4.881 1.058 9.25 4.335 11.674 9.25 4.233 8.431 0.41 18.876-8.021 23.108zM733.901 516.642c-103.492 0-187.733-84.207-187.733-187.733s84.241-187.733 187.733-187.733c103.492 0 187.733 84.207 187.733 187.733s-84.241 187.733-187.733 187.733zM733.901 175.309c-84.685 0-153.6 68.915-153.6 153.6s68.915 153.6 153.6 153.6c84.685 0 153.6-68.915 153.6-153.6s-68.915-153.6-153.6-153.6z" />
<glyph unicode="&#xe90f;" glyph-name="price2" d="M665.8 960c-65.587 0-131.191-24.971-181.133-74.9l-362.367-362.233c-26.548-26.541-26.548-70.026 0-96.567l265.667-265.567c26.548-26.541 70.019-26.541 96.567 0l350.2 350.067-110.8-329.9-102.533 43.9c-20.945 8.98-34.411-22.42-13.467-31.4l119.533-51.2c9.172-3.925 19.763 0.81 22.933 10.267l156.467 465.967c31.877 90.165 12.075 194.645-59.967 266.667-49.943 49.929-115.513 74.9-181.1 74.9zM665.8 926.1c56.776 0 113.55-21.728 156.967-65.133 59.288-59.272 77.106-145.695 55.433-220.767l-6.6-19.633c-10.854-26.649-27.17-51.776-48.833-73.433l-362.367-362.267c-13.587-13.584-34.713-13.584-48.3 0l-265.633 265.567c-13.588 13.584-13.587 34.683 0 48.267l362.367 362.267c43.417 43.405 100.191 65.133 156.967 65.133zM669.2 792.7c-21.886 0-43.8-8.305-60.4-24.9-33.2-33.191-33.2-87.509 0-120.7s87.567-33.191 120.767 0c33.2 33.191 33.2 87.509 0 120.7-16.6 16.595-38.48 24.9-60.367 24.9zM669.2 758.767c13.075 0 26.159-5.028 36.233-15.1 20.149-20.143 20.149-52.29 0-72.433s-52.318-20.143-72.467 0c-20.149 20.143-20.149 52.29 0 72.433 10.074 10.072 23.159 15.1 36.233 15.1zM477.533 635.9c-4.613-0.142-8.744-2.092-11.73-5.163l-170.67-170.671c-3.237-3.111-5.247-7.477-5.247-12.312 0-9.427 7.642-17.068 17.068-17.068 4.835 0 9.201 2.011 12.307 5.242l170.672 170.672c3.191 3.105 5.172 7.441 5.172 12.239 0 9.427-7.642 17.068-17.068 17.068-0.177 0-0.353-0.003-0.529-0.008zM579.933 533.5c-4.613-0.142-8.744-2.092-11.73-5.163l-170.67-170.671c-3.237-3.111-5.247-7.477-5.247-12.312 0-9.427 7.642-17.068 17.068-17.068 4.835 0 9.201 2.011 12.307 5.242l170.672 170.672c3.191 3.105 5.172 7.441 5.172 12.239 0 9.427-7.642 17.068-17.068 17.068-0.177 0-0.353-0.003-0.529-0.008z" />
<glyph unicode="&#xe910;" glyph-name="purse" d="M640 336c0-35.346-28.654-64-64-64s-64 28.654-64 64c0 35.346 28.654 64 64 64s64-28.654 64-64zM928.032 560c-0.032 0-0.032 0 0 0l-0.032 192v96c0 53.024-43.008 96-96 96h-656c-97.056 0-176-78.976-176-176v-640c0-97.024 78.944-176 176-176h576c97.024 0 176 78.976 176 176v48c0 0 0 0 0.032 0 127.936 96.032 127.936 287.968 0 384zM176 880h656c17.632 0 32-14.336 32-32v-197.888c-10.048 3.584-20.736 5.888-32 5.888h-0.032v160c0 17.696-14.336 32-32 32h-672c-17.664 0-32-14.304-32-32v-126.176c-19.744 20.192-31.968 47.712-31.968 78.176 0 61.856 50.112 112 112 112zM799.968 784h-672v32h672v-32zM799.968 752v-32h-672v32h672zM799.968 688v-32h-623.968c-17.28 0-33.408 4.224-48 11.2v20.8h671.968zM864 128c0-61.856-50.144-112-112-112h-576c-61.888 0-112 50.144-112 112v504.352c30.432-25.184 69.472-40.352 112-40.352h656c17.632 0 32-14.336 32-32v-64h-288c-88.384 0-160-71.616-160-160s71.648-160 160-160h288v-48zM904.864 240h-328.864c-52.928 0-96 43.072-96 96s43.072 96 96 96h288c19.744 0.256 39.328 9.824 51.264 25.728 3.328 4.48 5.92 9.504 8 14.752 0.288 0.704 0.8 1.248 1.056 1.984 23.008-30.176 35.68-67.168 35.68-106.464 0-49.216-19.872-94.88-55.136-128z" />
<glyph unicode="&#xe911;" glyph-name="signature" d="M342.508 271.872c-13.009-0.025-25.281 2.81-35.529 9.642-51.331 36.348-48.382 123.781-30.007 174.35 33.12 93.446 99.967 151.88 183.919 218.595l9.609 8.217c9.921 8.536 20.308 17.482 30.712 25.092-2.621 10.887-6.029 21.242-10.412 30.908-13.451 29.581-35.734 51.249-62.743 60.998-26.1 9.404-54.395 7.315-81.977-6.038-77.668-37.831-141.672-145.441-172.892-206.217-35.578-71.156-31.85-124.789-10.805-211.1 1.54-6.316-2.318-12.681-8.659-14.221-6.267-1.606-12.689 2.327-14.23 8.659-18.768 76.923-29.753 142.516 12.665 227.312 32.629 63.488 99.787 175.923 183.624 216.76 32.948 15.974 68.551 18.481 100.278 7.004 33.047-11.928 60.105-38.003 76.202-73.433 3.981-8.79 7.283-18.014 9.945-27.566 12.526 6.144 24.682 8.651 35.807 4.153 14.688-5.882 23.118-21.856 25.772-48.841 2.597-27.525-0.598-55.575-3.686-82.69-0.442-3.752-0.868-7.479-1.286-11.207 7.16 8.88 13.861 18.358 20.767 28.115 8.774 12.394 17.85 25.215 28.18 37.151 3.482 4.030 9.191 5.202 14 2.9 4.792-2.294 7.463-7.512 6.521-12.73-1.409-7.733-3.293-15.213-5.161-22.626-0.893-3.523-1.769-6.996-2.572-10.437 8.724 8.266 16.884 17.334 24.871 26.231 6.562 7.324 13.058 14.524 19.702 21.185 3.211 3.228 7.995 4.342 12.345 2.753 4.309-1.556 7.332-5.456 7.733-10.002 0.942-10.412-0.41-20.39-2.089-30.065 2.228 3.17 4.391 6.398 6.562 9.585 7.365 10.92 14.991 22.217 24.429 31.646 3.383 3.383 8.446 4.383 12.845 2.556 4.399-1.819 7.283-6.128 7.283-10.887 0-4.784-0.623-10.232-1.311-15.827-1.040-8.413-2.58-21.111 0.983-24.076 1.638-0.377 14.467-0.082 22.176 0.106 11.493 0.311 22.356 0.524 30.302-1.737 36.569-10.166 65.053-41.058 87.917-65.88l3.686-4.006c4.415-4.768 4.121-12.222-0.672-16.638-4.743-4.448-12.222-4.153-16.646 0.664l-3.703 4.006c-21.946 23.79-46.793 50.79-76.964 59.171-4.563 1.286-14.524 1.081-23.38 0.852-15.008-0.369-28.066-0.672-36.34 4.301-7.389 6.054-10.543 13.713-11.649 21.725-9.462-14.017-19.341-28.451-33.481-40.231-3.391-2.785-8.036-3.506-12.075-1.843-4.030 1.679-6.816 5.456-7.234 9.806-1.008 11.076 0.598 21.643 2.425 31.9-13.91-15.417-28.598-30.867-46.973-42.697-3.637-2.327-8.274-2.466-12.026-0.418-3.801 2.048-6.144 6.029-6.144 10.338 0 4.301 0.27 8.52 0.762 12.657-12.255-17.195-25.289-34.497-41.984-48.972-3.572-3.064-8.569-3.703-12.87-1.704-4.243 2.073-6.84 6.463-6.611 11.158 0.713 15.106 2.466 30.433 4.219 45.851 2.966 25.919 6.029 52.707 3.637 77.767-1.589 16.384-5.628 27.042-11.059 29.213-4.997 2.032-12.87-0.868-21.709-6.119 13.099-76.562-6.25-169.427-26.337-246.178l-3.064-10.666c-13.476-46.817-30.253-105.071-69.517-136.487-21.004-16.163-55.501-31.785-86.082-31.785zM505.84 681.546c-7.234-5.775-14.18-11.764-19.948-16.72l-10.068-8.61c-81.207-64.528-145.613-120.685-176.652-208.314-16.024-44.057-17.547-119.546 21.16-146.964 22.667-15.073 69.87 2.925 93.725 21.275 33.227 26.591 48.865 80.855 61.407 124.453l2.998 10.42c17.064 65.143 36.102 152.56 27.378 224.461z" />
<glyph unicode="&#xe912;" glyph-name="umbralla" d="M920.32 570.88c-37.12 189.44-197.12 328.96-382.72 337.92v25.6c0 10.24-8.96 19.2-19.2 19.2s-19.2-8.96-19.2-19.2v-25.6c-192-8.96-359.68-151.040-395.52-337.92-2.56-12.8 1.28-26.88 11.52-35.84 6.4-6.4 15.36-10.24 25.6-10.24 3.84 0 6.4 0 10.24 1.28s8.96 2.56 14.080 3.84c10.24 3.84 25.6 7.68 33.28 7.68 53.76 0 101.12-21.76 129.28-61.44 6.4-8.96 17.92-15.36 30.72-15.36s24.32 6.4 30.72 15.36c25.6 34.56 64 55.040 110.080 60.16v-189.44c-11.52-6.4-19.2-19.2-19.2-33.28 0-49.92-39.68-89.6-89.6-89.6-25.6 0-51.2 11.52-67.84 30.72-14.080 16.64-38.4 17.92-53.76 3.84-16.64-14.080-17.92-38.4-3.84-53.76 32-37.12 78.080-57.6 126.72-57.6 92.16 0 166.4 74.24 166.4 166.4 0 14.080-7.68 26.88-19.2 33.28v189.44c46.080-5.12 84.48-25.6 110.080-60.16 5.12-8.96 16.64-15.36 29.44-15.36s24.32 6.4 30.72 15.36c28.16 38.4 75.52 61.44 128 61.44 2.56 0 10.24-3.84 15.36-5.12 7.68-2.56 15.36-5.12 23.040-7.68 2.56 0 5.12-1.28 7.68-1.28 10.24 0 20.48 3.84 26.88 11.52 8.96 10.24 12.8 23.040 10.24 35.84zM198.4 576c-17.92 0-40.96-8.96-57.6-12.8 32 168.96 184.32 295.68 354.56 305.92-25.6-20.48-75.52-69.12-110.080-160-34.56-88.32-39.68-160-39.68-194.56-37.12 39.68-88.32 61.44-147.2 61.44zM518.4 576c-58.88 0-111.36-21.76-147.2-61.44 0 32 5.12 101.12 38.4 186.88 35.84 94.72 90.88 140.8 110.080 154.88 19.2-14.080 72.96-60.16 108.8-154.88 32-84.48 37.12-153.6 38.4-185.6-37.12 38.4-89.6 60.16-148.48 60.16zM838.4 576c-58.88 0-111.36-21.76-147.2-61.44 0 34.56-5.12 106.24-39.68 194.56-34.56 90.88-84.48 139.52-110.080 160 168.96-10.24 308.48-139.52 341.76-305.92-11.52 2.56-32 12.8-44.8 12.8z" />
<glyph unicode="&#xe913;" glyph-name="umbralla2" d="M487.424 526.643v-245.76c0-26.214-21.299-48.333-48.333-48.333s-48.333 21.299-48.333 48.333c0 13.926-10.65 24.576-24.576 24.576s-24.576-10.65-24.576-24.576c0-53.248 43.418-97.485 97.485-97.485 53.248 0 97.485 43.418 97.485 97.485v245.76c-8.192 1.638-16.384 2.458-24.576 2.458s-16.384-0.819-24.576-2.458zM152.371 552.858c8.192-5.734 19.661-5.734 27.853 0 0 0 0.819 0 0.819 0.819 18.842 13.107 40.96 19.661 64.717 19.661 50.79 0 95.027-32.768 109.773-81.101 3.277-10.65 12.288-17.203 23.757-17.203s20.48 7.373 23.757 17.203c14.746 48.333 58.982 81.101 109.773 81.101s95.027-32.768 109.773-81.101c3.277-10.65 12.288-17.203 23.757-17.203s20.48 7.373 23.757 17.203c14.746 48.333 58.982 81.101 109.773 81.101 22.938 0 45.056-6.554 64.717-19.661 0 0 0.819 0 0.819-0.819 8.192-5.734 19.661-5.734 27.853 0s12.288 15.565 10.65 25.395c-37.683 164.659-181.043 286.72-347.341 297.37v16.384c0 13.926-10.65 24.576-24.576 24.576s-24.576-10.65-24.576-24.576v-16.384c-166.298-10.65-309.658-132.71-345.702-296.55-2.458-9.83 1.638-20.48 10.65-26.214zM512 827.29c135.987 0 258.048-85.197 307.2-209.715-13.107 3.277-26.214 4.915-40.141 4.915-54.067 0-103.219-26.214-133.53-67.994-30.31 42.598-79.462 67.994-133.53 67.994s-103.219-26.214-133.53-67.994c-30.31 42.598-79.462 67.994-133.53 67.994-13.926 0-27.034-1.638-40.141-4.915 49.152 124.518 171.213 209.715 307.2 209.715z" />
<glyph unicode="&#xe914;" glyph-name="wifi" d="M144.179 425.882v-137.626c0-49.152 40.141-88.474 88.474-88.474h557.875c49.152 0 88.474 40.141 88.474 88.474v137.626c0 49.152-40.141 88.474-88.474 88.474h-557.875c-48.333 0-88.474-39.322-88.474-88.474zM838.861 425.882v-137.626c0-26.214-21.299-47.514-47.514-47.514h-558.694c-26.214 0-47.514 21.299-47.514 47.514v137.626c0 26.214 21.299 47.514 47.514 47.514h557.875c27.034 0 48.333-21.299 48.333-47.514zM633.242 692.122c-35.226 24.576-76.186 37.683-119.603 37.683s-84.378-13.107-119.603-37.683c-9.011-6.554-22.118-4.096-28.672 4.915s-4.096 22.118 4.915 28.672c41.779 29.491 90.931 45.056 143.36 45.056 51.61 0 101.581-15.565 143.36-45.056 9.011-6.554 11.469-19.661 4.915-28.672-4.096-5.734-10.65-9.011-16.384-9.011-4.096 0-8.192 1.638-12.288 4.096zM577.536 620.032c9.011-6.554 11.469-19.661 4.915-28.672-4.096-5.734-10.65-9.011-16.384-9.011-4.096 0-8.192 0.819-11.469 4.096-22.938 16.384-55.706 16.384-79.462 0-9.011-6.554-22.118-4.096-28.672 4.915s-4.096 22.118 4.915 28.672c18.842 13.107 40.141 20.48 63.078 20.48s44.237-7.373 63.078-20.48zM755.302 798.618c-4.096-5.734-10.65-9.011-16.384-9.011-4.096 0-8.192 0.819-11.469 4.096-62.259 44.237-135.168 67.174-212.173 67.174s-149.914-22.938-212.173-67.174c-9.011-6.554-22.118-4.096-28.672 4.915s-4.096 22.118 4.915 28.672c68.813 49.152 150.733 74.547 235.93 74.547s167.117-26.214 235.93-74.547c8.192-6.554 10.65-19.661 4.096-28.672zM486.605 357.069c0 11.469 9.011 20.48 20.48 20.48h209.715c11.469 0 20.48-9.011 20.48-20.48s-9.011-20.48-20.48-20.48h-209.715c-11.469 0-20.48 9.011-20.48 20.48zM312.115 357.069c0 13.107 10.65 23.757 23.757 23.757s23.757-10.65 23.757-23.757-10.65-23.757-23.757-23.757c-13.107 0-23.757 10.65-23.757 23.757z" />
</font>
</defs>
</svg>
