<?xml version="1.0" standalone="no"?>
<!DOCTYPE svg PUBLIC "-//W3C//DTD SVG 1.1//EN" "http://www.w3.org/Graphics/SVG/1.1/DTD/svg11.dtd" >
<svg>
<metadata>
Created by FontForge 20090914 at Fri Nov  4 10:02:14 2016
 By www-data
Typeface &#194;&#169; inglobal. 2014. All Rights Reserved
</metadata>
<defs>
<font id="inglobal" horiz-adv-x="1242" >
  <font-face 
    font-family="inglobal"
    font-weight="400"
    font-stretch="normal"
    units-per-em="2048"
    panose-1="2 0 8 0 0 0 0 0 0 0"
    ascent="1638"
    descent="-410"
    x-height="1025"
    cap-height="1435"
    bbox="-180 -440.999 2243 1876"
    underline-thickness="150"
    underline-position="-142"
    unicode-range="U+001D-U+2265"
  />
<missing-glyph horiz-adv-x="1024" 
 />
    <glyph glyph-name=".notdef" horiz-adv-x="1024" 
 />
    <glyph glyph-name=".null" horiz-adv-x="0" 
 />
    <glyph glyph-name=".null" horiz-adv-x="0" 
 />
    <glyph glyph-name="space" unicode=" " horiz-adv-x="508" 
 />
    <glyph glyph-name="space" unicode="&#xa0;" horiz-adv-x="508" 
 />
    <glyph glyph-name="exclam" unicode="!" horiz-adv-x="582" 
d="M322 523c-3.33301 -38.667 -7.66797 -67 -13.001 -85s-16.333 -27 -33 -27c-12 0 -21 5.33301 -27 16c-6 11.333 -9.66699 23 -11 35s-3.66602 36 -6.99902 72l-61 869c0 101.333 35.333 152 106 152c33.333 0 59 -11 77 -33s27 -64.667 27 -128l-5 -110zM274.998 0
c-81.333 0 -122 35 -122 105c0 70.667 40.667 106 122 106s122 -35.333 122 -106c0 -70 -40.667 -105 -122 -105z" />
    <glyph glyph-name="quotedbl" unicode="&#x22;" horiz-adv-x="676" 
d="M525 1426l-0.00195312 -3.99902l-30 -209c-1.33301 -16.667 -6.66602 -30.667 -15.999 -42c-10.667 -12 -22.667 -18 -36 -18c-14 0 -26.667 6 -38 18c-9.33301 10.667 -14.666 24.667 -15.999 42l-30 211l-2 23c0 22 4 41.333 12 58c8.66699 16 19.667 28.333 33 37
s27 13 41 13s27.333 -4.66699 40 -14c13.333 -8.66699 24 -21.667 32 -39c8 -16.667 12 -35.334 12 -56.001zM264.998 1426l-0.00195312 -3.99902l-30 -209c-1.33301 -16.667 -6.66602 -30.667 -15.999 -42c-10.667 -12 -22.667 -18 -36 -18c-14 0 -26.667 6 -38 18
c-9.33301 10.667 -14.666 24.667 -15.999 42l-30 211l-2 23c0 22 4 41.333 12 58c8.66699 16 19.667 28.333 33 37s27 13 41 13s27.333 -4.66699 40 -14c13.333 -8.66699 24 -21.667 32 -39c8 -16.667 12 -35.334 12 -56.001z" />
    <glyph glyph-name="numbersign" unicode="#" horiz-adv-x="1271" 
d="M820 880h-320l-103 -304h320zM1169 992c37.333 0 55.999 -18.668 55.999 -56.001s-18.667 -56 -56 -56h-232l-102 -304h204c37.333 0 56 -18.667 56 -56c0 -38 -18.667 -57 -56 -57h-242l-100 -295c-8.66699 -26 -23.667 -39 -45 -39c-8 0 -16.667 1.66699 -26 5
c-26 8.66699 -39 24 -39 46c0 7.33301 1.66699 15.666 5 24.999l87 258h-320l-100 -295c-8.66699 -26 -23.667 -39 -45 -39c-7.33301 0 -15.666 1.66699 -24.999 5c-26.667 8.66699 -40 24 -40 46c0 8 1.66699 16.333 5 25l88 258h-196c-37.333 0 -56 19 -56 57
c0 37.333 18.667 56 56 56h233l103 304h-206c-37.333 0 -56 18.667 -56 56s18.667 56 56 56h244l92 273c8.66699 26 23.667 39 45 39c8 0 16.667 -1.66699 26 -5c26 -8.66699 39 -24 39 -46c0 -7.33301 -1.66699 -15.666 -5 -24.999l-79 -236h320l92 273
c8.66699 26 23.667 39 45 39c8 0 16.667 -1.66699 26 -5c26 -8.66699 39 -24 39 -46c0 -7.33301 -1.66699 -15.666 -5 -24.999l-80 -236h194z" />
    <glyph glyph-name="dollar" unicode="$" horiz-adv-x="1127" 
d="M916 716c82 -63.333 122.998 -153.335 122.998 -270.002c0 -103.333 -32.333 -192 -97 -266c-52.667 -60.667 -123 -107.334 -211 -140.001c-44.667 -17.333 -89.667 -29.333 -135 -36v-233c0 -44 -22 -66 -66 -66c-44.667 0 -67 22 -67 66v230
c-87.333 6.66699 -164.666 27.667 -231.999 63c-66.667 34.667 -120.334 81.334 -161.001 140.001c-33.333 48.667 -50 92 -50 130c0 21.333 6 39.333 18 54c11.333 14.667 25.333 22 42 22c15.333 0 29 -9.66699 41 -29l63 -106c44 -58 94 -101 150 -129
c55.333 -28 119.333 -42 192 -42c106.667 0 194.667 27.333 264 82c68.667 54 103 122.667 103 206c0 77.333 -28.333 138.666 -85 183.999c-40.667 32 -98.667 56 -174 72l-128 21c-39.333 6.66699 -68 12.334 -86 17.001c-18 4 -42.667 10.667 -74 20
c-85.333 26 -150.666 66.333 -195.999 121c-48 57.333 -72 128.666 -72 213.999c0 109.333 38.667 200.666 116 273.999c69.333 66.667 159 105.334 269 116.001v217c0 44 22.333 66 67 66c44 0 66 -22 66 -66v-216c22 -2 44 -5 66 -9
c44.667 -7.33301 85.334 -17.666 122.001 -30.999c41.333 -15.333 78.666 -38.333 111.999 -69c18.667 -15.333 28 -34.666 28 -57.999c0 -50.667 -25 -76 -75 -76c-20 0 -37.667 6.66699 -53 20l-111 81c-59.333 30.667 -121 46 -185 46
c-79.333 0 -143.666 -21.667 -192.999 -65s-74 -100.666 -74 -171.999s21.667 -125 65 -161c40 -34 110.667 -62.667 212 -86c4 -2 20.333 -6 49 -12s46 -9.66699 52 -11c137.333 -24 239 -61.667 305 -113z" />
    <glyph glyph-name="percent" unicode="%" horiz-adv-x="1675" 
d="M1373 166c34.667 58 52.001 137.333 52.001 238c0 114 -20.667 198.333 -62 253c-33.333 43.333 -77.666 65 -132.999 65c-58.667 0 -104.334 -28 -137.001 -84c-32.667 -56.667 -49 -135.334 -49 -236.001c0 -101.333 16.333 -180.666 49 -237.999
c33.333 -56.667 79.666 -85 138.999 -85s106.333 29 141 87zM1478 685c62.667 -74 94.001 -170.001 94.001 -288.001c0 -116.667 -31.333 -211.667 -94 -285c-63.333 -73.333 -145.333 -110 -246 -110c-98.667 0 -179.667 37 -243 111s-95 168.667 -95 284
c0 116.667 31.333 212.334 94 287.001c63.333 75.333 144.666 113 243.999 113c100.667 0 182.667 -37.333 246 -112zM483.002 804.999c34.667 58 52.001 137.333 52.001 238c0 114.667 -20.667 199 -62 253c-33.333 43.333 -77.666 65 -132.999 65
c-58.667 0 -104.334 -28 -137.001 -84s-49 -134.667 -49 -236s16.333 -180.333 49 -237c33.333 -57.333 79.666 -86 138.999 -86s106.333 29 141 87zM588.003 1325c62.667 -74 94.001 -170.334 94.001 -289.001c0 -116.667 -31.333 -211.667 -94 -285
c-63.333 -73.333 -145.333 -110 -246 -110c-98.667 0 -179.667 37 -243 111c-63.333 74.667 -95 169.334 -95 284.001c0 116.667 31.333 212.667 94 288c63.333 74.667 144.666 112 243.999 112c100.667 0 182.667 -37 246 -111zM249.004 40.998c0 8 3.33301 16.667 10 26
l999 1364c9.33301 12.667 19.666 19 30.999 19c8 0 16.667 -3.33301 26 -10c12.667 -9.33301 19 -19.666 19 -30.999c0 -8 -3.33301 -16.667 -10 -26l-999 -1364c-9.33301 -12.667 -19.666 -19 -30.999 -19c-8 0 -16.667 3.33301 -26 10
c-12.667 9.33301 -19 19.666 -19 30.999z" />
    <glyph glyph-name="ampersand" unicode="&#x26;" horiz-adv-x="1453" 
d="M480 121c106 0 206 43.667 300 131l-78 93l-142 172c-63.333 78 -115 144 -155 198c-90.667 -61.333 -151.667 -123 -183 -185c-18.667 -36 -28 -77.667 -28 -125c0 -81.333 27.333 -149 82 -203s122.667 -81 204 -81zM367 1147c0 -25.333 6 -53.668 18 -85.001
c20.667 -52.667 58.334 -117.667 113.001 -195c70 42.667 121 76 153 100c44.667 34 76.667 65.333 96 94c22 32 33 67.333 33 106c0 55.333 -19 101 -57 137s-85.667 54 -143 54c-60.667 0 -111.334 -19 -152.001 -57c-40.667 -37.333 -61 -84.666 -61 -141.999v-12z
M1384 158.998c32 0 47.998 -10.999 47.998 -32.999c0 -32 -22 -58.333 -66 -79c-44.667 -21.333 -101.334 -32 -170.001 -32c-53.333 0 -106 10 -158 30c-67.333 26 -130.666 68.667 -189.999 128c-42 -38 -75.667 -66 -101 -84c-40 -28 -81.333 -49.333 -124 -64
c-50 -16.667 -106.333 -25 -169 -25c-120.667 0 -219.667 35.667 -297 107s-116 162.666 -116 273.999c0 64.667 14.667 122.334 44 173.001c24.667 43.333 63 85.666 115 126.999c35.333 28.667 88.333 64.334 159 107.001c-90.667 128 -136 235 -136 321
c0 96 32 175.667 96 239c68.667 68 158 102 268 102c92.667 0 168.334 -26.667 227.001 -80s88 -122.666 88 -207.999c0 -66.667 -20.333 -123 -61 -169c-6.66699 -9.33301 -25.334 -26.666 -56.001 -51.999c-51.333 -41.333 -125.666 -92.333 -222.999 -153
c19.333 -30.667 38.333 -59 57 -85c24.667 -36.667 56.334 -78.667 95.001 -126c51.333 -64.667 111.666 -135.334 180.999 -212.001c36.667 46 67.334 93.667 92.001 143c30.667 62 50 139 58 231c4 60 36 90 96 90c64 0 96 -32 96 -96c0 -19.333 -5 -37 -15 -53
c-32.667 -59.333 -77.334 -130.333 -134.001 -213c-17.333 -28 -57 -84.667 -119 -170c50.667 -50.667 95.334 -87.334 134.001 -110.001c52 -31.333 106.667 -47 164 -47c23.333 5.33301 46.333 9.66602 69 12.999z" />
    <glyph glyph-name="quotesingle" unicode="'" horiz-adv-x="270" 
d="M218 1426l-0.00195312 -3.99902l-30 -209c-1.33301 -16.667 -6.66602 -30.667 -15.999 -42c-10.667 -12 -22.667 -18 -36 -18c-14 0 -26.667 6 -38 18c-9.33301 10.667 -14.666 24.667 -15.999 42l-30 211l-2 23c0 22 4 41.333 12 58c8.66699 16 19.667 28.333 33 37
s27 13 41 13s27.333 -4.66699 40 -14c13.333 -8.66699 24 -21.667 32 -39c8 -16.667 12 -35.334 12 -56.001z" />
    <glyph glyph-name="parenleft" unicode="(" horiz-adv-x="664" 
d="M556 -314c0 -44 -22.001 -66.0029 -66.001 -66.0029c-31.333 0 -52.333 15 -63 45c-84 184 -144.667 358.667 -182 524c-32 139.333 -48 275 -48 407c0 176.667 29 361.334 87 554.001c35.333 120.667 83 246.334 143 377.001c10.667 30 31.667 45 63 45
c44 0 66 -22.333 66 -67l-5 -26c-51.333 -113.333 -92.666 -229.666 -123.999 -348.999c-44.667 -174.667 -67.334 -352.667 -68.001 -534c0.666992 -126 12 -250.667 34 -374c30.667 -176 83.334 -345.667 158.001 -509z" />
    <glyph glyph-name="parenright" unicode=")" horiz-adv-x="689" 
d="M68 1505c0 44.667 22 67.002 66 67.002c32 0 53 -15 63 -45c84 -184 144.667 -358.667 182 -524c32 -139.333 48 -275 48 -407c0 -177.333 -28.667 -362 -86 -554c-36 -120.667 -84 -246.334 -144 -377.001c-10 -30 -31 -45 -63 -45c-44 0 -66 22 -66 66l6 27
c50.667 113.333 91.667 229.666 123 348.999c45.333 174.667 68 352.667 68 534c0 126 -11 250.667 -33 374c-31.333 176 -84 345.667 -158 509z" />
    <glyph glyph-name="asterisk" unicode="*" horiz-adv-x="823" 
d="M427 1127c18.667 -40.667 27.998 -71.3379 27.998 -92.0049c0 -23.333 -6.66699 -42.666 -20 -57.999c-13.333 -16 -31.666 -24 -54.999 -24c-20.667 0 -38.334 7.33301 -53.001 22s-22 32 -22 52c0 20.667 6.33301 48.334 19 83.001l22 63c12.667 28 19 48.667 19 62
c0 12 -3.66699 18 -11 18s-15 -3.66699 -23 -11s-16 -16.333 -24 -27c-8 -10 -14.667 -19 -20 -27l-26 -35c-10.667 -14.667 -20.667 -27 -30 -37s-19.666 -18.667 -30.999 -26c-12 -6.66699 -24 -10 -36 -10c-21.333 0 -39.666 7 -54.999 21
c-14.667 14.667 -22 32.334 -22 53.001c0 32.667 14 54.334 42 65.001s66.667 20.334 116 29.001c12.667 2 24.667 4 36 6c12.667 2 25 5.33301 37 10c12.667 4.66699 19 10.334 19 17.001c0 15.333 -38 27.333 -114 36c-46 4.66699 -81.333 12.334 -106 23.001
c-24.667 10 -37 32 -37 66c0 19.333 7 35.666 21 48.999s31 20 51 20c25.333 0 46.666 -8.33301 63.999 -25c17.333 -17.333 41.333 -44.333 72 -81c30.667 -37.333 52 -56 64 -56c7.33301 0 11 5.66699 11 17c0 10.667 -5.66699 28.667 -17 54l-20 52
c-18.667 40.667 -28 72.334 -28 95.001c0 21.333 7 39 21 53c14.667 13.333 32.667 20 54 20c20.667 0 38 -8 52 -24c13.333 -15.333 20 -33.333 20 -54c0 -14.667 -2.66699 -30.667 -8 -48s-11.666 -35 -18.999 -53l-21 -54c-6.66699 -18 -10 -31 -10 -39
c0 -11.333 3.33301 -17 10 -17c12 0 32 19.333 60 58s50.667 67.667 68 87c18 18.667 40 28 66 28c20.667 0 38 -6.33301 52 -19c14 -13.333 21 -30.666 21 -51.999c0 -35.333 -16.333 -59.666 -49 -72.999c-32 -13.333 -74.333 -24 -127 -32c-52 -8 -78 -17 -78 -27
c0 -12.667 27.667 -22.334 83 -29.001s99 -15.334 131 -26.001c31.333 -10.667 47 -33.334 47 -68.001c0 -22.667 -6.66699 -40.334 -20 -53.001c-12.667 -13.333 -30.334 -20 -53.001 -20c-13.333 0 -26.666 4 -39.999 12c-12.667 7.33301 -24.667 16.333 -36 27
s-22.333 22.667 -33 36l-33 39c-27.333 34.667 -46.333 52 -57 52c-8 0 -12 -5.66699 -12 -17c0 -8.66699 5 -26.667 15 -54z" />
    <glyph glyph-name="plus" unicode="+" horiz-adv-x="1358" 
d="M1137 766c47.333 0 71 -24 71 -72c0 -47.333 -23.667 -71 -71 -71h-387v-387c0 -47.333 -23.667 -71 -71 -71c-48 0 -72 23.667 -72 71v387h-386c-47.333 0 -71 23.667 -71 71c0 48 23.667 72 71 72h386v386c0 47.333 24 71 72 71c47.333 0 71 -23.667 71 -71v-386h387z
" />
    <glyph glyph-name="comma" unicode="," horiz-adv-x="552" 
d="M381 117c8.66699 -25.333 13.001 -53 13.001 -83c0 -106 -50 -212 -150 -318c-10.667 -12 -20.334 -20.667 -29.001 -26c-8.66699 -6 -18 -9 -28 -9c-12.667 0 -19 5 -19 15c0 7.33301 5 19 15 35l93 131c24 41.333 36 75.333 36 102c0 12 -4.33301 22.333 -13 31l-44 1
c-85.333 0 -128 34.667 -128 104c0 70 42.667 105 128 105c49.333 0 86.333 -17.333 111 -52c4.66699 -8 9.66699 -20 15 -36z" />
    <glyph glyph-name="hyphen" unicode="-" horiz-adv-x="827" 
d="M632 556h-437c-47.333 0 -71 25.333 -71 76s23.667 76 71 76h437c47.333 0 71 -25.333 71 -76s-23.667 -76 -71 -76z" />
    <glyph glyph-name="hyphen" unicode="&#xad;" horiz-adv-x="827" 
d="M632 556h-437c-47.333 0 -71 25.333 -71 76s23.667 76 71 76h437c47.333 0 71 -25.333 71 -76s-23.667 -76 -71 -76z" />
    <glyph glyph-name="period" unicode="." horiz-adv-x="518" 
d="M248 0c-78 0 -117 31.667 -117 95c0 64 39 96 117 96c77.333 0 116 -32 116 -96c0 -63.333 -38.667 -95 -116 -95z" />
    <glyph glyph-name="slash" unicode="/" horiz-adv-x="993" 
d="M88 -205c-17.333 8 -26 19.333 -26 34c0 6.66699 1.66699 14 5 22l793 1706c8 17.333 19.667 26 35 26c6.66699 0 14 -1.66699 22 -5c17.333 -8 26 -19.333 26 -34c0 -6.66699 -1.66699 -14 -5 -22l-793 -1706c-8 -17.333 -19.667 -26 -35 -26
c-6.66699 0 -14 1.66699 -22 5z" />
    <glyph glyph-name="zero" unicode="0" horiz-adv-x="1070" 
d="M320 220c45.333 -92.667 120.668 -139.001 226.001 -139.001c81.333 0 144.666 25.667 189.999 77c42 46.667 71.333 116 88 208c15.333 78 23 178.333 23 301c0 256.667 -24.667 437.334 -74 542.001c-44.667 98 -120.334 147 -227.001 147
c-115.333 0 -194.666 -55 -237.999 -165c-38.667 -98 -58 -271.333 -58 -520c0 -208.667 23.333 -359 70 -451zM898.002 1278c89.333 -125.333 134 -313.999 134 -565.999c0 -110 -10 -210.667 -30 -302c-28.667 -124.667 -75 -222.334 -139 -293.001
c-78.667 -88 -183 -132 -313 -132c-155.333 0 -275.333 63 -360 189c-83.333 126.667 -125 308 -125 544c0 231.333 41.333 411.333 124 540c84 128 201 192 351 192c154.667 0 274 -57.333 358 -172z" />
    <glyph glyph-name="one" unicode="1" horiz-adv-x="833" 
d="M683 67c0 -54.667 -27.333 -81.998 -82 -81.998c-56 0 -84 27.333 -84 82v1214c-122.667 -90.667 -232 -207.667 -328 -351l-2 -3c-12 -16 -28 -24 -48 -24c-40 0 -60 19.667 -60 59c0 8 1.66699 15.667 5 23c4 7.33301 8.33301 13.666 13 18.999
c96 133.333 213.667 256.666 353 369.999c60.667 48.667 110.667 74 150 76c55.333 0 83 -27 83 -81v-1302z" />
    <glyph glyph-name="two" unicode="2" horiz-adv-x="1202" 
d="M1030 189c62.667 0 93.998 -31.334 93.998 -94.001c0 -63.333 -31.333 -95 -94 -95h-801c-60.667 0 -91 21.333 -91 64c0 38 24.333 93.333 73 166c40.667 60 130.334 160 269.001 300l83 80l135 131c50 48.667 77 75.667 81 81c39.333 44.667 70 92.667 92 144
s33 101.666 33 150.999c0 67.333 -23.667 123 -71 167c-48 42.667 -109.333 64 -184 64c-73.333 0 -139.666 -21 -198.999 -63c-59.333 -42.667 -89 -90.334 -89 -143.001c0 -12.667 9.66699 -30 29 -52c20 -23.333 30 -48.666 30 -75.999
c0 -13.333 -2.66699 -26.333 -8 -39c-3.33301 -13.333 -11.333 -25.666 -24 -36.999c-16.667 -14 -36 -21 -58 -21c-36 0 -67 15.333 -93 46c-26 32 -39 70.333 -39 115c0 102 46.333 189.333 139 262c92.667 73.333 203.667 110 333 110
c120.667 0 219.334 -33.667 296.001 -101c75.333 -67.333 113 -154.333 113 -261c0 -134 -69.667 -265.667 -209 -395c-270 -250 -438.667 -421 -506 -513c-5.33301 -7.33301 -8 -14.333 -8 -21c0 -9.33301 5.66699 -17.666 17 -24.999c28 -20 110.333 -30 247 -30
c110.667 0 190.667 7 240 21c35.333 10 79.666 28.667 132.999 56c12 5.33301 24.333 8 37 8z" />
    <glyph glyph-name="three" unicode="3" horiz-adv-x="1132" 
d="M942 654c60.667 -60 91.001 -139.668 91.001 -239.001c0 -124 -46.667 -226 -140 -306c-96.667 -82.667 -224.667 -124 -384 -124c-126.667 0 -228.667 26.333 -306 79c-78.667 54 -118 124 -118 210c0 37.333 8 67.666 24 90.999c10.667 16 24.334 26.667 41.001 32l5 2
c10 3.33301 20.333 5 31 5c61.333 0 92.666 -31.333 93.999 -94c2 -88 21.667 -148 59 -180c46.667 -40 104 -60 172 -60c98.667 0 178.667 30.667 240 92s92 141.333 92 240c0 100.667 -28.333 179.667 -85 237c-53.333 52.667 -121.666 79 -204.999 79h-116
c-16.667 0 -31.667 4.33301 -45 13s-20 18.334 -20 29.001c0 16.667 8.66699 29.334 26 38.001c16.667 8.66699 46.667 16.334 90 23.001c123.333 16.667 209.666 57 258.999 121c33.333 43.333 50 99 50 167c0 75.333 -23 136 -69 182c-46 46.667 -105.667 70 -179 70
c-57.333 0 -109.333 -15.667 -156 -47c-27.333 -18.667 -41 -71.334 -41 -158.001c0 -20 -6.33301 -38.333 -19 -55c-4 -8 -10.333 -15 -19 -21c-15.333 -13.333 -33.333 -20 -54 -20c-15.333 0 -30 3.66699 -44 11c-36 17.333 -54 45.666 -54 84.999l1 14
c0 75.333 40 141 120 197c80 55.333 174.667 83 284 83c118 0 216.333 -32.333 295 -97s118 -146 118 -244c0 -164 -108 -272.333 -324 -325c129.333 -27.333 224.666 -70.666 285.999 -129.999z" />
    <glyph glyph-name="four" unicode="4" horiz-adv-x="1166" 
d="M736 515l1 765.999c-242 -179.333 -418 -434.666 -528 -765.999h527zM1123 503.999c19.333 -6 29.001 -24.333 29.001 -55c0 -26 -7.66699 -42.333 -23 -49c-14.667 -7.33301 -46.334 -11 -95.001 -11h-133v-322c0 -54.667 -27.333 -82 -82 -82
c-55.333 0 -83 27.333 -83 82v322h-596c-29.333 0 -50 4.33301 -62 13c-12 9.33301 -18 25.333 -18 48c0 42 12.667 92.667 38 152c133.333 312.667 324 570 572 772c60 48.667 109.667 74 149 76c54.667 0 82 -27 82 -81v-854h93c66.667 0 109.667 -3.66699 129 -11z" />
    <glyph glyph-name="five" unicode="5" horiz-adv-x="1154" 
d="M327 817c62.667 30 121.336 50.3281 176.003 60.9951c35.333 7.33301 75 11 119 11c128.667 0 233.667 -39 315 -117c82 -78 123 -177 123 -297c0 -148 -49.333 -266.333 -148 -355c-100 -90 -232 -135 -396 -135c-117.333 0 -215.333 26.333 -294 79
c-79.333 52.667 -119 118.667 -119 198c0 34 8.33301 61.667 25 83c16 21.333 37.667 32 65 32c28.667 0 50.667 -8.33301 66 -25c16 -16.667 24 -40 24 -70c0 -67.333 21 -118 63 -152c38.667 -31.333 92.667 -47 162 -47c112 0 201.333 34.333 268 103
c66.667 69.333 100 162 100 278c0 100 -26 179.333 -78 238s-122.667 88 -212 88c-38.667 0 -79.334 -6.66699 -122.001 -20c-41.333 -13.333 -87 -34.666 -137 -63.999c-30 -18.667 -57.333 -28 -82 -28c-14 0 -24.333 5.33301 -31 16c-7.33301 10 -11 24.333 -11 43
c1.33301 16.667 4 45.334 8 86.001c7.33301 103.333 12.666 188 15.999 254c6 114 9 201.667 9 263c0 32.667 3.66699 55.334 11 68.001c6 12.667 18 19 36 19l149 -12c49.333 -3.33301 89 -5 119 -5c44.667 0 96.667 2.66699 156 8l180 17c19.333 0 33 -1.66699 41 -5
c13.333 -5.33301 20 -16.666 20 -33.999c0 -41.333 -46.333 -74.666 -139 -99.999s-202.667 -38 -330 -38l-45 1c-52.667 3.33301 -80.334 5 -83.001 5z" />
    <glyph glyph-name="six" unicode="6" horiz-adv-x="1097" 
d="M791 176c51.333 64.667 77 154.999 77 270.999c0 109.333 -26 195.333 -78 258c-52 62 -124.333 93 -217 93c-54 0 -109 -11.333 -165 -34c-95.333 -39.333 -148 -107.666 -158 -204.999c-2 -21.333 -3 -42 -3 -62c0 -106.667 29.667 -203.667 89 -291
c57.333 -84 137 -126 239 -126c92.667 0 164.667 32 216 96zM960 753.999c63.333 -77.333 95 -171.998 95 -283.998c0 -143.333 -46.333 -260 -139 -350c-93.333 -90 -213.333 -135 -360 -135c-156 0 -276 56.333 -360 169c-85.333 115.333 -128 281.666 -128 498.999
c0 246.667 49 440.667 147 582c98.667 143.333 227 215 385 215c130.667 0 242.334 -41 335.001 -123c59.333 -52 89 -103.667 89 -155c0 -64.667 -32.667 -97 -98 -97s-98 32.333 -98 97l2 20v4c0 21.333 -9 43 -27 65c-50 62.667 -111.667 94 -185 94
c-110.667 0 -194.667 -42 -252 -126c-68.667 -102 -103 -223.333 -103 -364c0 -28.667 1.33301 -58.334 4 -89.001c65.333 45.333 128.333 79 189 101c47.333 16.667 98 25 152 25c19.333 0 39.666 -1.33301 60.999 -4c125.333 -12.667 222.333 -60.667 291 -144z" />
    <glyph glyph-name="seven" unicode="7" horiz-adv-x="1008" 
d="M923 1434c30 -3.33301 45 -16 45 -38c0 -11.333 -4.33301 -26.333 -13 -45c-279.333 -766 -426.333 -1173 -441 -1221c-18 -60 -32 -96 -42 -108c-18 -24.667 -51.667 -37 -101 -37c-20.667 0 -37.667 6.33301 -51 19c-14 12.667 -21 28 -21 46
c0.666992 4.66699 1.33398 10.667 2.00098 18c6 33.333 23.667 86.333 53 159l196 465l258 580c2 4 3.33301 8 4 12c0 6 -4 11.667 -12 17c-30.667 20 -114 30 -250 30c-112.667 0 -193.334 -7 -242.001 -21c-36.667 -10 -82 -29 -136 -57c-12 -4.66699 -24.333 -7 -37 -7
c-63.333 0 -95 31.333 -95 94c0 63.333 31.667 95 95 95z" />
    <glyph glyph-name="eight" unicode="8" horiz-adv-x="1085" 
d="M789 976c36 44 53.999 94.667 53.999 152c0 66 -27 120.667 -81 164c-55.333 44 -123.666 66 -204.999 66c-84 0 -154 -22 -210 -66c-55.333 -42.667 -83 -97.667 -83 -165c0 -58 19.667 -106 59 -144c52.667 -52 148.667 -99.667 288 -143c82.667 46.667 142 92 178 136
zM265.999 505c-31.333 -46.667 -47 -103.999 -47 -171.999c0 -78.667 30.667 -142.334 92 -191.001c60.667 -48.667 139.667 -73 237 -73c96.667 0 176.667 26.333 240 79c64 52 96 117.667 96 197c0 64.667 -26.333 121 -79 169c-60 56 -165.667 114 -317 174
c-108 -62 -182 -123 -222 -183zM967.999 622.001c48 -57.333 72 -131.333 72 -222c0 -118.667 -47.667 -217.334 -143 -296.001c-95.333 -79.333 -215.333 -119 -360 -119c-136.667 0 -248.334 33 -335.001 99c-86 66 -129 151.667 -129 257c0 65.333 14 121.666 42 168.999
c24.667 42 62.334 81.333 113.001 118c28 20 82.667 53.667 164 101c-90.667 45.333 -157 97.333 -199 156c-43.333 58 -65 123.333 -65 196c0 108.667 41.333 197.334 124 266.001c83.333 68.667 191.333 103 324 103c104 0 194.333 -24.667 271 -74
c88.667 -57.333 133 -135 133 -233c0 -73.333 -25 -139.333 -75 -198c-43.333 -50 -109.333 -99.333 -198 -148c126 -59.333 213 -117.666 261 -174.999z" />
    <glyph glyph-name="nine" unicode="9" horiz-adv-x="1098" 
d="M321 1259c-51.333 -64 -77 -154.332 -77 -270.999c0 -109.333 26 -195.333 78 -258c52 -62 124.333 -93 217 -93c54 0 109 11.333 165 34c95.333 39.333 148 107.666 158 204.999c2 21.333 3 42 3 62c0 106.667 -29.667 203.667 -89 291c-57.333 84 -137 126 -239 126
c-92.667 0 -164.667 -32 -216 -96zM152 681.001c-63.333 77.333 -95 171.998 -95 283.998c0 143.333 46.333 260 139 350c93.333 90 213.333 135 360 135c156 0 276 -56.333 360 -169c85.333 -115.333 128 -281.666 128 -498.999c0 -246.667 -49 -440.667 -147 -582
c-98.667 -143.333 -227 -215 -385 -215c-130.667 0 -242.334 41 -335.001 123c-59.333 52 -89 103.667 -89 155c0 64.667 32.667 97 98 97s98 -32.333 98 -97l-2 -20v-4c0 -21.333 9 -43 27 -65c50 -62.667 111.667 -94 185 -94c110.667 0 194.667 42 252 126
c68.667 102 103 223.333 103 364c0 28.667 -1.33301 58.334 -4 89.001c-65.333 -45.333 -128.333 -79 -189 -101c-47.333 -16.667 -98 -25 -152 -25c-19.333 0 -39.666 1.33301 -60.999 4c-125.333 12.667 -222.333 60.667 -291 144z" />
    <glyph glyph-name="colon" unicode=":" horiz-adv-x="402" 
d="M178 0c-81.333 0 -122 35 -122 105c0 69.333 40.667 104 122 104s122 -34.667 122 -104c0 -70 -40.667 -105 -122 -105zM178 738c-81.333 0 -122 34.667 -122 104c0 70 40.667 105 122 105s122 -35 122 -105c0 -69.333 -40.667 -104 -122 -104z" />
    <glyph glyph-name="semicolon" unicode=";" horiz-adv-x="408" 
d="M177 736c-85.333 0 -128 35 -128 105s42.667 105 128 105c86 0 129 -35 129 -105s-43 -105 -129 -105zM303 117c8.66699 -25.333 13.001 -53 13.001 -83c0 -106 -50 -212 -150 -318c-10.667 -12 -20.334 -20.667 -29.001 -26c-8.66699 -6 -18 -9 -28 -9
c-12.667 0 -19 5 -19 15c0 7.33301 5 19 15 35l93 131c24 41.333 36 75.333 36 102c0 12 -4.33301 22.333 -13 31l-44 1c-85.333 0 -128 34.667 -128 104c0 70 42.667 105 128 105c49.333 0 86.333 -17.333 111 -52c4.66699 -8 9.66699 -20 15 -36z" />
    <glyph glyph-name="semicolon" unicode="&#x37e;" horiz-adv-x="408" 
d="M177 736c-85.333 0 -128 35 -128 105s42.667 105 128 105c86 0 129 -35 129 -105s-43 -105 -129 -105zM303 117c8.66699 -25.333 13.001 -53 13.001 -83c0 -106 -50 -212 -150 -318c-10.667 -12 -20.334 -20.667 -29.001 -26c-8.66699 -6 -18 -9 -28 -9
c-12.667 0 -19 5 -19 15c0 7.33301 5 19 15 35l93 131c24 41.333 36 75.333 36 102c0 12 -4.33301 22.333 -13 31l-44 1c-85.333 0 -128 34.667 -128 104c0 70 42.667 105 128 105c49.333 0 86.333 -17.333 111 -52c4.66699 -8 9.66699 -20 15 -36z" />
    <glyph glyph-name="less" unicode="&#x3c;" horiz-adv-x="1094" 
d="M952 422c29.333 -12 44.001 -30 44.001 -54c0 -10 -2.33301 -20.667 -7 -32c-12 -29.333 -30 -44 -54 -44c-9.33301 0 -20 2.33301 -32 7l-860 346c-22 8.66699 -35.333 25.334 -40 50.001v24c3.33301 23.333 16.666 39.666 39.999 48.999l860 346
c12 4.66699 22.667 7 32 7c24 0 42 -14.667 54 -44c4.66699 -11.333 7 -22 7 -32c0 -24 -14.667 -42 -44 -54l-707 -284z" />
    <glyph glyph-name="equal" unicode="=" horiz-adv-x="1251" 
d="M1087 783h-923c-47.333 0 -71 23.333 -71 70c0 46 23.667 69 71 69h923c47.333 0 71 -23 71 -69c0 -46.667 -23.667 -70 -71 -70zM1087 466h-923c-47.333 0 -71 23.333 -71 70c0 46 23.667 69 71 69h923c47.333 0 71 -23 71 -69c0 -46.667 -23.667 -70 -71 -70z" />
    <glyph glyph-name="greater" unicode="&#x3e;" horiz-adv-x="1117" 
d="M815 707l-707 284c-29.333 12 -44 30 -44 54c0 9.33301 2.33301 20 7 32c12 29.333 30 44 54 44c9.33301 0 20 -2.33301 32 -7l859 -346c24 -9.33301 37.667 -25.666 41 -48.999v-24c-5.33301 -24.667 -19 -41.334 -41 -50.001l-859 -346c-12 -4.66699 -22.667 -7 -32 -7
c-24 0 -42 14.667 -54 44c-4.66699 12 -7 22.667 -7 32c0 24 14.667 42 44 54z" />
    <glyph glyph-name="question" unicode="?" horiz-adv-x="746" 
d="M581 1446c70 -72.667 105 -169.667 105 -291c0 -118 -30.333 -215 -91 -291c-56.667 -71.333 -148.334 -133 -275.001 -185c-30 -12.667 -49.333 -29 -58 -49c-8 -20.667 -12 -55 -12 -103v-49c0 -23.333 -2.66699 -40 -8 -50c-7.33301 -14.667 -20.333 -22 -39 -22
c-28 0 -42 32.667 -42 98v93c0 74 3.66699 119.333 11 136c6.66699 16 29.334 34 68.001 54c65.333 31.333 113 57.666 143 78.999c49.333 34.667 86 74.334 110 119.001c29.333 53.333 44 118.333 44 195c0 90 -23.333 161.333 -70 214c-46 52.667 -109 79 -189 79
c-50.667 0 -92 -10.333 -124 -31c-31.333 -20.667 -47 -48 -47 -82l6 -80c0 -26 -8.66699 -47 -26 -63c-17.333 -16.667 -40 -25 -68 -25c-26.667 0 -49.334 8.33301 -68.001 25c-18 16.667 -27 37.667 -27 63c0 75.333 37 140 111 194c74.667 54 163.334 81 266.001 81
c116.667 0 210 -36.333 280 -109zM218 210c84 0 126 -35 126 -105s-42 -105 -126 -105s-126 35 -126 105s42 105 126 105z" />
    <glyph glyph-name="at" unicode="@" horiz-adv-x="1782" 
d="M1093 776c1.33301 12.667 1.99902 25.002 1.99902 37.002c0 47.333 -8.66699 85.666 -26 114.999c-21.333 37.333 -54.666 57.666 -99.999 60.999c-4 0.666992 -8.33301 1 -13 1c-56 0 -111.667 -32.333 -167 -97c-50 -58.667 -93.667 -133.334 -131 -224.001
c-32 -79.333 -50.333 -146.333 -55 -201c-0.666992 -8.66699 -1 -16.667 -1 -24c0 -41.333 10 -76.666 30 -105.999c24 -34.667 57.333 -53.667 100 -57c4.66699 -0.666992 9 -1 13 -1c72 0 144.333 51.333 217 154c77.333 109.333 121 223.333 131 342zM1131 440.002
c-12 -30.667 -19.0029 -59.334 -21.0029 -86.001c-0.666992 -6 -1 -12 -1 -18c0 -23.333 4.33301 -43 13 -59c10.667 -20 30 -31 58 -33c4.66699 -0.666992 9.33398 -1 14.001 -1c40.667 0 87.334 15.667 140.001 47c68 40 124.667 95.667 170 167c56 86 88.667 186 98 300
c2 20 3 40 3 60c0 143.333 -47.667 266.333 -143 369c-107.333 116.667 -252.666 182.667 -435.999 198c-25.333 2 -50.333 3 -75 3c-195.333 0 -364.666 -66.333 -507.999 -199c-155.333 -144 -242.666 -327.667 -261.999 -551c-2 -23.333 -3 -46.666 -3 -69.999
c0 -162 50 -301.333 150 -418c120 -140.667 292.333 -220.334 517 -239.001c40.667 -3.33301 78.334 -5 113.001 -5c72 0 131.333 7.33301 178 22c190 59.333 335.333 160 436 302c10 13.333 21 20 33 20c6 0 12.333 -1.66699 19 -5c8 -7.33301 12 -15.333 12 -24
c0 -6 -1.66699 -12 -5 -18c-62 -105.333 -173.667 -194.333 -335 -267c-66.667 -29.333 -131.334 -49.666 -194.001 -60.999c-53.333 -9.33301 -109.333 -14 -168 -14c-32.667 0 -66 1.33301 -100 4c-136.667 11.333 -261.667 46 -375 104
c-125.333 64.667 -221 152 -287 262c-62.667 104 -94 222.667 -94 356c0 24.667 1 50 3 76c20 234.667 120.667 426 302 574c160 130 343.667 195 551 195c28.667 0 58 -1.33301 88 -4c198.667 -16 356.334 -86 473.001 -210c102.667 -110 154 -242 154 -396
c0 -20 -1 -40.667 -3 -62c-12.667 -155.333 -68 -289 -166 -401c-90.667 -103.333 -188 -155 -292 -155c-8.66699 0 -17.334 0.333008 -26.001 1c-55.333 4.66699 -96 23 -122 55s-41 82.333 -45 151c-50.667 -64.667 -98.334 -110 -143.001 -136
c-37.333 -22 -78 -33 -122 -33c-8 0 -16 0.333008 -24 1c-72.667 6 -129.667 39.333 -171 100c-34.667 52 -52 114.333 -52 187c0 13.333 0.666992 27 2 41c10 116 65.667 224 167 324c94 92 189 138 285 138c8 0 16.333 -0.333008 25 -1c50 -4 89.667 -22.333 119 -55
c30 -32.667 50.667 -80.667 62 -144l40 109c12.667 31.333 32.667 47 60 47h6c38 -3.33301 57 -23.333 57 -60v-9c-0.666992 -6 -2.33398 -12.333 -5.00098 -19z" />
    <glyph glyph-name="A" unicode="A" 
d="M837 613c-83.333 223.333 -169.333 428.667 -258 616c-52.667 -100.667 -108 -223 -166 -367c-33.333 -83.333 -65 -166.333 -95 -249h519zM1199 131.001c4.66699 -12 7 -24 7 -36c0 -63.333 -31.667 -95 -95 -95c-44.667 0 -74.334 21.333 -89.001 64
c-34.667 119.333 -83 265 -145 437h-598c-64.667 -189.333 -107.334 -336.333 -128.001 -441c-8 -40 -32.333 -60 -73 -60c-50.667 0 -76 25.333 -76 76l3 21l60 201c30.667 88.667 68.334 190.667 113.001 306c54.667 146 108 277.667 160 395l80 181
c38.667 84.667 71.334 149.334 98.001 194.001c36 60.667 63.667 91 83 91c34.667 0 73.667 -44 117 -132c186.667 -380.667 347.667 -781.334 483 -1202z" />
    <glyph glyph-name="B" unicode="B" horiz-adv-x="1168" 
d="M813 179c74 48 111.001 116 111.001 204c0 100.667 -42.667 183 -128 247c-68.667 52.667 -135.334 79 -200.001 79c-17.333 0 -74.333 -10.333 -171 -31l-194 -43v-359c0 -80.667 17.333 -130 52 -148c26 -14 97.333 -21 214 -21c136.667 0 242 24 316 72zM231.001 745
l277 57c105.333 25.333 182.333 58 231 98c64 50.667 96 120.667 96 210c0 76.667 -27.667 132.667 -83 168c-55.333 34.667 -144 52 -266 52c-114 0 -183 -7 -207 -21c-32 -18.667 -48 -70 -48 -154v-410zM1002 651c74.667 -72 112.001 -158.668 112.001 -260.001
c0 -67.333 -15 -127.333 -45 -180c-36.667 -64 -93.334 -113.667 -170.001 -149c-88 -41.333 -200.667 -62 -338 -62h-416c-56.667 0 -85 29 -85 87v1261c0 58 28.333 87 85 87h441c126 0 228.667 -23.667 308 -71c85.333 -50.667 128 -123 128 -217
c0 -83.333 -25 -154.666 -75 -213.999s-128.333 -110.333 -235 -153c119.333 -14 216 -57 290 -129z" />
    <glyph glyph-name="C" unicode="C" horiz-adv-x="1269" 
d="M1218 347c10.667 -12 15.999 -24.001 15.999 -36.001c0 -41.333 -24 -86.666 -72 -135.999c-51.333 -52.667 -117.333 -96.334 -198 -131.001c-92 -39.333 -189 -59 -291 -59c-210 0 -376.667 69.333 -500 208c-116 130.667 -174 300 -174 508
c0 217.333 67 396.333 201 537c134.667 141.333 306.334 212 515.001 212c81.333 0 169.333 -13.667 264 -41c80 -23.333 132.333 -45.666 157 -66.999c25.333 -18.667 38 -43.667 38 -75c0 -62 -31 -93 -93 -93c-25.333 0 -47 9 -65 27c-46 43.333 -84.667 74 -116 92
c-66.667 37.333 -139.334 56 -218.001 56c-138.667 0 -254.334 -59.667 -347.001 -179c-92 -120 -138 -270.333 -138 -451c0 -184 46.333 -332 139 -444c93.333 -112.667 216 -169 368 -169c71.333 0 140.333 13.333 207 40c66.667 26 120 61.667 160 107
c20.667 32 37.334 55.333 50.001 70c22 28 43.667 42 65 42c10.667 0 21.334 -6 32.001 -18z" />
    <glyph glyph-name="D" unicode="D" horiz-adv-x="1353" 
d="M849 237c121.333 108.667 181.999 268.333 181.999 479c0 114.667 -15.667 213 -47 295c-39.333 100 -101.666 177.333 -186.999 232c-99.333 62 -230 93 -392 93c-72 0 -117.667 -12.667 -137 -38c-22 -28.667 -34 -93 -36 -193v-836c2 -68 15.667 -113.333 41 -136
c27.333 -24 83.333 -36 168 -36c168 0 304 46.667 408 140zM1027 1240c136 -130 203.999 -309.668 203.999 -539.001c0 -222 -73.667 -395.333 -221 -520c-141.333 -120.667 -332.333 -181 -573 -181h-291c-57.333 0 -86 29 -86 87v1261c0 54.667 27 83.334 81 86.001l323 1
c238.667 0 426.334 -65 563.001 -195z" />
    <glyph glyph-name="E" unicode="E" horiz-adv-x="1103" 
d="M981 186c63.333 0 95.001 -31 95.001 -93s-31.667 -93 -95 -93h-831c-59.333 0 -89 29 -89 87l-1 1261c0 58 29.667 87 89 87h762c65.333 0 98 -32 98 -96s-32.667 -96 -98 -96c-13.333 0 -26.333 2.66699 -39 8c-56 28.667 -103 48 -141 58
c-50.667 13.333 -134.334 20 -251.001 20c-78 0 -139.667 -3 -185 -9c-5.33301 -2.66699 -10 -5.33398 -14 -8.00098c-24.667 -17.333 -38.667 -52.666 -42 -105.999v-366h589c40 0 60 -19.667 60 -59s-20 -59 -60 -59h-589l1 -460c2 -58.667 11.333 -97 28 -115
c18.667 -22 62 -33 130 -33h217c146 0 254.333 21 325 63c13.333 6 27 9 41 9z" />
    <glyph glyph-name="F" unicode="F" horiz-adv-x="969" 
d="M875 1435c62.667 0 93.999 -31.999 93.999 -95.999c0 -63.333 -31.333 -95 -94 -95c-12.667 0 -25 2.66699 -37 8c-53.333 28 -98.333 47 -135 57c-48.667 14 -128.667 21 -240 21c-74.667 0 -133.667 -3.33301 -177 -10c-5.33301 -2 -9.66602 -4.33301 -12.999 -7
c-24.667 -18.667 -38.334 -57.334 -41.001 -116.001v-397h539c38.667 0 58 -19.667 58 -59s-19.333 -59 -58 -59h-539v-607h-1c-7.33301 -50 -35.666 -75 -84.999 -75c-56.667 0 -85 29 -85 87v1261c0 58 28.333 87 85 87h729z" />
    <glyph glyph-name="G" unicode="G" horiz-adv-x="1361" 
d="M1264 258c2.66699 -14 3.99902 -22.6689 3.99902 -26.002c0 -10.667 -1.66699 -20.334 -5 -29.001s-10 -20 -20 -34c-15.333 -22 -47.333 -46.667 -96 -74c-56 -30.667 -120.333 -55.667 -193 -75c-86.667 -23.333 -174.334 -35 -263.001 -35
c-213.333 0 -386 63.333 -518 190s-198 292.334 -198 497.001c0 227.333 71 414 213 560c142.667 145.333 324.334 218 545.001 218c70 0 137.333 -7.33301 202 -22c64 -14 117.667 -34.333 161 -61c29.333 -16.667 53.666 -37 72.999 -61c15.333 -16 23 -35 23 -57
c0 -54.667 -27.333 -82 -82 -82c-22.667 0 -42 8 -58 24c-31.333 38.667 -72.666 72.334 -123.999 101.001c-66 36.667 -138 55 -216 55c-116.667 0 -218.334 -36 -305.001 -108c-76 -64 -135.333 -151 -178 -261c-38 -100 -57 -205.667 -57 -317
c0 -164 55 -301.333 165 -412c110.667 -111.333 245.334 -167 404.001 -167c120.667 0 209.334 25.333 266.001 76c56.667 51.333 85 133.333 85 246c0 108.667 -9 173 -27 193c-6 6.66699 -15.667 12.334 -29 17.001h-204c-38 0 -57 19.333 -57 58c0 38 19 57 57 57h338
c56 0 84 -28 84 -84l4 -345c1.33301 -14.667 3.33301 -28.667 6 -42z" />
    <glyph glyph-name="H" unicode="H" horiz-adv-x="1375" 
d="M1145 1435c58 0 87 -29 87 -87l-1 -1273c-7.33301 -50 -36 -75 -86 -75c-58 0 -87 29 -87 87v649h-823v-661h-1c-7.33301 -50 -36 -75 -86 -75c-58 0 -87 29 -87 87v1261c0 58 29 87 87 87s87 -29 87 -87v-495h823v495c0 58 29 87 87 87z" />
    <glyph glyph-name="I" unicode="I" horiz-adv-x="352" 
d="M145 1450c56.667 0 85 -29.667 85 -89v-1299h-1c-6.66699 -51.333 -34.667 -77 -84 -77c-56.667 0 -85 29.667 -85 89v1287c0 59.333 28.333 89 85 89z" />
    <glyph glyph-name="J" unicode="J" horiz-adv-x="884" 
d="M748 390c0 -144 -36.667 -249.669 -110 -317.002c-64 -58.667 -156.667 -88 -278 -88c-110.667 0 -198.334 27.333 -263.001 82c-64 54.667 -96 129 -96 223c0 75.333 19.667 136.333 59 183c38.667 47.333 89.334 71 152.001 71c24 0 44.333 -6 61 -18
c17.333 -12 26 -27 26 -45c0 -29.333 -5.66699 -49.666 -17 -60.999c-11.333 -12 -36 -24.667 -74 -38l-49 -19c-25.333 -17.333 -38 -44.666 -38 -81.999c0 -53.333 21.333 -98.333 64 -135c41.333 -36.667 92 -55 152 -55c66.667 0 118 15 154 45c56 48 84 132.667 84 254
v971c0 59.333 28.667 89 86 89c58 0 87 -29.667 87 -89v-971z" />
    <glyph glyph-name="K" unicode="K" horiz-adv-x="1110" 
d="M1057 90c0 -60 -29.666 -89.999 -88.999 -89.999c-42 0 -70 20.333 -84 61l-3 12c-62 217.333 -201 439 -417 665l-129 -123l-102 -93l-1 -447c-7.33301 -50 -35.666 -75 -84.999 -75c-57.333 0 -86 29 -86 87v1261c0 58 28.667 87 86 87s86 -29 86 -87v-675
c188 167.333 395.667 409.666 623 726.999l9 12c12.667 15.333 29.667 23 51 23c46.667 0 70 -24 70 -72c0 -20.667 -7.33301 -38 -22 -52c-154.667 -196 -283.334 -346.667 -386.001 -452c84 -88 166.333 -188.667 247 -302c107.333 -152 183.666 -299.667 228.999 -443
c2 -8.66699 3 -16.667 3 -24z" />
    <glyph glyph-name="L" unicode="L" horiz-adv-x="1060" 
d="M932 192c63.333 0 95.001 -32 95.001 -96s-31.667 -96 -95 -96h-785c-57.333 0 -86 29 -86 87v1271c0 58 28.667 87 86 87s86 -29 86 -87l1 -1098c0 -68 11 -109.333 33 -124c29.333 -20 112.666 -30 249.999 -30c112 0 192.667 6.66699 242 20
c36.667 10 82 29.333 136 58c12 5.33301 24.333 8 37 8z" />
    <glyph glyph-name="M" unicode="M" horiz-adv-x="1501" 
d="M1272 1434c58 0 86.999 -29 86.999 -87l-1 -1272c-7.33301 -50 -36 -75 -86 -75c-58.667 0 -88 29 -88 87v987l-394 -851l-2 -2c-16 -30 -38.667 -45 -68 -45c-8 0 -16.667 1.33301 -26 4c-24 6 -41.667 20 -53 42l-447 861l-1 -1030
c-5.33301 -35.333 -25.666 -53 -60.999 -53c-41.333 -0 -62 20.333 -62 61l3 1304c12 46.667 38 70 78 70c10 0 21 -1.33301 33 -4c26 -6.66699 45.333 -22 58 -46l498 -990l451 985c15.333 36 42.333 54 81 54z" />
    <glyph glyph-name="N" unicode="N" horiz-adv-x="1305" 
d="M1175 76c-0.666992 -5.33301 -2.33301 -11 -5 -17c-14.667 -38.667 -42.667 -58 -84 -58c-30.667 0 -55 12.667 -73 38l-828 1129l-1 -1013v-103c-5.33301 -34.667 -25.333 -52 -60 -52c-40.667 -0 -61 20.333 -61 61v1284c0 60 30 90 90 90c22.667 0 42.667 -8 60 -24
l7 -6c6 -6.66699 9.66699 -11 11 -13l823 -1124v1106c0 40.667 20.333 61 61 61s61 -20.333 61 -61z" />
    <glyph glyph-name="O" unicode="O" horiz-adv-x="1433" 
d="M1030 282c74 110.667 111.001 255.667 111.001 435c0 192 -42.667 344.333 -128 457c-86 113.333 -201.667 170 -347 170c-114 0 -209 -31.667 -285 -95c-68 -56.667 -118.667 -134.667 -152 -234c-30 -88.667 -45 -188 -45 -298c0 -188 43.333 -339 130 -453
c86 -114 200.333 -171 343 -171c163.333 0 287.666 63 372.999 189zM1147 1246c126.667 -136 190.001 -312.331 190.001 -528.998c0 -214.667 -63 -390.334 -189 -527.001s-288 -205 -486 -205c-196.667 0 -358.334 68.667 -485.001 206s-190 312.666 -190 525.999
c0 214 62.667 389.667 188 527s286 206 482 206c200 0 363.333 -68 490 -204z" />
    <glyph glyph-name="P" unicode="P" horiz-adv-x="1077" 
d="M728 790c89.333 66 134.001 153.667 134.001 263c0 86.667 -36 155.667 -108 207c-71.333 50.667 -169 76 -293 76c-82 0 -136.333 -8 -163 -24c-40.667 -24.667 -61.334 -78.667 -62.001 -162v-479c220 0 384 39.667 492 119zM912.001 1342
c96.667 -62.667 144.999 -162 144.999 -298c0 -145.333 -60.333 -259.333 -181 -342c-140 -96 -353.333 -144 -640 -144v-483h-1c-7.33301 -50 -36.333 -75 -87 -75c-58 0 -87 29 -87 87v1261c0 58 29 87 87 87h318c200.667 0 349.334 -31 446.001 -93z" />
    <glyph glyph-name="Q" unicode="Q" horiz-adv-x="1430" 
d="M960 199c57.333 49.333 100.999 112.997 130.999 190.997c36 90 54 198.333 54 325c0 172.667 -36.667 315.334 -110 428.001c-86 132.667 -210.667 199 -374 199c-144.667 0 -259 -56.667 -343 -170c-83.333 -112 -125 -265.667 -125 -461
c0 -191.333 43.667 -342.666 131 -453.999s209.333 -167 366 -167c-18 50 -30.667 91.333 -38 124c-6.66699 32 -10 62 -10 90c0 22 3.66699 39.333 11 52c7.33301 12 18 18 32 18c7.33301 0 13 -1 17 -3c16.667 -8.66699 28 -36.667 34 -84
c10 -51.333 16 -80.666 18 -87.999c8.66699 -32.667 21.334 -63.667 38.001 -93c64.667 21.333 120.667 52.333 168 93zM689.999 -18.0029c-110 0 -211.999 19.665 -305.999 58.998c-116 48.667 -207 122.334 -273 221.001c-78.667 118.667 -118 267.667 -118 447
c0 214.667 63.333 391.667 190 531c128 140 290 210 486 210c110.667 0 214.667 -26.333 312 -79c108 -58.667 192.667 -141 254 -247c70 -120 105 -261.667 105 -425c0 -325.333 -156.333 -554.333 -469 -687c35.333 -38 65.333 -62.667 90 -74
c43.333 -18.667 110.333 -28 201 -28c69.333 0 114 -4.66699 134 -14c20.667 -9.33301 31 -29.333 31 -60c0 -60 -47.333 -90 -142 -90c-74.667 0 -144.334 16 -209.001 48c-80 38.667 -155 102.334 -225 191.001z" />
    <glyph glyph-name="R" unicode="R" horiz-adv-x="1133" 
d="M233 732c225.333 27.333 386 68.332 482 122.999c96.667 55.333 145 131 145 227c0 78 -33 138 -99 180c-66 42.667 -160.333 64 -283 64c-107.333 0 -176.333 -11 -207 -33c-25.333 -17.333 -38 -56.666 -38 -117.999v-443zM1049 101.999
c0 -67.333 -33.001 -101.003 -99.001 -101.003c-49.333 0 -81 24.333 -95 73c-84.667 278.667 -183.667 477.667 -297 597c-56.667 -14.667 -104 -25 -142 -31c-55.333 -9.33301 -116.333 -16.666 -183 -21.999l-1 -543h-1c-7.33301 -50 -35.666 -75 -84.999 -75
c-57.333 0 -86 29 -86 87v1261c0 58 28.667 87 86 87h366c176.667 0 308.334 -22.667 395.001 -68c99.333 -51.333 149 -135.666 149 -252.999c0 -86.667 -25.667 -161.667 -77 -225c-52 -63.333 -133.333 -119.666 -244 -168.999c26.667 -34 49 -65 67 -93
c31.333 -47.333 60 -96 86 -146c14 -26.667 43.667 -91 89 -193c43.333 -96.667 64.666 -145.334 63.999 -146.001c5.33301 -13.333 8 -26.666 8 -39.999z" />
    <glyph glyph-name="S" unicode="S" horiz-adv-x="1114" 
d="M911 717c82.667 -64.667 124 -156.664 124 -275.997c0 -104.667 -32.667 -194.667 -98 -270c-54 -62 -125.667 -110 -215 -144c-73.333 -28 -143 -42 -209 -42c-114 0 -213.333 22.333 -298 67c-68 35.333 -122.333 83 -163 143c-34 49.333 -51 93.666 -51 132.999
c0 21.333 6 39.333 18 54c12 15.333 26.333 23 43 23c15.333 0 29.333 -9.66699 42 -29l64 -108c44 -60 94.333 -104 151 -132c56.667 -28.667 122 -43 196 -43c108 0 197 27.667 267 83s105 125.666 105 210.999c0 78.667 -28.667 141 -86 187c-42 33.333 -101 58 -177 74
l-129 21c-40 6.66699 -69.333 12.334 -88 17.001s-43.667 11.667 -75 21c-86.667 26.667 -153 67.667 -199 123c-48.667 58 -73 130.667 -73 218c0 111.333 39.333 204.666 118 279.999c84.667 81.333 198 122 340 122c44.667 0 89.667 -4 135 -12s86.333 -18.667 123 -32
c42 -15.333 80 -38.666 114 -69.999c19.333 -15.333 29 -35.333 29 -60c0 -51.333 -25.667 -77 -77 -77c-20 0 -37.667 7 -53 21c-73.333 54 -111 81.667 -113 83c-60 31.333 -122.667 47 -188 47c-80.667 0 -146 -22.333 -196 -67s-75 -103.334 -75 -176.001
s22 -127.334 66 -164.001c40 -34.667 111.667 -63.667 215 -87l49 -12c30 -6 48 -10 54 -12c138.667 -24.667 242 -63 310 -115z" />
    <glyph glyph-name="T" unicode="T" horiz-adv-x="1183" 
d="M1031 1435c62.667 0 93.999 -32 93.999 -96s-31.333 -96 -94 -96c-13.333 0 -25.666 2.66699 -36.999 8c-54 28.667 -99 48 -135 58c-34.667 9.33301 -85.334 15.666 -152.001 18.999c-28 -3.33301 -45.333 -9.66602 -52 -18.999c-10 -13.333 -15 -50 -15 -110l-2 -1124
c-6.66699 -50 -34.667 -75 -84 -75c-57.333 0 -86 29 -86 87v1157c-1.33301 21.333 -3 36 -5 44c-6 21.333 -28 34.333 -66 39c-64.667 -2.66699 -114 -8.66699 -148 -18c-36 -10 -81 -29.333 -135 -58c-11.333 -5.33301 -23.666 -8 -36.999 -8c-62.667 0 -94 32 -94 96
s31.333 96 94 96h954z" />
    <glyph glyph-name="U" unicode="U" horiz-adv-x="1271" 
d="M1082 1435c40 0 60.0029 -19.998 60.0029 -59.998v-824c0 -164.667 -43 -298.334 -129 -401.001c-92 -110 -235 -165 -429 -165c-200.667 0 -344.334 59 -431.001 177c-70 96 -107.333 238.667 -112 428l-1 758c0 57.333 28 86 84 86c56.667 0 85 -28.667 85 -86v-783
c6.66699 -108.667 25 -197.334 55 -266.001c34 -76.667 83 -131 147 -163c50 -25.333 112.333 -38 187 -38c79.333 0 145 11.333 197 34c65.333 28.667 115.666 75.667 150.999 141c49.333 94 74.666 197 75.999 309v793c0 40 20 60 60 60z" />
    <glyph glyph-name="V" unicode="V" horiz-adv-x="1245" 
d="M1201 1338l-60.002 -201.001c-30.667 -89.333 -68 -191.333 -112 -306c-55.333 -145.333 -108.666 -277 -159.999 -395l-80 -181c-38.667 -84.667 -71 -149.334 -97 -194.001c-36 -60.667 -63.667 -91 -83 -91c-34.667 0 -73.667 44 -117 132
c-186 380.667 -346.667 781.334 -482 1202c-4.66699 11.333 -7 23.333 -7 36c0 63.333 31.333 95 94 95c44.667 0 74.667 -21.333 90 -64c112.667 -391.333 259.667 -779.666 441 -1165c52 98.667 107.333 221 166 367c136 340.667 223 607.667 261 801v1
c8.66699 40 33.334 60 74.001 60c50 0 75 -25.333 75 -76z" />
    <glyph glyph-name="W" unicode="W" horiz-adv-x="1685" 
d="M1644 1358c-7.33301 -49.333 -39.668 -206.669 -97.001 -472.002c-54 -245.333 -105.333 -445 -154 -599c-67.333 -211.333 -125 -317 -173 -317c-32 0 -60 21.667 -84 65c-4.66699 8 -22.667 46.333 -54 115c-76.667 157.333 -166.667 410 -270 758l-19 -62
c-13.333 -41.333 -39 -115.666 -77 -222.999l-197 -541c-20 -40 -38.333 -68.667 -55 -86s-33 -26 -49 -26c-19.333 0 -35 8.66699 -47 26c-25.333 36 -45.666 74.667 -60.999 116c-132 362 -232.667 765.333 -302 1210l-2 19c0 62.667 31 94 93 94
c56.667 0 87.667 -28.667 93 -86c22.667 -286.667 110.334 -657 263.001 -1111c194 472.667 291 839 291 1099v5c0 62 30.667 93 92 93s92 -31 92 -93v-6c0 -275.333 103 -640 309 -1094c53.333 127.333 101.666 269 144.999 425c34 120 63 241 87 363
c29.333 148.667 44 261.334 44 338.001c0 44.667 22 67 66 67s66 -22.333 66 -67v-10z" />
    <glyph glyph-name="X" unicode="X" horiz-adv-x="1103" 
d="M1045 98c0 -65.333 -32.334 -98 -97.001 -98c-55.333 -0 -87.333 27.333 -96 82h-1c-38 140.667 -107.333 267 -208 379l-150 166l-7 7l-7 -8c-142 -177.333 -251.333 -370.666 -328 -579.999c-10.667 -30 -31.667 -45 -63 -45c-44.667 0 -67 22.333 -67 67
c1.33301 12.667 5 24.667 11 36c125.333 248.667 252.666 451 381.999 607l-49 59c-37.333 45.333 -72.333 91 -105 137c-45.333 64 -93 137.667 -143 221c-64 106 -96 169.667 -96 191l-1 18c0 65.333 32.333 98 97 98c60 0 92.333 -30.333 97 -91
c6 -62.667 34.667 -133.334 86 -212.001c52.667 -80 129 -176 229 -288c146 176 253.667 355 323 537c10 36 31.667 54 65 54c44.667 0 67 -22.333 67 -67c-2 -16.667 -7.66699 -31.667 -17 -45c-115.333 -219.333 -238.666 -406 -369.999 -560
c62 -67.333 121.333 -137 178 -209c46.667 -60 92.334 -123 137.001 -189c63.333 -94 105 -170.333 125 -229l4 -12c2.66699 -8 4 -16.667 4 -26z" />
    <glyph glyph-name="Y" unicode="Y" horiz-adv-x="1112" 
d="M1099 1351c-42 -112.667 -122.669 -259.001 -242.002 -439.001l-41 -62l-181 -260l-1 -515c-7.33301 -50 -35.666 -75 -84.999 -75c-57.333 0 -86 29 -86 87v445c0 18 -17 54.333 -51 109c-18.667 30 -59.334 90.667 -122.001 182c-66 96 -115.667 171.667 -149 227
c-62 101.333 -97 159.833 -105 175.5l-34 67.5c-7.33301 16.667 -11 31.334 -11 44.001c0 65.333 32 98 96 98c46.667 0 77.334 -22.333 92.001 -67l3 -12c24 -84.667 64.667 -175 122 -271c3.33301 -5.33301 19.333 -29 48 -71l109 -155c50 -70 90 -122.667 120 -158
c204.667 240 340.667 470.333 408 691c8.66699 28.667 27.334 43 56.001 43c39.333 0 59 -20 59 -60c0 -6 -1.66699 -14 -5 -24z" />
    <glyph glyph-name="Z" unicode="Z" horiz-adv-x="1066" 
d="M929 191c64 0 95.999 -31.668 95.999 -95.001c0 -64 -32 -96 -96 -96l-800 1c-86 2.66699 -129 29 -129 79c0 34 17.333 81.667 52 143c14 25.333 39 65 75 119c43.333 64.667 94.666 136.334 153.999 215.001l180 235l99 131l72 97c47.333 63.333 86 121.333 116 174
c29.333 52.667 44 88.667 44 108c0 7.33301 -3 13.333 -9 18c-44 6.66699 -104.667 10 -182 10c-114 0 -195.667 -7 -245 -21c-37.333 -10 -83.333 -29.333 -138 -58c-12 -4.66699 -24.667 -7 -38 -7c-64 0 -96 31.667 -96 95c0 64 32 96 96 96h694
c44.667 0 75.667 -3.33301 93 -10c26.667 -9.33301 40 -28.666 40 -57.999c0 -20.667 -6 -45.334 -18 -74.001c-12 -29.333 -32.667 -67.333 -62 -114c-8 -16 -39.667 -62.333 -95 -139l-202 -275l-250 -346l-92 -139c-12 -18.667 -20 -32 -24 -40
c-11.333 -21.333 -19.666 -40.333 -24.999 -57l-5 -17c5.33301 -14.667 12.333 -25 21 -31c30.667 -20 115 -30 253 -30c114 0 196 7 246 21c36.667 10 82.334 29.333 137.001 58c12 4.66699 24.667 7 38 7z" />
    <glyph glyph-name="bracketleft" unicode="[" horiz-adv-x="455" 
d="M276 -139c86 -24.667 129 -37.3301 129 -37.9971c0 -36.667 -8.33301 -58.334 -25 -65.001c-9.33301 -4 -47 -6 -113 -6h-49c-38.667 0 -65.667 2 -81 6c-14.667 3.33301 -24.667 11.666 -30 24.999c-4.66699 12.667 -7 35 -7 67v1695c0 32 2.33301 54.333 7 67
c5.33301 13.333 15.333 22 30 26c15.333 3.33301 42.333 5 81 5h49c66 0 103.667 -2 113 -6c16.667 -6 25 -27.667 25 -65l-129 -38c-13.333 -3.33301 -23 -14.333 -29 -33c-4 -12.667 -6 -42 -6 -88v-1430c0 -46.667 2 -76.334 6 -89.001c6 -18.667 15.667 -29.667 29 -33z
" />
    <glyph glyph-name="backslash" unicode="\" horiz-adv-x="905" 
d="M867 -205c-8 -3.33301 -15.333 -5 -22 -5c-15.333 0 -27 8.66699 -35 26l-793 1706c-3.33301 8 -5 15.333 -5 22c0 14.667 8.66699 26 26 34c8 3.33301 15.333 5 22 5c15.333 0 27 -8.66699 35 -26l793 -1706c3.33301 -8 5 -15.333 5 -22c0 -14.667 -8.66699 -26 -26 -34
z" />
    <glyph glyph-name="bracketright" unicode="]" horiz-adv-x="455" 
d="M208 -106c4 12.667 6 42.3301 6 88.9971v1430c0 46 -2 75.333 -6 88c-6 18.667 -15.667 29.667 -29 33l-129 38c0 37.333 8.33301 59 25 65c9.33301 4 47 6 113 6h49c38.667 0 65.667 -1.66699 81 -5c14.667 -4 24.667 -12.667 30 -26c4.66699 -12.667 7 -35 7 -67v-1695
c0 -32 -2.33301 -54.333 -7 -67c-5.33301 -13.333 -15.333 -21.666 -30 -24.999c-15.333 -4 -42.333 -6 -81 -6h-49c-66 0 -103.667 2 -113 6c-16.667 6.66699 -25 28.334 -25 65.001c0 0.666992 43 13.334 129 38.001c13.333 3.33301 23 14.333 29 33z" />
    <glyph glyph-name="asciicircum" unicode="^" horiz-adv-x="851" 
d="M425 1198l-227.999 -565.999c-12 -28.667 -30 -43 -54 -43c-9.33301 0 -20 2.33301 -32 7c-29.333 11.333 -44 29.333 -44 54c0 9.33301 2.33301 20 7 32l290 717c9.33301 23.333 25.666 36.666 48.999 39.999h24c24 -4.66699 40.667 -18 50 -40l290 -717
c4.66699 -11.333 7 -22 7 -32c0 -24 -14.667 -42 -44 -54c-12 -4.66699 -22.667 -7 -32 -7c-24 0 -42 14.667 -54 44z" />
    <glyph glyph-name="underscore" unicode="_" horiz-adv-x="1024" 
d="M0 -100h1024v-125h-1024v125z" />
    <glyph glyph-name="grave" unicode="`" horiz-adv-x="863" 
d="M642 1110c8.66699 -13.333 13 -24 13 -32c0 -4.66699 -1.33301 -8.66699 -4 -12c-6.66699 -7.33301 -15 -11 -25 -11c-13.333 0 -29 7.33301 -47 22c-4 3.33301 -91 71.333 -261 204c-50.667 36 -76 68.333 -76 97c0 16 7.66699 31 23 45c10 8.66699 42 13 96 13
c40 0 133.667 -108.667 281 -326z" />
    <glyph glyph-name="a" unicode="a" horiz-adv-x="1043" 
d="M648 179c77.333 57.333 115.999 148.667 115.999 274l-4 143c-185.333 0 -322.333 -28.333 -411 -85c-76 -49.333 -114 -118 -114 -206c0 -54.667 19.333 -99.667 58 -135c38 -34.667 87.667 -52 149 -52c82.667 0 151.334 20.333 206.001 61zM813.999 905.001
c75.333 -80 112.998 -208.333 112.998 -385v-416c0 -51.333 -25.667 -77 -77 -77l-17 2c-45.333 6.66699 -68.333 33 -69 79v71c-51.333 -57.333 -102.333 -99.666 -153 -126.999c-66 -34.667 -141.333 -52 -226 -52c-96 0 -176.333 27.667 -241 83
c-64 56 -96 125.333 -96 208c0 128.667 50.667 225 152 289c112.667 72 292.334 108 539.001 108c-11.333 71.333 -42.666 127.666 -93.999 168.999c-50.667 42 -115 63 -193 63c-30 0 -55.333 -3.66699 -76 -11c-21.333 -6.66699 -53.666 -22 -96.999 -46
c-36 -19.333 -60 -31.333 -72 -36s-25.333 -7 -40 -7c-16.667 0 -29 2.33301 -37 7c-15.333 8.66699 -23 25 -23 49c0 46 30.333 82.333 91 109s142.667 40 246 40c171.333 0 294.666 -40 369.999 -120z" />
    <glyph glyph-name="b" unicode="b" horiz-adv-x="1128" 
d="M758 220c62 76 93 176.333 93 301c0 116 -28.333 210.333 -85 283s-131 109 -223 109c-108.667 0 -202.667 -52 -282 -156v-314c0 -100 22.333 -181.333 67 -244c44 -62 102 -93 174 -93c108 0 193.333 38 256 114zM916 902
c77.333 -88 116.001 -203.999 116.001 -347.999c0 -160.667 -49.333 -293.334 -148 -398.001c-98 -104 -224 -156 -378 -156c-274 0 -411 147.667 -411 443v910c0 54.667 27.667 82 83 82s83 -27.333 83 -82v-462c105.333 96 221.666 144 348.999 144
c126 0 228 -44.333 306 -133z" />
    <glyph glyph-name="c" unicode="c" horiz-adv-x="981" 
d="M811 89c-84.667 -66 -181.666 -99.001 -290.999 -99.001c-134 0 -245.333 46.333 -334 139s-133 209.667 -133 351c0 156.667 48 288.334 144 395.001c96.667 106.667 216.334 160 359.001 160c88.667 0 165.667 -19.333 231 -58c64.667 -38.667 97 -84.334 97 -137.001
c0 -23.333 -8.66699 -43.333 -26 -60s-38 -25 -62 -25c-32 0 -59.333 14 -82 42c-28.667 40.667 -47.667 65.667 -57 75c-30 32.667 -68.333 49 -115 49c-78 0 -141 -23.667 -189 -71c-40.667 -40.667 -70.334 -96.667 -89.001 -168c-14.667 -58 -22 -122.667 -22 -194
c0 -107.333 28.667 -195.666 86 -264.999c58 -68.667 132.667 -103 224 -103c39.333 0 81 8 125 24c43.333 16 75.666 35 96.999 57l45 46c26 24 45 36 57 36l24 -3c12.667 -6.66699 19 -20 19 -40c0 -44.667 -36 -95 -108 -151z" />
    <glyph glyph-name="d" unicode="d" horiz-adv-x="1093" 
d="M822 811c-74.667 77.333 -168.333 116.001 -281 116.001c-91.333 0 -166.666 -41.667 -225.999 -125c-59.333 -82.667 -89 -187.667 -89 -315c0 -104.667 29.667 -191.667 89 -261s134 -104 224 -104c71.333 0 134 13.667 188 41
c53.333 27.333 83.666 61.666 90.999 102.999zM987.001 111.001c-0.666992 -54 -28.002 -80.999 -82.002 -80.999c-53.333 0 -80.666 27 -81.999 81v17c-54 -42.667 -104.333 -74 -151 -94c-53.333 -22.667 -109.666 -34 -168.999 -34c-119.333 0 -222.333 41 -309 123
c-96 91.333 -144 212.666 -144 363.999c0 156 45.667 285.667 137 389c91.333 102.667 206.666 154 345.999 154h20c32 0 64 -4 96 -12c50.667 -13.333 108.334 -38 173.001 -74l1 409c0.666992 54.667 28 82 82 82s81.333 -27.333 82 -82v-1242z" />
    <glyph glyph-name="e" unicode="e" horiz-adv-x="1049" 
d="M624 562c110.667 49.333 166 120.001 166 212.001c0 50 -18 90.333 -54 121s-84.667 46 -146 46c-117.333 0 -210.333 -54 -279 -162c-55.333 -86.667 -83 -181.334 -83 -284.001c165.333 0 297.333 22.333 396 67zM957 274.001
c8.66699 0 14.335 -2.99902 17.002 -8.99902c2.66699 -6.66699 4 -15.334 4 -26.001v-11c0 -46 -40 -95 -120 -147c-92.667 -60.667 -199.334 -91 -320.001 -91c-144.667 0 -262 43.667 -352 131c-89.333 87.333 -134 202 -134 344c0 164.667 54 301 162 409
c108 107.333 244.333 161 409 161c103.333 0 187.333 -24.333 252 -73s97 -112.667 97 -192c0 -56.667 -10.333 -101.334 -31 -134.001c-32.667 -51.333 -96.667 -95.666 -192 -132.999c-119.333 -48 -288 -86.667 -506 -116c0 -82 35 -147.667 105 -197
c63.333 -44.667 139.666 -67 228.999 -67c50.667 0 110 14.667 178 44l188 104z" />
    <glyph glyph-name="f" unicode="f" horiz-adv-x="609" 
d="M421 1369c-4 2 -7.99902 3.00098 -11.999 3.00098c-27.333 0 -50 -41.333 -68 -124c-15.333 -72.667 -23 -147 -23 -223h146c22.667 0 41 -10.667 55 -32c2 -3.33301 3.66699 -7 5 -11l3 -20c0 -41.333 -21 -62 -63 -62h-145v-819c0 -54 -27.667 -81 -83 -81
s-83 27 -83 81v819h-90c-42 0 -63 20.667 -63 62l3 18c9.33301 30 29.333 45 60 45h94c0 108 27.333 208.333 82 301c49.333 83.333 122.666 125 219.999 125c42 0 77.333 -10.333 106 -31c29.333 -20.667 44 -50.667 44 -90c0 -23.333 -8 -42 -24 -56s-38 -21 -66 -21
c-20.667 0 -36.334 4.66699 -47.001 14c-10 9.33301 -18.667 27 -26 53c-3.33301 14 -6.66602 24 -9.99902 30c-5.33301 11.333 -10.333 17.666 -15 18.999z" />
    <glyph glyph-name="g" unicode="g" horiz-adv-x="1133" 
d="M546 -314c117.333 0 204.335 21.002 261.002 63.002c49.333 36.667 74 86 74 148c0 85.333 -34 147 -102 185c-56.667 31.333 -136.334 47 -239.001 47c-128 0 -218 -26.667 -270 -80c-35.333 -36.667 -53 -87.334 -53 -152.001c0 -72.667 32.333 -127.334 97 -164.001
c55.333 -31.333 132.666 -47 231.999 -47zM217.002 703.002c0 -81.333 28.333 -140.999 85 -178.999c54 -35.333 133.333 -53 238 -53c105.333 0 186.666 16.667 243.999 50c64.667 38 97 98.667 97 182c0 66 -27.333 117.333 -82 154c-57.333 38 -141.666 57 -252.999 57
c-114 0 -199.333 -20.667 -256 -62c-48.667 -36.667 -73 -86.334 -73 -149.001zM539.002 240.003c144 0 263.332 -30.667 357.999 -92c96.667 -63.333 145 -144.333 145 -243c0 -118 -42.333 -203 -127 -255c-82 -50 -205.333 -75 -370 -75c-154 0 -271.667 24 -353 72
c-90.667 53.333 -136 139.666 -136 258.999c0 110 53.667 195.333 161 256c9.33301 4.66699 14.666 9.33398 15.999 14.001v4c0 4.66699 -1.66699 9.66699 -5 15c-20.667 30.667 -31 65.667 -31 105s10.333 74.333 31 105c3.33301 5.33301 5 10.333 5 15v4
c-1.33301 4.66699 -6.66602 9.33398 -15.999 14.001c-107.333 60.667 -161 146 -161 256c0 119.333 45 205.666 135 258.999c81.333 48 199.333 72 354 72c148 0 262.667 -20.333 344 -61c102 -51.333 153 -141 153 -269c0 -95.333 -45.333 -174.333 -136 -237
c-95.333 -65.333 -217.666 -98 -366.999 -98c-120 0 -180.333 -20 -181 -60c0.666992 -40 61 -60 181 -60z" />
    <glyph glyph-name="h" unicode="h" horiz-adv-x="1024" 
d="M920 82c0 -54.667 -27 -82 -81 -82s-81 27.333 -81 82v502c-0.666992 108.667 -19 189 -55 241c-37.333 53.333 -94.333 80 -171 80s-138.667 -19.333 -186 -58c-56 -46 -84 -112 -84 -198v-567c0 -54.667 -27 -82 -81 -82s-81 27.333 -81 82v1271c0 54.667 27 82 81 82
c53.333 0 80.333 -27.333 81 -82v-317l1 1v-138c100 90 208.333 135 325 135c57.333 0 107 -10 149 -30c56 -26.667 98.667 -70.667 128 -132c36.667 -73.333 55 -172.333 55 -297v-493z" />
    <glyph glyph-name="i" unicode="i" horiz-adv-x="424" 
d="M297 84c0 -56 -27 -84 -81 -84s-81 28 -81 84v858c0.666992 56 27.667 84 81 84c54 0 81 -28 81 -84v-858zM217 1172c-78 0 -117 31.667 -117 95c0 64 39 96 117 96c77.333 0 116 -32 116 -96c0 -63.333 -38.667 -95 -116 -95z" />
    <glyph glyph-name="j" unicode="j" horiz-adv-x="460" 
d="M234 1026c54.667 0 81.998 -27.667 81.998 -83v-867c0 -335.333 -103 -503 -309 -503c-42 0 -75.333 9.66699 -100 29c-24 20 -36 46.667 -36 80c0 24.667 8.33301 44 25 58c16 14.667 37.667 22 65 22c18.667 0 33.334 -5.33301 44.001 -16
c11.333 -10 17 -24.333 17 -43c-3.33301 -14 -6.66602 -30.333 -9.99902 -49c0 -6.66699 2.66699 -10 8 -10c46.667 0 81 27.333 103 82c19.333 48.667 29 155.667 29 321v896c0 55.333 27.333 83 82 83zM231.998 1172c-78 0 -117 31.667 -117 95c0 64 39 96 117 96
c77.333 0 116 -32 116 -96c0 -63.333 -38.667 -95 -116 -95z" />
    <glyph glyph-name="k" unicode="k" horiz-adv-x="938" 
d="M901 82c0 -54.667 -26.998 -82 -80.998 -82c-42.667 0 -69 21 -79 63c-27.333 110 -73.333 205.333 -138 286c-42.667 52 -95 110 -157 174l-97 -69c-36.667 -26 -62.334 -43.667 -77.001 -53v-319c0 -54.667 -27 -82 -81 -82s-81 27.333 -81 82v1271
c0 54.667 27 82 81 82c53.333 0 80.333 -27.333 81 -82v-831c27.333 18.667 58.333 41.334 93 68.001c54 41.333 107.667 88.333 161 141c52 51.333 114 140.666 186 267.999c10.667 24 29 36 55 36c40.667 0 61 -20.667 61 -62l-5 -25
c-56.667 -116 -146 -223.333 -268 -322c61.333 -62 115.666 -123.667 162.999 -185c36 -46.667 68 -93 96 -139c58 -97.333 87 -169.333 87 -216v-4z" />
    <glyph glyph-name="l" unicode="l" horiz-adv-x="406" 
d="M276 69c0 -56 -27.667 -84 -83 -84s-83 28 -83 84v1297c0 56 27.667 84 83 84s83 -28 83 -84v-1297z" />
    <glyph glyph-name="m" unicode="m" horiz-adv-x="1632" 
d="M1531 81c0 -54 -27.666 -80.999 -82.999 -80.999c-54.667 0 -82 27 -82 81v598c0 66.667 -17.667 117.334 -53 152.001c-36.667 36.667 -88 55 -154 55c-77.333 0 -141.333 -20 -192 -60c-46.667 -37.333 -70 -88 -70 -152v-593c0 -54 -27.333 -81 -82 -81
c-55.333 0 -83 27 -83 81v577c0 73.333 -11 126 -33 158c-31.333 46.667 -90.333 70 -177 70c-72 0 -133 -22.667 -183 -68c-52 -46.667 -78 -101.334 -78 -164.001v-573c0 -54 -27.333 -81 -82 -81c-55.333 0 -83 27 -83 81v863c0 54 27.667 81 83 81
c54.667 0 82 -27 82 -81v-71c23.333 25.333 41.333 43.666 54 54.999c32.667 29.333 67 51.333 103 66c43.333 18 93.666 27 150.999 27c131.333 0 231.333 -55.667 300 -167c57.333 60 112.333 103.333 165 130c52.667 27.333 108 41 166 41c102 0 181.667 -31.667 239 -95
c61.333 -68 92 -156 92 -264v-585z" />
    <glyph glyph-name="n" unicode="n" horiz-adv-x="1033" 
d="M830 909c58.667 -76.667 88 -189.333 88 -338l-1 -490c0 -54 -27 -81 -81 -81s-81 27 -81 81l-1 490c0 118 -20 203.333 -60 256c-36 47.333 -91.333 71 -166 71c-65.333 0 -121.333 -15 -168 -45c-64.667 -41.333 -98 -107 -100 -197v-575c0 -54 -27 -81 -81 -81
s-81 27 -81 81v863c0 54 27 81 81 81s81 -27 81 -81v-67c95.333 97.333 199.333 146 312 146c114 0 200 -38 258 -114z" />
    <glyph glyph-name="o" unicode="o" horiz-adv-x="1170" 
d="M822 215c64 75.333 96 174.332 96 296.999c0 120.667 -32 219.334 -96 296.001c-63.333 76 -145.333 114 -246 114c-100 0 -181.667 -38.333 -245 -115c-64 -76 -96 -174.333 -96 -295c0 -118 32 -216 96 -294c63.333 -78 143.333 -117 240 -117
c103.333 0 187 38 251 114zM951 887.999c98 -98 147 -224.333 147 -379c0 -150.667 -49 -275 -147 -373c-98 -97.333 -223 -146 -375 -146c-154 0 -279.667 48.667 -377 146c-97.333 98 -146 223.333 -146 376c0 153.333 48.333 279 145 377
c96.667 97.333 221.667 146 375 146c154.667 0 280.667 -49 378 -147z" />
    <glyph glyph-name="p" unicode="p" horiz-adv-x="1126" 
d="M770 224c58.667 82.667 87.998 187.665 87.998 314.998c0 104.667 -29.333 191.334 -88 260.001c-58.667 69.333 -132.667 104 -222 104c-70.667 0 -132.667 -13.667 -186 -41s-83.666 -61.666 -90.999 -102.999l-4 -544c74.667 -76.667 167.667 -115 279 -115
c90.667 0 165.334 41.333 224.001 124zM889.998 901.998c95.333 -90.667 143 -211.667 143 -363c0 -156 -45.333 -285.333 -136 -388c-90.667 -103.333 -205 -155 -343 -155h-20c-31.333 0 -63 4.33301 -95 13c-50 12.667 -107.333 37 -172 73l-1 -1v-426
c0 -54.667 -27 -82 -81 -82s-81 27.333 -81 82v1289c1.33301 54 28.333 81 81 81c53.333 0 80.333 -27 81 -81v-47c53.333 42.667 103.333 74 150 94c52.667 22.667 108.667 34 168 34c118 0 220 -41 306 -123z" />
    <glyph glyph-name="q" unicode="q" horiz-adv-x="1104" 
d="M540 95c114.667 0 194.333 32.334 239 97.001c26 39.333 39 100.666 39 183.999v172c0 96.667 -12 178 -36 244c-26 71.333 -74.333 110 -145 116c-24.667 3.33301 -48.667 5 -72 5c-94.667 0 -175.667 -37.667 -243 -113c-65.333 -74 -98 -162.333 -98 -265
c0 -127.333 29.667 -232.333 89 -315c60 -83.333 135.667 -125 227 -125zM986.999 -349.999c-2.66699 -52 -29.998 -77.999 -81.998 -77.999c-51.333 0 -78.333 26 -81 78v428c-66.667 -36.667 -125.334 -61.334 -176.001 -74.001c-21.333 -5.33301 -60 -9.33301 -116 -12
c-140 0 -255.667 51.333 -347 154c-86.667 97.333 -130 227 -130 389c0 86 18 163.667 54 233l2 5c7.33301 13.333 14 24.333 20 33c18 27.333 38 52 60 74c96 96.667 220 145 372 145c99.333 0 180 -14.333 242 -43c97.333 -44 154.666 -123 171.999 -237
c6 -43.333 9.33301 -93 10 -149v-946z" />
    <glyph glyph-name="r" unicode="r" horiz-adv-x="673" 
d="M587 982c24 -29.333 35.999 -64.332 35.999 -104.999c0 -18.667 -3.66699 -33.334 -11 -44.001c-10 -13.333 -25.333 -20 -46 -20l-16 1c-6 0.666992 -16 5 -30 13c-13.333 8 -27.333 14.667 -42 20c-15.333 4.66699 -27.666 7 -36.999 7
c-55.333 0 -100.333 -42 -135 -126c-24.667 -61.333 -39.334 -132.333 -44.001 -213l-1 -2v-432c0 -54 -27.667 -81 -83 -81c-54.667 0 -82 27 -82 81v861c0 54 27.333 81 82 81c55.333 0 83 -27 83 -81v-141c74.667 149.333 155.334 224 242.001 224
c32 0 60 -14.333 84 -43z" />
    <glyph glyph-name="s" unicode="s" horiz-adv-x="880" 
d="M716 515c52.667 -48.667 78.9971 -113.667 78.9971 -195c0 -94 -35.333 -172.667 -106 -236c-70.667 -62.667 -159.667 -94 -267 -94c-96.667 0 -184.334 28 -263.001 84c-73.333 50.667 -110 102.667 -110 156c0 15.333 5.66699 27.666 17 36.999
c11.333 10.667 26.333 16 45 16c16 0 33 -7 51 -21c18.667 -13.333 43.667 -38.333 75 -75c20.667 -25.333 48.334 -45 83.001 -59c34 -15.333 70.333 -23 109 -23c62 0 115 16.333 159 49s66 71.667 66 117c0 32 -8 58.667 -24 80c-29.333 38 -84.666 66.667 -165.999 86
c-4.66699 1.33301 -15 3.33301 -31 6c-15.333 2.66699 -42.333 8.66699 -81 18c-82 18.667 -146 51.334 -192 98.001c-46.667 46.667 -70 103 -70 169c0 91.333 33.333 165 100 221c65.333 57.333 150 86 254 86c110.667 0 191.334 -15.333 242.001 -46
c26.667 -16 43 -27.667 49 -35c20 -15.333 30 -35.666 30 -60.999c0 -50.667 -26 -76 -78 -76c-22 0 -40.667 7.66699 -56 23c-30.667 27.333 -64.334 49.666 -101.001 66.999c-37.333 16.667 -76 25 -116 25c-47.333 0 -88.666 -14.333 -123.999 -43s-53 -62.667 -53 -102
c0 -36 8 -63.667 24 -83c22.667 -28.667 63.334 -50 122.001 -64l58 -13c24 -5.33301 38.333 -9.33301 43 -12c102 -18.667 179.333 -52 232 -100z" />
    <glyph glyph-name="t" unicode="t" horiz-adv-x="627" 
d="M601 171c17.333 -14.667 26 -34.667 26 -60c0 -34 -12.667 -61 -38 -81c-24.667 -20 -59 -30 -103 -30c-213.333 -0 -320 171.333 -320 514v382h-101c-43.333 0 -65 21.333 -65 64s21.667 64 65 64h99l2 327c0 56 28.333 84 85 84s85 -28 85 -84v-327h139
c22 0 39.667 -8.66699 53 -26l7 -12l1 -2l2 -42c-9.33301 -30.667 -30.333 -46 -63 -46h-139v-412c0 -168.667 10 -277.667 30 -327c22.667 -56.667 58.334 -85 107.001 -85c6 0 9 3.66699 9 11l-6 25c-2 11.333 -3.66699 19.666 -5 24.999
c0 18.667 5.66699 33.334 17 44.001s26.666 16 45.999 16c28 0 50.333 -7.33301 67 -22z" />
    <glyph glyph-name="u" unicode="u" horiz-adv-x="1036" 
d="M178 115c-58.667 76.667 -88 190 -88 340l1 488c0 54.667 27 82 81 82s81 -27.333 81 -82v-488c0.666992 -119.333 21 -205.333 61 -258c36.667 -47.333 92 -71 166 -71c65.333 0 121.333 15 168 45c64.667 41.333 98 107.333 100 198v574c0 54.667 27 82 81 82
s81 -27.333 81 -82v-833c0 -54 -27 -81 -81 -81s-81 27 -81 81v36c-95.333 -97.333 -199.333 -146 -312 -146c-114 -0 -200 38.333 -258 115z" />
    <glyph glyph-name="v" unicode="v" horiz-adv-x="1011" 
d="M966 962c0 -90 -28 -215.999 -84 -377.999c-33.333 -96 -72.666 -190 -117.999 -282c-80 -162 -141.333 -256.333 -184 -283c-20 -12.667 -40.333 -19 -61 -19c-74.667 0 -153.667 80 -237 240c-26.667 50 -64.334 134.667 -113.001 254
c-74 183.333 -111 333.333 -111 450c0 54 27.333 81 82 81c52 0 79.667 -25.667 83 -77c6.66699 -178.667 57 -361.334 151 -548.001c73.333 -144.667 125.333 -224.667 156 -240c31.333 30 78.333 106.333 141 229c76 148.667 131.667 341 167 577
c2.66699 39.333 24 59 64 59c42.667 0 64 -21 64 -63z" />
    <glyph glyph-name="w" unicode="w" horiz-adv-x="1520" 
d="M1397 1025c44 0 65.999 -21.665 65.999 -64.998c0 -104.667 -32 -262.334 -96 -473.001c-89.333 -294 -172.666 -454.667 -249.999 -482c-9.33301 -3.33301 -18.666 -5 -27.999 -5c-68.667 0 -144.667 87.667 -228 263c-34 72 -68 156.667 -102 254
c-12.667 -52 -47.334 -136.333 -104.001 -253c-70 -142.667 -123.667 -225.334 -161 -248.001c-14 -8.66699 -28 -13 -42 -13c-90.667 0 -191 167.333 -301 502c-62.667 190.667 -94 334 -94 430v6c0 56 27.667 84 83 84c54.667 0 82 -27.333 82 -82
c0.666992 -113.333 25 -249 73 -407c52.667 -174 109 -305.333 169 -394c74 120 130 245.667 168 377c39.333 135.333 59 274.333 59 417c0 59.333 27.333 89 82 89s82 -28.667 82 -86c0 -127.333 22 -265.333 66 -414c42.667 -143.333 98 -271 166 -383
c61.333 73.333 118.333 196.333 171 369c49.333 164.667 74 312 74 442c0 48 21.667 72 65 72z" />
    <glyph glyph-name="x" unicode="x" horiz-adv-x="960" 
d="M847 137c14.667 -20 21.999 -39 21.999 -57c0 -22 -11.667 -42 -35 -60c-17.333 -14 -34 -21 -50 -21c-22 0 -42.667 13.333 -62 40l-295 399c-75.333 -84 -124.666 -143.667 -147.999 -179c-40.667 -63.333 -63.667 -128 -69 -194c-2.66699 -40 -23.667 -60 -63 -60
c-42 0 -63 21.333 -63 64c0 50 24.333 111.333 73 184c21.333 32.667 45 65.667 71 99c33.333 44 79.333 100 138 168l-273 369c-14.667 20 -22 38.667 -22 56c0 22 11.667 42 35 60c17.333 13.333 34 20 50 20c22.667 0 43.667 -13 63 -39l269 -364
c62 66.667 103.333 115.667 124 147c42 62 66.333 126 73 192c3.33301 40 24 60 62 60h2c40.667 -1.33301 61 -22 61 -62v-4c-0.666992 -50 -26 -111 -76 -183c-22 -32 -46.333 -64.333 -73 -97c-27.333 -35.333 -65 -80 -113 -134z" />
    <glyph glyph-name="y" unicode="y" horiz-adv-x="1062" 
d="M969 969c-4.66699 -342.667 -86.667 -664.332 -246 -964.999c-60.667 -128 -144 -235.667 -250 -323c-98.667 -81.333 -202.334 -122 -311.001 -122c-33.333 0 -61.333 9.33301 -84 28c-23.333 18 -35 40.333 -35 67c0 21.333 7.33301 37.666 22 48.999
c14 12 34.333 18 61 18c6 0 23.333 -1.33301 52 -4l59 -4c72 0 138.333 28.333 199 85c66 62 118.667 139 158 231c-25.333 -10 -47.333 -17.667 -66 -23c-19.333 -4.66699 -39.333 -7 -60 -7c-102 0 -183.333 57.667 -244 173c-78 146.667 -127.333 322.667 -148 528
l-5 251c2.66699 52 29.667 78 81 78c54 0 81 -27 81 -81c0 -198 13 -351.667 39 -461c22 -94.667 56.333 -179 103 -253c50.667 -81.333 106 -122 166 -122c66.667 0 124.667 51 174 153c40.667 84 73.334 202.667 98.001 356c7.33301 50 17.333 167 30 351
c1.33301 40.667 22.333 61 63 61c37.333 0 58.333 -19 63 -57v-7z" />
    <glyph glyph-name="z" unicode="z" horiz-adv-x="868" 
d="M819 84c0 -20.667 -6.99902 -39.001 -20.999 -55.001c-12 -19.333 -29.667 -29 -53 -29h-632c-56.667 0 -85 28 -85 84l1 11c0 18 17 52 51 102c36.667 54 135 180 295 378l111 138c28.667 38 73 100.667 133 188h-282c-58 0 -106 -11.333 -144 -34
c-12.667 -6.66699 -26 -10 -40 -10c-56.667 0 -85 28 -85 84s28.333 84 85 84l581 -1c49.333 -6 74 -33.667 74 -83c0 -6.66699 -1 -13.667 -3 -21l-1 -3c-1.33301 -5.33301 -3 -10 -5 -14c-4.66699 -10.667 -100 -139 -286 -385
c-190.667 -251.333 -289.667 -382.666 -297 -393.999h335c57.333 0 105 11.333 143 34c13.333 6.66699 26.666 10 39.999 10c56.667 0 85 -28 85 -84z" />
    <glyph glyph-name="braceleft" unicode="{" horiz-adv-x="514" 
d="M350 -5c0 -126 38 -207 114 -243h-6c-76.667 0 -139.334 24.333 -188.001 73c-25.333 26 -42 60.333 -50 103c-7.33301 40 -11 88.333 -11 145v358c0 48.667 -3 86.667 -9 114c-6 28 -22 52.333 -48 73c-33.333 30 -67.333 46.667 -102 50c34.667 4 68.667 21 102 51
c26 20.667 42 45 48 73c6 27.333 9 65.333 9 114v358c0 56.667 3.66699 105 11 145c8 42.667 24.667 77 50 103c48.667 48.667 111.334 73 188.001 73h6c-76 -36 -114 -117 -114 -243v-381c0 -86 -11.667 -152.333 -35 -199c-22.667 -46.667 -69.334 -78 -140.001 -94
c70.667 -15.333 117.334 -46.333 140.001 -93c23.333 -46.667 35 -113 35 -199v-381z" />
    <glyph glyph-name="bar" unicode="|" horiz-adv-x="1095" 
d="M614 -342c0 -54.667 -20.667 -82 -62 -82c-42 0 -63 27.333 -63 82v1851c0 54.667 21 82 63 82c41.333 0 62 -27.333 62 -82v-1851z" />
    <glyph glyph-name="braceright" unicode="}" horiz-adv-x="514" 
d="M164 376c0 86 11.667 152.333 35 199c22.667 46.667 69.334 77.667 140.001 93c-70.667 16 -117.334 47.333 -140.001 94c-23.333 46.667 -35 113 -35 199v381c0 126 -38 207 -114 243h6c76.667 0 139.334 -24.333 188.001 -73c25.333 -26 42 -60.333 50 -103
c7.33301 -40 11 -88.333 11 -145v-358c0 -48.667 3 -86.667 9 -114c6 -28 22 -52.333 48 -73c33.333 -30 67.333 -47 102 -51c-34.667 -3.33301 -68.667 -20 -102 -50c-26 -20.667 -42 -45 -48 -73c-6 -27.333 -9 -65.333 -9 -114v-358c0 -56.667 -3.66699 -105 -11 -145
c-8 -42.667 -24.667 -77 -50 -103c-48.667 -48.667 -111.334 -73 -188.001 -73h-6c76 36 114 117 114 243v381z" />
    <glyph glyph-name="asciitilde" unicode="~" horiz-adv-x="1333" 
d="M101 609c0 13.333 4.33203 25.668 12.999 37.001c55.333 69.333 99 117.666 131 144.999c49.333 41.333 109 62 179 62c36.667 0 76.334 -5.66699 119.001 -17c43.333 -12.667 95.333 -31.334 156 -56.001c62.667 -24.667 109 -41.667 139 -51
c32 -11.333 63.333 -17 94 -17c48.667 0 88.334 15.667 119.001 47c15.333 16.667 39.666 45.667 72.999 87c12.667 17.333 29 26 49 26c40 0 60 -19.333 60 -58c0 -13.333 -4.33301 -25.333 -13 -36l-69 -84c-26 -29.333 -57.333 -54.666 -94 -75.999
c-36 -20.667 -77.667 -31 -125 -31c-49.333 0 -117 16.667 -203 50l-110 41l-65 23c-23.333 8 -45 14.333 -65 19c-21.333 5.33301 -41.666 8 -60.999 8c-56.667 0 -100.334 -16 -131.001 -48l-90 -109c-12 -14 -27 -21 -45 -21c-40.667 0 -61 19.667 -61 59z" />
    <glyph glyph-name="exclamdown" unicode="&#xa1;" horiz-adv-x="582" 
d="M375 -45l5.00195 -110c0 -63.333 -9 -106 -27 -128s-43.667 -33 -77 -33c-70.667 0 -106 50.667 -106 152l61 869c3.33301 36 5.66602 60 6.99902 72s5 23.667 11 35c6 10.667 15 16 27 16c16.667 0 27.667 -9 33 -27s9.66602 -46.333 12.999 -85zM397.002 1134
c0 -70.667 -40.667 -106 -122 -106s-122 35.333 -122 106c0 70 40.667 105 122 105s122 -35 122 -105z" />
    <glyph glyph-name="cent" unicode="&#xa2;" horiz-adv-x="1147" 
d="M321 489c0 -99.333 23.999 -182.668 71.999 -250.001l313 674c-24 13.333 -50.333 20 -79 20c-79.333 0 -143.666 -24.667 -192.999 -74c-42 -41.333 -72.333 -98.666 -91 -171.999c-14.667 -58.667 -22 -124.667 -22 -198zM993.999 274.998
c13.333 -6 19.998 -19.335 19.998 -40.002c0 -46 -37 -97.667 -111 -155c-86.667 -67.333 -186 -101 -298 -101c-80.667 0 -153.667 16.667 -219 50l-174 -375c-8 -16.667 -19 -25 -33 -25c-6.66699 0 -14 1.66699 -22 5c-16.667 8 -25 19 -25 33c0 6 1.66699 13 5 21
l179 386c-20 15.333 -37.667 31 -53 47c-90.667 94.667 -136 214.334 -136 359.001c0 160.667 49.333 295.667 148 405s221 164 367 164c42.667 0 82.667 -4.33301 120 -13l174 373c8 16.667 19 25 33 25c6 0 13 -1.66699 21 -5c16.667 -8 25 -19 25 -33
c0 -6 -1.66699 -13 -5 -21l-170 -366c14.667 -6.66699 27.334 -13 38.001 -19c66.667 -40 100 -87 100 -141c0 -24 -9 -44.667 -27 -62c-18 -16.667 -39 -25 -63 -25c-33.333 0 -61.333 14.667 -84 44l-36 48l-315 -680c51.333 -41.333 113 -62 185 -62
c40.667 0 83.334 8 128.001 24c44.667 16.667 77.667 36.334 99 59.001l46 47c26.667 24 46 36 58 36z" />
    <glyph glyph-name="sterling" unicode="&#xa3;" horiz-adv-x="1159" 
d="M991 190c64 0 95.999 -31.666 95.999 -94.999s-32 -95 -96 -95h-706c-58 0 -87 28.667 -87 86v452h-57c-46 0 -69 23 -69 69c0 45.333 23 68 69 68h57v383c0 261.333 112.333 392 337 392c41.333 0 76.333 -10.333 105 -31s43 -50.667 43 -90
c0 -22.667 -7.66699 -41 -23 -55c-16 -14.667 -37.667 -22 -65 -22c-20.667 0 -36.334 5 -47.001 15c-10 9.33301 -18.667 26.666 -26 51.999c-3.33301 14.667 -6.66602 25 -9.99902 31c-5.33301 10.667 -10 17 -14 19c-8.66699 3.33301 -16.667 5 -24 5
c-38.667 0 -67 -42 -85 -126c-10 -48 -15.333 -105.333 -16 -172v-401h129c46 0 69 -22.667 69 -68c0 -46 -23 -69 -69 -69h-129v-280c0 -68 11 -109.333 33 -124c30 -20 114.333 -30 253 -30c54.667 0 107 7 157 21c36.667 9.33301 82.334 28.333 137.001 57
c12 5.33301 24.667 8 38 8z" />
    <glyph glyph-name="currency" unicode="&#xa4;" horiz-adv-x="1353" 
d="M418 728c0 -172.667 86 -259 258 -259c172.667 0 259 86.333 259 259c0 172 -86.333 258 -259 258c-172 0 -258 -86 -258 -258zM1039 264l-7.00098 6.00098l-127 127l-6 -4c-67.333 -45.333 -141.666 -68 -222.999 -68c-80.667 0 -155 22.667 -223 68l-6 4l-125 -123
l-8 -10c-14 -12.667 -30.333 -19 -49 -19c-20 0 -37 7 -51 21c-16.667 16.667 -25 33.334 -25 50.001c0 16 7.66699 32.333 23 49l5 5l128 129l-4 6c-44.667 67.333 -67 141.666 -67 222.999s22.333 155.666 67 222.999l4 6l-131 131c-16.667 17.333 -25 34.333 -25 51
c0 17.333 8.33301 34.333 25 51c14.667 14 31.667 21 51 21c20 0 37 -7 51 -21l131 -131l6 4c68 44.667 142.333 67 223 67c81.333 0 155.666 -22.333 222.999 -67l6 -4l131 131c14 14 31 21 51 21s37 -7 51 -21c17.333 -16.667 26 -33.667 26 -51
c0 -16.667 -8.66699 -33.667 -26 -51l-131 -131l4 -6c44.667 -68 67 -142.333 67 -223c0 -81.333 -22.333 -155.666 -67 -222.999l-4 -6l133 -134c15.333 -16.667 23 -33 23 -49c0 -16.667 -8.33301 -33.334 -25 -50.001c-14 -14 -30.667 -21 -50 -21
s-35.666 6.33301 -48.999 19z" />
    <glyph glyph-name="yen" unicode="&#xa5;" horiz-adv-x="1325" 
d="M1188 1353c-0.666992 -0.666992 -0.99707 -1.33203 -0.99707 -1.99902c-43.333 -112.667 -126 -259 -248 -439c-12 -18.667 -26.333 -39.334 -43 -62.001l-121 -170h99c46.667 0 70 -23 70 -69s-23.333 -69 -70 -69h-163v-119h163c46.667 0 70 -23.333 70 -70
c0 -46 -23.333 -69 -70 -69h-163l-2 -209c-6.66699 -50 -35.334 -75 -86.001 -75c-58.667 0 -88 29 -88 87v197h-149c-46.667 0 -70 23 -70 69c0 46.667 23.333 70 70 70h149l-2 119h-147c-46.667 0 -70 23 -70 69s23.333 69 70 69h70l-99 143
c-67.333 95.333 -118.333 171 -153 227c-64 102 -98.667 158 -104 168l-39 75l-4 7c-4.66699 12 -7 24.333 -7 37c0 65.333 33 98 99 98c47.333 0 78.666 -22.333 93.999 -67l3 -12c24 -84.667 65.667 -175 125 -271l49 -71l113 -155c50.667 -70 91.667 -122.667 123 -158
c209.333 240 348.666 470.333 417.999 691c8.66699 28.667 28 43 58 43c40 0 60 -20 60 -60z" />
    <glyph glyph-name="brokenbar" unicode="&#xa6;" horiz-adv-x="1108" 
d="M614 727c0 -54.667 -20.667 -82 -62 -82c-42 0 -63 27.333 -63 82v624c0 54.667 21 82 63 82c41.333 0 62 -27.333 62 -82v-624zM614 -336c0 -54.667 -20.667 -82 -62 -82c-42 0 -63 27.333 -63 82v624c0 54.667 21 82 63 82c41.333 0 62 -27.333 62 -82v-624z" />
    <glyph glyph-name="section" unicode="&#xa7;" horiz-adv-x="1330" 
d="M1001 825c2.66699 18.667 4.00195 36.001 4.00195 52.001c0 53.333 -16 91.666 -48 114.999c-42.667 30.667 -96.334 56.334 -161.001 77.001l-230 75l-127 50c-66.667 -69.333 -111 -132 -133 -188c-11.333 -29.333 -17 -56 -17 -80c0 -44.667 19.333 -80 58 -106
c42.667 -29.333 96 -54 160 -74l197 -62c62 -18.667 124.667 -46.334 188 -83.001c67.333 114 103.666 188.667 108.999 224zM1039 1128c84.667 -54.667 127 -126.665 127 -215.998c0 -45.333 -10.667 -95 -32 -149c-12 -28.667 -63.333 -103.334 -154 -224.001
c41.333 -34.667 70.666 -71 87.999 -109c28 -60 42 -117.333 42 -172c0 -86.667 -35.667 -166 -107 -238c-43.333 -40.667 -92.333 -72.667 -147 -96c-83.333 -36 -170 -54 -260 -54c-298 0 -447 69.667 -447 209c0 68.667 25.333 103 76 103h6
c33.333 0 77.333 -34.333 132 -103c21.333 -26.667 41.666 -48 60.999 -64c45.333 -37.333 102.666 -56 171.999 -56c228.667 0 343 88.667 343 266c0 130.667 -92 227 -276 289l-209 71c-65.333 21.333 -121.666 45.333 -168.999 72c-38 22 -71 52.333 -99 91
c-34.667 48.667 -52 103.667 -52 165c0 40 7.33301 82.333 22 127c28.667 86 88 159 178 219c-35.333 33.333 -64.333 70 -87 110c-30 52 -45 101.333 -45 148c0 36 9 70 27 102c26 50.667 61 92 105 124c84.667 64.667 194.667 97 330 97
c57.333 0 117.666 -6.33301 180.999 -19c62.667 -12 117.334 -29.333 164.001 -52c15.333 -7.33301 27 -15.333 35 -24c4.66699 -6 9.33398 -13.667 14.001 -23l4 -13c3.33301 -8.66699 5 -16.667 5 -24c0 -54.667 -27.333 -82 -82 -82c-26.667 0 -49 10 -67 30
c-22.667 27.333 -45.667 50.666 -69 69.999c-48 39.333 -109.667 59 -185 59c-39.333 0 -78.666 -7.66699 -117.999 -23c-32 -12.667 -64.667 -36 -98 -70c-55.333 -56 -83 -108.333 -83 -157c0 -51.333 31 -98.333 93 -141c44 -32 103 -60 177 -84l191 -63
c92.667 -32 163.667 -64 213 -96z" />
    <glyph glyph-name="dieresis" unicode="&#xa8;" horiz-adv-x="995" 
d="M345 1151c-78 0 -117 31.667 -117 95c0 64 39 96 117 96c77.333 0 116 -32 116 -96c0 -63.333 -38.667 -95 -116 -95zM707 1151c-78 0 -117 31.667 -117 95c0 64 39 96 117 96c77.333 0 116 -32 116 -96c0 -63.333 -38.667 -95 -116 -95z" />
    <glyph glyph-name="copyright" unicode="&#xa9;" horiz-adv-x="1795" 
d="M1370 305c103.333 118 155.001 255.333 155.001 412c0 173.333 -61.333 321.333 -184 444s-270.334 184 -443.001 184c-148 0 -279.333 -46 -394 -138c-156 -126 -234 -289.333 -234 -490c0 -125.333 34.333 -240 103 -344c124 -188.667 299 -283 525 -283
c190 0 347.333 71.667 472 215zM1426 1246c146 -146 219 -322.331 219 -528.998c0 -186.667 -61.333 -350.334 -184 -491.001c-149.333 -170.667 -337 -256 -563 -256c-268.667 0 -477 112.333 -625 337c-82 124 -123 260.667 -123 410c0 239.333 93 433.666 279 582.999
c136.667 110 293 165 469 165c206 0 382 -73 528 -219zM1249 485.002c6.66699 -7.33301 10 -15.001 10 -23.001c0 -26 -15.333 -55 -46 -87c-32.667 -33.333 -75 -61 -127 -83c-59.333 -25.333 -121.333 -38 -186 -38c-134.667 0 -241.334 44 -320.001 132
c-74.667 84 -112 192 -112 324c0 139.333 43 254 129 344s196 135 330 135c52 0 108.333 -8.66699 169 -26c51.333 -15.333 84.666 -29.666 99.999 -42.999c16.667 -12 25 -28 25 -48c0 -40 -19.667 -60 -59 -60c-16.667 0 -31 6 -43 18
c-29.333 28 -53.666 47.333 -72.999 58c-43.333 24 -90 36 -140 36c-89.333 0 -163.666 -38 -222.999 -114c-58.667 -76.667 -88 -172.334 -88 -287.001c0 -118 29.667 -212.667 89 -284c59.333 -72 137.666 -108 234.999 -108c46 0 90.333 8.66699 133 26
c42.667 16.667 77 39.334 103 68.001c13.333 20 24 34.667 32 44c14 18 28 27 42 27c6.66699 0 13.334 -3.66699 20.001 -11z" />
    <glyph glyph-name="ordfeminine" unicode="&#xaa;" horiz-adv-x="849" 
d="M527 793c59.333 44 89.001 113.999 89.001 209.999l-3 109c-142 0 -247 -21.667 -315 -65c-58 -37.333 -87 -89.666 -87 -156.999c0 -42 15 -76.667 45 -104c28.667 -26.667 66.667 -40 114 -40c63.333 0 115.666 15.667 156.999 47zM654.001 1349
c58 -61.333 86.998 -159.667 86.998 -295v-318c0 -39.333 -19.667 -59 -59 -59l-13 1c-34.667 5.33301 -52.334 25.666 -53.001 60.999v54c-39.333 -44 -78.333 -76.333 -117 -97c-50.667 -26.667 -108.334 -40 -173.001 -40c-73.333 0 -134.666 21.333 -183.999 64
s-74 95.667 -74 159c0 98.667 38.667 172.334 116 221.001c86.667 55.333 224.334 83 413.001 83c-8.66699 54.667 -32.667 97.667 -72 129c-38.667 32.667 -88 49 -148 49c-22.667 0 -42 -3 -58 -9c-16 -4.66699 -40.667 -16.334 -74 -35.001
c-27.333 -14.667 -45.666 -24 -54.999 -28c-9.33301 -3.33301 -19.666 -5 -30.999 -5c-12.667 0 -22 1.66699 -28 5c-12 6.66699 -18 19.334 -18 38.001c0 35.333 23.333 63 70 83c46.667 20.667 109.334 31 188.001 31c131.333 0 225.666 -30.667 282.999 -92z" />
    <glyph glyph-name="guillemotleft" unicode="&#xab;" horiz-adv-x="1020" 
d="M503 164l-269.999 269.999l-1 2c-12 14.667 -18 28.667 -18 42c0 12.667 5.33301 25 16 37l5 5l268 268c11.333 11.333 25 17 41 17c15.333 0 28.666 -5.66699 39.999 -17c11.333 -10.667 17 -24 17 -40s-5.66699 -29.667 -17 -41l-231 -231l231 -231
c11.333 -11.333 17 -25 17 -41c0 -15.333 -5.66699 -28.666 -17 -39.999c-10.667 -11.333 -24 -17 -40 -17s-29.667 5.66699 -41 17zM793.001 163.999l-269.999 269.999l-1 2c-12 14.667 -18 28.667 -18 42c0 12.667 5.33301 25 16 37l5 5l268 268
c11.333 11.333 25 17 41 17c15.333 0 28.666 -5.66699 39.999 -17c11.333 -10.667 17 -24 17 -40s-5.66699 -29.667 -17 -41l-231 -231l231 -231c11.333 -11.333 17 -25 17 -41c0 -15.333 -5.66699 -28.666 -17 -39.999c-10.667 -11.333 -24 -17 -40 -17
s-29.667 5.66699 -41 17z" />
    <glyph glyph-name="logicalnot" unicode="&#xac;" horiz-adv-x="1094" 
d="M907 778c54 0 81 -26.667 81 -80v-272c0 -53.333 -27 -80 -81 -80c-53.333 0 -80 26.667 -80 80v230h-660c-54 0 -81 19.667 -81 59c0 42 27 63 81 63h740z" />
    <glyph glyph-name="registered" unicode="&#xae;" horiz-adv-x="1795" 
d="M1370 305c103.333 118 155.001 255.333 155.001 412c0 173.333 -61.333 321.333 -184 444s-270.334 184 -443.001 184c-148 0 -279.333 -46 -394 -138c-156 -126 -234 -289.333 -234 -490c0 -125.333 34.333 -240 103 -344c124 -188.667 299 -283 525 -283
c190 0 347.333 71.667 472 215zM1426 1246c146 -146 219 -322.331 219 -528.998c0 -186.667 -61.333 -350.334 -184 -491.001c-149.333 -170.667 -337 -256 -563 -256c-268.667 0 -477 112.333 -625 337c-82 124 -123 260.667 -123 410c0 239.333 93 433.666 279 582.999
c136.667 110 293 165 469 165c206 0 382 -73 528 -219zM719.001 728.002c140.667 16.667 241.331 42.332 301.998 76.999c60.667 34 91 80.667 91 140c0 48 -20.667 85.333 -62 112c-41.333 26 -100.666 39 -177.999 39c-67.333 0 -110.666 -6.66699 -129.999 -20
c-15.333 -11.333 -23 -35.666 -23 -72.999v-275zM1231 337c0 -41.333 -20.667 -62 -62 -62c-31.333 0 -51.333 15 -60 45c-52.667 172.667 -114.667 296 -186 370c-36 -9.33301 -66 -15.666 -90 -18.999c-34.667 -6 -72.667 -10.667 -114 -14l-2 -336
c-4.66699 -31.333 -22.334 -47 -53.001 -47c-36 0 -54 18 -54 54v782c0 36 18 54 54 54h230c110.667 0 193.334 -14 248.001 -42c62.667 -32 94 -84.333 94 -157c0 -54 -16.333 -100.667 -49 -140c-32.667 -38.667 -83.667 -73.334 -153 -104.001
c16.667 -22 30.667 -41.333 42 -58c20 -29.333 38 -59.333 54 -90l96 -211c3.33301 -8 5 -16.333 5 -25z" />
    <glyph glyph-name="macron" unicode="&#xaf;" horiz-adv-x="842" 
d="M640 1282h-437c-47.333 0 -71 25.333 -71 76s23.667 76 71 76h437c47.333 0 71 -25.333 71 -76s-23.667 -76 -71 -76z" />
    <glyph glyph-name="degree" unicode="&#xb0;" horiz-adv-x="723" 
d="M493 1000c38 36.667 57.002 81.666 57.002 134.999c0 48.667 -16.667 91 -50 127c-36.667 40 -82.334 60 -137.001 60c-52 0 -96.333 -18.333 -133 -55c-36 -36.667 -54 -80.667 -54 -132c0 -43.333 13 -81.666 39 -114.999c37.333 -48 86.666 -72 147.999 -72
c50 0 93.333 17.333 130 52zM585.002 1340c54 -58 81.001 -126.332 81.001 -204.999c0 -86 -31 -158.667 -93 -218c-58.667 -56.667 -128.667 -85 -210 -85c-98.667 0 -178.334 39 -239.001 117c-42.667 54.667 -64 116.667 -64 186c0 83.333 29.667 154.666 89 213.999
c58.667 58.667 130 88 214 88c88 0 162 -32.333 222 -97z" />
    <glyph glyph-name="plusminus" unicode="&#xb1;" horiz-adv-x="1358" 
d="M1137 854c47.333 0 71 -24 71 -72c0 -47.333 -23.667 -71 -71 -71h-387v-387c0 -47.333 -23.667 -71 -71 -71c-48 0 -72 23.667 -72 71v387h-386c-47.333 0 -71 23.667 -71 71c0 48 23.667 72 71 72h386v386c0 47.333 24 71 72 71c47.333 0 71 -23.667 71 -71v-386h387z
M1140 0h-922c-45.333 0 -68 24 -68 72c0 47.333 22.667 71 68 71h922c45.333 0 68 -23.667 68 -71c0 -48 -22.667 -72 -68 -72z" />
    <glyph glyph-name="uni00B2" unicode="&#xb2;" horiz-adv-x="755" 
d="M596 758c34 0 50.999 -16.999 50.999 -50.999s-17 -51 -51 -51h-434c-32.667 0 -49 11.333 -49 34c0 20.667 13.333 50.667 40 90c21.333 32.667 69.666 87 144.999 163l45 43l73 71c26.667 26 41.334 40.667 44.001 44c21.333 24 38 50 50 78s18 55.333 18 82
c0 36.667 -13 66.667 -39 90s-59.333 35 -100 35c-39.333 0 -75 -11.333 -107 -34c-32.667 -23.333 -49 -49.333 -49 -78c0 -6.66699 5.66699 -16 17 -28c10.667 -12.667 16 -26.334 16 -41.001c0 -7.33301 -1.66699 -14.333 -5 -21
c-1.33301 -7.33301 -5.66602 -14 -12.999 -20c-8.66699 -8 -19 -12 -31 -12c-20 0 -37 8.33301 -51 25c-13.333 17.333 -20 38.333 -20 63c0 55.333 25 102.666 75 141.999s110 59 180 59c65.333 0 118.666 -18.333 159.999 -55c41.333 -36 62 -83 62 -141
c0 -72.667 -38 -144 -114 -214c-146 -135.333 -237.333 -227.666 -274 -276.999c-2.66699 -4 -4 -7.66699 -4 -11c0 -5.33301 3 -10.333 9 -15c15.333 -10.667 60 -16 134 -16c60 0 103.333 4 130 12c19.333 5.33301 43.333 15.333 72 30c6.66699 2.66699 13.334 4 20.001 4
z" />
    <glyph glyph-name="uni00B3" unicode="&#xb3;" horiz-adv-x="684" 
d="M527 1015c32.667 -32.667 48.999 -75.3311 48.999 -127.998c0 -66.667 -25 -121.334 -75 -164.001c-52 -44.667 -120.667 -67 -206 -67c-67.333 0 -122 14.333 -164 43s-63 66 -63 112c0 20 4.33301 36.333 13 49c6 8 13.333 13.667 22 17l2 1c6 2 11.667 3 17 3
c32.667 0 49.667 -17 51 -51c0.666992 -47.333 11 -79.333 31 -96c24.667 -21.333 55.667 -32 93 -32c52 0 94.667 16.333 128 49c32.667 32.667 49 75.667 49 129c0 54 -15.333 96 -46 126c-28 28.667 -64.333 43 -109 43h-62c-9.33301 0 -17.666 2.33301 -24.999 7
c-6.66699 4.66699 -10 9.66699 -10 15c0 8.66699 4.66699 15.667 14 21c8.66699 4.66699 24.667 8.66699 48 12c66 9.33301 112.333 31 139 65c17.333 23.333 26 53 26 89c0 40.667 -12 73.334 -36 98.001c-24.667 24.667 -57 37 -97 37c-30 0 -57.667 -8.33301 -83 -25
c-14.667 -10 -22 -38.333 -22 -85c0 -10.667 -3.33301 -20.334 -10 -29.001c-2 -4 -5.33301 -7.66699 -10 -11c-8.66699 -7.33301 -18.334 -11 -29.001 -11c-8.66699 0 -16.667 2 -24 6c-18.667 9.33301 -28 24.333 -28 45v8c0 40.667 21.333 75.667 64 105
c42.667 30 93.334 45 152.001 45c63.333 0 116.333 -17.333 159 -52c42 -34.667 63 -78.334 63 -131.001c0 -88 -58 -146 -174 -174c69.333 -14.667 120.333 -37.667 153 -69z" />
    <glyph glyph-name="acute" unicode="&#xb4;" horiz-adv-x="863" 
d="M221 1110c147.333 217.333 240.999 326 280.999 326c54.667 0 87 -4.33301 97 -13c15.333 -14 23 -29 23 -45c0 -28.667 -25.333 -61 -76 -97c-170 -132.667 -257 -200.667 -261 -204c-18 -14.667 -34 -22 -48 -22c-9.33301 0 -17.666 3.66699 -24.999 11
c-2.66699 3.33301 -4 7.33301 -4 12c0 8 4.33301 18.667 13 32z" />
    <glyph glyph-name="mu" unicode="&#xb5;" horiz-adv-x="1022" 
d="M840 1025c54.667 0 81.999 -27.333 81.999 -82v-832c-0.666992 -54 -28 -81 -82 -81c-53.333 0 -80.333 27 -81 81v36c-95.333 -97.333 -199.333 -146 -312 -146c-72 0 -133 15 -183 45v-392c0 -55.333 -27.333 -83 -82 -83s-82 27.667 -82 83v1288
c0 55.333 27.333 83 82 83c22.667 0 42 -8 58 -24s24 -35.667 24 -59v-487c0 -119.333 20 -205 60 -257c36.667 -48 92.334 -72 167.001 -72c65.333 0 121.333 15 168 45c64.667 41.333 98 107.333 100 198v574c0 54.667 27 82 81 82z" />
    <glyph glyph-name="paragraph" unicode="&#xb6;" horiz-adv-x="1108" 
d="M590 1324h-56c-92.667 0 -166 -17 -220 -51c-53.333 -34.667 -80 -95.667 -80 -183c0 -64 16.667 -120.333 50 -169s77 -87.667 131 -117s112.333 -48.333 175 -57v577zM985 1321v-1212c0 -40.667 -6 -68.334 -18 -83.001c-14.667 -17.333 -33 -26 -55 -26
c-20 0 -37.333 6.66699 -52 20c-14.667 15.333 -22 43 -22 83v1221h-101v-1215c0 -40.667 -5.66699 -68.334 -17 -83.001c-16 -17.333 -35 -26 -57 -26c-19.333 0 -36.666 6.66699 -51.999 20c-14 15.333 -21 43 -21 83v563c-70.667 3.33301 -140 13 -208 29
s-131 40.667 -189 74c-58.667 33.333 -105.334 77 -140.001 131c-35.333 53.333 -53 117 -53 191c0 54 9.66699 104.667 29 152c19.333 48 49 87.333 89 118c63.333 49.333 161.666 74 294.999 74h653c24 0 42.667 -3.33301 56 -10c13.333 -7.33301 20 -22 20 -44
c0 -24.667 -7 -40.667 -21 -48c-13.333 -8 -32.666 -12 -57.999 -12h-78z" />
    <glyph glyph-name="periodcentered" unicode="&#xb7;" horiz-adv-x="627" 
d="M147 718c0 42.667 15.668 81 47.001 115s71.666 51 120.999 51c48.667 0 88.5 -17.167 119.5 -51.5s46.5 -72.5 46.5 -114.5c0 -42.667 -15.667 -81.334 -47 -116.001s-71.333 -52 -120 -52c-49.333 0 -89.5 17.333 -120.5 52s-46.5 73.334 -46.5 116.001z" />
    <glyph glyph-name="periodcentered" unicode="&#x2219;" horiz-adv-x="627" 
d="M147 718c0 42.667 15.668 81 47.001 115s71.666 51 120.999 51c48.667 0 88.5 -17.167 119.5 -51.5s46.5 -72.5 46.5 -114.5c0 -42.667 -15.667 -81.334 -47 -116.001s-71.333 -52 -120 -52c-49.333 0 -89.5 17.333 -120.5 52s-46.5 73.334 -46.5 116.001z" />
    <glyph glyph-name="cedilla" unicode="&#xb8;" horiz-adv-x="1135" 
d="M646 -107c23.333 4.66699 44.6689 6.99805 64.002 6.99805c50 0 90 -14 120 -42c29.333 -27.333 44 -64.333 44 -111c0 -50 -17 -90.333 -51 -121c-33.333 -30.667 -77 -48 -131 -52c-6.66699 -0.666992 -13.334 -1 -20.001 -1c-24 0 -49.333 3 -76 9
c-62.667 12.667 -130.334 36.334 -203.001 71.001c-18 8.66699 -27 20.667 -27 36c0 6 1.33301 12.333 4 19c6 15.333 15.333 23 28 23c7.33301 0 15.333 -2.33301 24 -7c44 -22 87 -39.333 129 -52c34.667 -10 68 -15 100 -15c30.667 0 54.667 7.33301 72 22
c16.667 14.667 25 35.334 25 62.001c0 27.333 -8.66699 49 -26 65c-18 16 -42.667 24 -74 24c-14 0 -23.667 -0.333008 -29 -1h-5c-19.333 0 -29.333 11.333 -30 34v137h62v-107z" />
    <glyph glyph-name="uni00B9" unicode="&#xb9;" horiz-adv-x="500" 
d="M392 700c0 -29.333 -14.668 -43.999 -44.001 -43.999c-30 0 -45 14.667 -45 44v651c-65.333 -48.667 -123.666 -111.667 -174.999 -189l-1 -1c-6.66699 -8.66699 -15.334 -13 -26.001 -13c-21.333 0 -32 10.667 -32 32c0.666992 7.33301 3.66699 14.666 9 21.999
c52 71.333 115 137.333 189 198c32.667 26 59.334 39.667 80.001 41c30 0 45 -14.667 45 -44v-697z" />
    <glyph glyph-name="ordmasculine" unicode="&#xba;" horiz-adv-x="694" 
d="M204 782c24.667 -50 65.333 -75 122 -75c43.333 0 77.333 14 102 42c22 24.667 37.667 61.667 47 111c8 42 12 95.667 12 161c0 138 -13.333 235 -40 291c-24 52.667 -64.333 79 -121 79c-62 0 -104.667 -29.667 -128 -89c-20.667 -52 -31 -144.667 -31 -278
c0 -112 12.333 -192.667 37 -242zM513.999 1349c48 -67.333 71.9971 -168.333 71.9971 -303c0 -59.333 -5.33301 -113.333 -16 -162c-15.333 -66.667 -40 -119 -74 -157c-42.667 -47.333 -98.667 -71 -168 -71c-83.333 0 -147.666 33.667 -192.999 101
c-44.667 68 -67 165.333 -67 292c0 124 22.333 220.333 67 289s107.334 103 188.001 103c82.667 0 146.334 -30.667 191.001 -92z" />
    <glyph glyph-name="guillemotright" unicode="&#xbb;" horiz-adv-x="1020" 
d="M476 147c-16 0 -29.332 5.66797 -39.999 17.001c-11.333 11.333 -17 24.666 -17 39.999c0 16 5.66699 29.667 17 41l231 231l-231 231c-11.333 11.333 -17 25 -17 41s5.66699 29.333 17 40c11.333 11.333 24.666 17 39.999 17c16 0 29.667 -5.66699 41 -17l268 -268l5 -5
c10.667 -12 16 -24.333 16 -37c0 -13.333 -6 -27.333 -18 -42l-1 -2l-270 -270c-11.333 -11.333 -25 -17 -41 -17zM186.001 147.001c-16 0 -29.332 5.66797 -39.999 17.001c-11.333 11.333 -17 24.666 -17 39.999c0 16 5.66699 29.667 17 41l231 231l-231 231
c-11.333 11.333 -17 25 -17 41s5.66699 29.333 17 40c11.333 11.333 24.666 17 39.999 17c16 0 29.667 -5.66699 41 -17l268 -268l5 -5c10.667 -12 16 -24.333 16 -37c0 -13.333 -6 -27.333 -18 -42l-1 -2l-270 -270c-11.333 -11.333 -25 -17 -41 -17z" />
    <glyph glyph-name="onequarter" unicode="&#xbc;" horiz-adv-x="1468" 
d="M250 -205c-17.333 8 -26 19.333 -26 34c0 6.66699 1.66699 14 5 22l793 1706c8 17.333 19.667 26 35 26c6.66699 0 14 -1.66699 22 -5c17.333 -8 26 -19.333 26 -34c0 -6.66699 -1.66699 -14 -5 -22l-793 -1706c-8 -17.333 -19.667 -26 -35 -26
c-6.66699 0 -14 1.66699 -22 5zM392 700c0 -29.333 -14.668 -44 -44.001 -44c-30 0 -45 14.667 -45 44v651c-65.333 -48.667 -123.666 -111.667 -174.999 -189l-1 -1c-6.66699 -8.66699 -15.334 -13 -26.001 -13c-21.333 0 -32 10.667 -32 32c0 6 3 13.333 9 22
c52 71.333 115 137.333 189 198c32.667 26 59.334 39.667 80.001 41c30 0 45 -14.667 45 -44v-697zM1137 284l1 411c-130 -96.667 -224.333 -233.667 -283 -411h282zM1344 278c10.667 -3.33301 16 -13 16 -29c0 -14 -4 -23 -12 -27s-25 -6 -51 -6h-71v-172
c0 -29.333 -15 -44 -45 -44c-29.333 0 -44 14.667 -44 44v172h-319c-16 0 -27.333 2.66699 -34 8c-6 4.66699 -9 13 -9 25c0 22.667 6.66699 50 20 82c72 167.333 174.333 305 307 413c32 26 58.333 39.667 79 41c30 0 45 -14.667 45 -44v-457h49c36 0 59 -2 69 -6z" />
    <glyph glyph-name="onehalf" unicode="&#xbd;" horiz-adv-x="1515" 
d="M250 -205c-17.333 8 -26 19.333 -26 34c0 6.66699 1.66699 14 5 22l793 1706c8 17.333 19.667 26 35 26c6.66699 0 14 -1.66699 22 -5c17.333 -8 26 -19.333 26 -34c0 -6.66699 -1.66699 -14 -5 -22l-793 -1706c-8 -17.333 -19.667 -26 -35 -26
c-6.66699 0 -14 1.66699 -22 5zM392 700c0 -29.333 -14.667 -44 -44 -44c-30 0 -45 14.667 -45 44v651c-65.333 -48.667 -124 -112 -176 -190c-6.66699 -8.66699 -15.334 -13 -26.001 -13c-21.333 0 -32 10.667 -32 32c0.666992 6.66699 3.66699 14 9 22
c52 71.333 115 137.333 189 198c32.667 26 59.334 39.667 80.001 41c30 0 45 -14.667 45 -44v-697zM1356 102c34 0 50.999 -16.999 50.999 -50.999s-17 -51 -51 -51h-434c-32.667 0 -49 11.333 -49 34c0 20.667 13.333 50.667 40 90c21.333 32.667 69.666 87 144.999 163
l45 43l73 71c26.667 26 41.334 40.667 44.001 44c21.333 24 38 50 50 78s18 55.333 18 82c0 36.667 -13 66.667 -39 90s-59.333 35 -100 35c-39.333 0 -75 -11.333 -107 -34c-32.667 -23.333 -49 -49.333 -49 -78c0 -6.66699 5.66699 -16 17 -28
c10.667 -12.667 16 -26.334 16 -41.001c0 -7.33301 -1.66699 -14.333 -5 -21c-1.33301 -7.33301 -5.66602 -14 -12.999 -20c-8.66699 -8 -19 -12 -31 -12c-20 0 -37 8.33301 -51 25c-13.333 17.333 -20 38.333 -20 63c0 55.333 25 102.666 75 141.999s110 59 180 59
c65.333 0 118.666 -18.333 159.999 -55c41.333 -36 62 -83 62 -141c0 -72.667 -38 -144 -114 -214c-146 -135.333 -237.333 -227.666 -274 -276.999c-2.66699 -4 -4 -7.66699 -4 -11c0 -5.33301 3 -10.333 9 -15c15.333 -10.667 60 -16 134 -16c60 0 103.333 4 130 12
c19.333 5.33301 43.333 15.333 72 30c6.66699 2.66699 13.334 4 20.001 4z" />
    <glyph glyph-name="threequarters" unicode="&#xbe;" horiz-adv-x="1568" 
d="M350 -205c-17.333 8 -26 19.333 -26 34c0 6.66699 1.66699 14 5 22l793 1706c8 17.333 19.667 26 35 26c6.66699 0 14 -1.66699 22 -5c17.333 -8 26 -19.333 26 -34c0 -6.66699 -1.66699 -14 -5 -22l-793 -1706c-8 -17.333 -19.667 -26 -35 -26
c-6.66699 0 -14 1.66699 -22 5zM1237 284l1 411c-130 -96.667 -224.333 -233.667 -283 -411h282zM1444 278c10.667 -3.33301 16 -13 16 -29c0 -14 -4 -23 -12 -27s-25 -6 -51 -6h-71v-172c0 -29.333 -15 -44 -45 -44c-29.333 0 -44 14.667 -44 44v172h-319
c-16 0 -27.333 2.66699 -34 8c-6 4.66699 -9 13 -9 25c0 22.667 6.66699 50 20 82c72 167.333 174.333 305 307 413c32 26 58.333 39.667 79 41c30 0 45 -14.667 45 -44v-457h49c36 0 59 -2 69 -6zM527 1015c32.667 -32.667 48.999 -75.3311 48.999 -127.998
c0 -66.667 -25 -121.334 -75 -164.001c-52 -44.667 -120.667 -67 -206 -67c-67.333 0 -122 14.333 -164 43s-63 66 -63 112c0 20 4.33301 36.333 13 49c6 8 13.333 13.667 22 17l2 1c6 2 11.667 3 17 3c32.667 0 49.667 -17 51 -51c0.666992 -47.333 11 -79.333 31 -96
c24.667 -21.333 55.667 -32 93 -32c52 0 94.667 16.333 128 49c32.667 32.667 49 75.667 49 129c0 54 -15.333 96 -46 126c-28 28.667 -64.333 43 -109 43h-62c-9.33301 0 -17.666 2.33301 -24.999 7c-6.66699 4.66699 -10 9.66699 -10 15c0 8.66699 4.66699 15.667 14 21
c8.66699 4.66699 24.667 8.66699 48 12c66 9.33301 112.333 31 139 65c17.333 23.333 26 53 26 89c0 40.667 -12 73.334 -36 98.001c-24.667 24.667 -57 37 -97 37c-30 0 -57.667 -8.33301 -83 -25c-14.667 -10 -22 -38.333 -22 -85c0 -10.667 -3.33301 -20.334 -10 -29.001
c-2 -4 -5.33301 -7.66699 -10 -11c-8.66699 -7.33301 -18.334 -11 -29.001 -11c-8.66699 0 -16.667 2 -24 6c-18.667 9.33301 -28 24.333 -28 45v8c0 40.667 21.333 75.667 64 105c42.667 30 93.334 45 152.001 45c63.333 0 116.333 -17.333 159 -52
c42 -34.667 63 -78.334 63 -131.001c0 -88 -58 -146 -174 -174c69.333 -14.667 120.333 -37.667 153 -69z" />
    <glyph glyph-name="questiondown" unicode="&#xbf;" horiz-adv-x="824" 
d="M105 -214c-70 72.667 -105 169.667 -105 291c-0 118 30.333 215 91 291c56.667 71.333 148.334 133 275.001 185c30 12.667 49.333 29 58 49c8 20.667 12 55 12 103v49c0 23.333 2.66699 40 8 50c7.33301 14.667 20.333 22 39 22c28 0 42 -32.667 42 -98v-93
c0 -74 -3.66699 -119.333 -11 -136c-6.66699 -16 -29.334 -34 -68.001 -54c-65.333 -31.333 -113 -57.666 -143 -78.999c-49.333 -34.667 -86 -74.334 -110 -119.001c-29.333 -53.333 -44 -118.333 -44 -195c0 -90 23.333 -161.333 70 -214c46 -52.667 109 -79 189 -79
c50.667 0 92 10.333 124 31c31.333 20.667 47 48 47 82l-6 80c0 26 8.66699 47 26 63c17.333 16.667 40 25 68 25c26.667 0 49.334 -8.33301 68.001 -25c18 -16.667 27 -37.667 27 -63c0 -75.333 -37 -140 -111 -194c-74.667 -54 -163.334 -81 -266.001 -81
c-116.667 0 -210 36.333 -280 109zM468 1022c-84 0 -126 35 -126 105s42 105 126 105s126 -35 126 -105s-42 -105 -126 -105z" />
    <glyph glyph-name="Agrave" unicode="&#xc0;" 
d="M837 613c-83.333 223.333 -169.333 428.667 -258 616c-52.667 -100.667 -108 -223 -166 -367c-33.333 -83.333 -65 -166.333 -95 -249h519zM1199 131.001c4.66699 -12 7 -24 7 -36c0 -63.333 -31.667 -95 -95 -95c-44.667 0 -74.334 21.333 -89.001 64
c-34.667 119.333 -83 265 -145 437h-598c-64.667 -189.333 -107.334 -336.333 -128.001 -441c-8 -40 -32.333 -60 -73 -60c-50.667 0 -76 25.333 -76 76l3 21l60 201c30.667 88.667 68.334 190.667 113.001 306c54.667 146 108 277.667 160 395l80 181
c38.667 84.667 71.334 149.334 98.001 194.001c36 60.667 63.667 91 83 91c34.667 0 73.667 -44 117 -132c186.667 -380.667 347.667 -781.334 483 -1202zM606 1550c8.66699 -13.333 13 -24 13 -32c0 -4.66699 -1.33301 -8.66699 -4 -12c-6.66699 -7.33301 -15 -11 -25 -11
c-13.333 0 -29 7.33301 -47 22c-4 3.33301 -91 71.333 -261 204c-50.667 36 -76 68.333 -76 97c0 16 7.66699 31 23 45c10 8.66699 42 13 96 13c40 0 133.667 -108.667 281 -326z" />
    <glyph glyph-name="Aacute" unicode="&#xc1;" 
d="M837 613c-83.333 223.333 -169.333 428.667 -258 616c-52.667 -100.667 -108 -223 -166 -367c-33.333 -83.333 -65 -166.333 -95 -249h519zM1199 131.001c4.66699 -12 7 -24 7 -36c0 -63.333 -31.667 -95 -95 -95c-44.667 0 -74.334 21.333 -89.001 64
c-34.667 119.333 -83 265 -145 437h-598c-64.667 -189.333 -107.334 -336.333 -128.001 -441c-8 -40 -32.333 -60 -73 -60c-50.667 0 -76 25.333 -76 76l3 21l60 201c30.667 88.667 68.334 190.667 113.001 306c54.667 146 108 277.667 160 395l80 181
c38.667 84.667 71.334 149.334 98.001 194.001c36 60.667 63.667 91 83 91c34.667 0 73.667 -44 117 -132c186.667 -380.667 347.667 -781.334 483 -1202zM579 1550c147.333 217.333 240.999 326 280.999 326c54.667 0 87 -4.33301 97 -13c15.333 -14 23 -29 23 -45
c0 -28.667 -25.333 -61 -76 -97c-170 -132.667 -257 -200.667 -261 -204c-18 -14.667 -34 -22 -48 -22c-9.33301 0 -17.666 3.66699 -24.999 11c-2.66699 3.33301 -4 7.33301 -4 12c0 8 4.33301 18.667 13 32z" />
    <glyph glyph-name="Acircumflex" unicode="&#xc2;" 
d="M927 1550c9.33301 -12.667 14 -23.334 14 -32.001c0 -4.66699 -1.66699 -8.66699 -5 -12c-7.33301 -7.33301 -16 -11 -26 -11c-14 0 -30.333 7.33301 -49 22c-3.33301 2.66699 -88 66.667 -254 192c-166.667 -125.333 -251.667 -189.333 -255 -192
c-18.667 -14.667 -35 -22 -49 -22c-10 0 -18.667 3.66699 -26 11c-3.33301 3.33301 -5 7.33301 -5 12c0 8.66699 4.66699 19.334 14 32.001c150.667 214 244.667 322.667 282 326h77c37.333 -3.33301 131.333 -112 282 -326zM837 613
c-83.333 223.333 -169.333 428.667 -258 616c-52.667 -100.667 -108 -223 -166 -367c-33.333 -83.333 -65 -166.333 -95 -249h519zM1199 131.001c4.66699 -12 7 -24 7 -36c0 -63.333 -31.667 -95 -95 -95c-44.667 0 -74.334 21.333 -89.001 64
c-34.667 119.333 -83 265 -145 437h-598c-64.667 -189.333 -107.334 -336.333 -128.001 -441c-8 -40 -32.333 -60 -73 -60c-50.667 0 -76 25.333 -76 76l3 21l60 201c30.667 88.667 68.334 190.667 113.001 306c54.667 146 108 277.667 160 395l80 181
c38.667 84.667 71.334 149.334 98.001 194.001c36 60.667 63.667 91 83 91c34.667 0 73.667 -44 117 -132c186.667 -380.667 347.667 -781.334 483 -1202z" />
    <glyph glyph-name="Atilde" unicode="&#xc3;" 
d="M837 613c-83.333 223.333 -169.333 428.667 -258 616c-52.667 -100.667 -108 -223 -166 -367c-33.333 -83.333 -65 -166.333 -95 -249h519zM1199 131.001c4.66699 -12 7 -24 7 -36c0 -63.333 -31.667 -95 -95 -95c-44.667 0 -74.334 21.333 -89.001 64
c-34.667 119.333 -83 265 -145 437h-598c-64.667 -189.333 -107.334 -336.333 -128.001 -441c-8 -40 -32.333 -60 -73 -60c-50.667 0 -76 25.333 -76 76l3 21l60 201c30.667 88.667 68.334 190.667 113.001 306c54.667 146 108 277.667 160 395l80 181
c38.667 84.667 71.334 149.334 98.001 194.001c36 60.667 63.667 91 83 91c34.667 0 73.667 -44 117 -132c186.667 -380.667 347.667 -781.334 483 -1202zM356 1524c-10 -19.333 -20.668 -28.998 -32.001 -28.998c-3.33301 0 -6.66602 1 -9.99902 3
c-11.333 5.33301 -17 13.666 -17 24.999c0 2 0.333008 4.33301 1 7l2 10c19.333 66.667 40 114.667 62 144c33.333 44 79 66 137 66h3c21.333 0 57 -6.33301 107 -19l51 -13l53 -12c18.667 -4 30.334 -6 35.001 -6c24 0 43.667 6.66699 59 20
c4.66699 4.66699 18.334 28.667 41.001 72c10 19.333 20.667 29 32 29c3.33301 0 6.66602 -1 9.99902 -3c12 -5.33301 18 -14 18 -26c0 -2 -0.333008 -4.33301 -1 -7l-3 -9c-18.667 -66.667 -39.334 -114.667 -62.001 -144c-33.333 -44.667 -79 -67 -137 -67h-3
c-21.333 0 -56.666 6.33301 -105.999 19c-6 1.33301 -23.333 6 -52 14l-53 11c-18 4 -29.667 6.33301 -35 7c-24 0 -43.667 -7 -59 -21c-4.66699 -4.66699 -18.334 -28.334 -41.001 -71.001z" />
    <glyph glyph-name="Adieresis" unicode="&#xc4;" 
d="M837 613c-83.333 223.333 -169.333 428.667 -258 616c-52.667 -100.667 -108 -223 -166 -367c-33.333 -83.333 -65 -166.333 -95 -249h519zM1199 131.001c4.66699 -12 7 -24 7 -36c0 -63.333 -31.667 -95 -95 -95c-44.667 0 -74.334 21.333 -89.001 64
c-34.667 119.333 -83 265 -145 437h-598c-64.667 -189.333 -107.334 -336.333 -128.001 -441c-8 -40 -32.333 -60 -73 -60c-50.667 0 -76 25.333 -76 76l3 21l60 201c30.667 88.667 68.334 190.667 113.001 306c54.667 146 108 277.667 160 395l80 181
c38.667 84.667 71.334 149.334 98.001 194.001c36 60.667 63.667 91 83 91c34.667 0 73.667 -44 117 -132c186.667 -380.667 347.667 -781.334 483 -1202zM415 1582c-78 0 -117 31.667 -117 95c0 64 39 96 117 96c77.333 0 116 -32 116 -96c0 -63.333 -38.667 -95 -116 -95z
M777 1582c-78 0 -117 31.667 -117 95c0 64 39 96 117 96c77.333 0 116 -32 116 -96c0 -63.333 -38.667 -95 -116 -95z" />
    <glyph glyph-name="Aring" unicode="&#xc5;" 
d="M837 613c-83.333 223.333 -169.333 428.667 -258 616c-52.667 -100.667 -108 -223 -166 -367c-33.333 -83.333 -65 -166.333 -95 -249h519zM505 1524c0 -30 10.167 -54 30.5 -72s42.833 -27 67.5 -27s47.167 9 67.5 27s30.5 42 30.5 72c0 28.667 -10.333 52 -31 70
s-43 27 -67 27s-46.333 -9 -67 -27s-31 -41.333 -31 -70zM705 1354c4 -6.66699 7.66895 -13.666 11.002 -20.999c186.667 -380.667 347.667 -781.334 483 -1202c4.66699 -12 7 -24 7 -36c0 -63.333 -31.667 -95 -95 -95c-44.667 0 -74.334 21.333 -89.001 64
c-34.667 119.333 -83 265 -145 437h-598c-64.667 -189.333 -107.334 -336.333 -128.001 -441c-8 -40 -32.333 -60 -73 -60c-50.667 0 -76 25.333 -76 76l3 21l60 201c30.667 88.667 68.334 190.667 113.001 306c54.667 146 108 277.667 160 395l80 181
c33.333 72 62 129.667 86 173c-16 8.66699 -30.333 20 -43 34c-37.333 38.667 -56 84.334 -56 137.001c0 52 18.5 97.333 55.5 136s84.5 58 142.5 58c59.333 0 107.666 -19.5 144.999 -58.5s56 -84.167 56 -135.5c0 -52.667 -18.667 -98.334 -56 -137.001
c-12.667 -13.333 -27 -24.333 -43 -33z" />
    <glyph glyph-name="AE" unicode="&#xc6;" horiz-adv-x="1933" 
d="M914 1323c-22 0 -59.667 -32.999 -113 -98.999c-34.667 -42.667 -80 -105.334 -136 -188.001l-127 -195h376v482zM1813 186.001c62 0 93.001 -30.999 93.001 -92.999s-31 -93 -93 -93h-811c-58 0 -87 29.333 -87 88l-3 622l-419 1
c-22.667 -0.666992 -39.667 -10.334 -51 -29.001c-87.333 -140.667 -191.666 -355 -312.999 -643c-11.333 -26 -32 -39 -62 -39c-43.333 0 -65 21.667 -65 65c0 8.66699 1.66699 17.334 5 26.001c183.333 473.333 416.666 878 699.999 1214
c39.333 47.333 74 80.666 104 99.999c26.667 18 59.667 27 99 27l835 3c64 0 96 -32 96 -96s-32 -96 -96 -96c-13.333 0 -26 2.66699 -38 8c-54.667 28.667 -100.334 48 -137.001 58c-50 13.333 -131.667 20 -245 20h-236v-489h575c39.333 0 59 -19.667 59 -59
s-19.667 -59 -59 -59h-575v-460c2.66699 -58 12 -96.333 28 -115c18.667 -22 61 -33 127 -33h212c142.667 0 248.667 21 318 63c12.667 6 25.667 9 39 9z" />
    <glyph glyph-name="Ccedilla" unicode="&#xc7;" horiz-adv-x="1269" 
d="M646 -15l0.00195312 -92.0029c23.333 4.66699 44.666 7 63.999 7c50 0 90 -14 120 -42c29.333 -27.333 44 -64.333 44 -111c0 -50 -17 -90.333 -51 -121c-33.333 -30.667 -77 -48 -131 -52c-6.66699 -0.666992 -13.334 -1 -20.001 -1c-24 0 -49.333 3 -76 9
c-62.667 12.667 -130.334 36.334 -203.001 71.001c-18 8.66699 -27 20.667 -27 36c0 6 1.33301 12.333 4 19c6 15.333 15.333 23 28 23c7.33301 0 15.333 -2.33301 24 -7c44 -22 87 -39.333 129 -52c34.667 -10 68 -15 100 -15c30.667 0 54.667 7.33301 72 22
c16.667 14.667 25 35.334 25 62.001c0 27.333 -8.66699 49 -26 65c-18 16 -42.667 24 -74 24c-14 0 -23.667 -0.333008 -29 -1h-5c-19.333 0 -29.333 11.333 -30 34v126c-168.667 17.333 -305.667 85.333 -411 204c-116 130.667 -174 300 -174 508
c0 217.333 67 396.333 201 537c134.667 141.333 306.334 212 515.001 212c81.333 0 169.333 -13.667 264 -41c80 -23.333 132.333 -45.666 157 -66.999c25.333 -18.667 38 -43.667 38 -75c0 -62 -31 -93 -93 -93c-25.333 0 -47 9 -65 27c-46 43.333 -84.667 74 -116 92
c-66.667 37.333 -139.334 56 -218.001 56c-138.667 0 -254.334 -59.667 -347.001 -179c-92 -120 -138 -270.333 -138 -451c0 -184 46.333 -332 139 -444c93.333 -112.667 216 -169 368 -169c71.333 0 140.333 13.333 207 40c66.667 26 120 61.667 160 107
c20.667 32 37.334 55.333 50.001 70c22 28 43.667 42 65 42c10.667 0 21.334 -6 32.001 -18s16 -24 16 -36c0 -41.333 -24 -86.666 -72 -135.999c-51.333 -52.667 -117.333 -96.334 -198 -131.001c-92 -39.333 -189 -59 -291 -59h-27z" />
    <glyph glyph-name="Egrave" unicode="&#xc8;" horiz-adv-x="1103" 
d="M981 186c63.333 0 95.001 -31 95.001 -93s-31.667 -93 -95 -93h-831c-59.333 0 -89 29 -89 87l-1 1261c0 58 29.667 87 89 87h762c65.333 0 98 -32 98 -96s-32.667 -96 -98 -96c-13.333 0 -26.333 2.66699 -39 8c-56 28.667 -103 48 -141 58
c-50.667 13.333 -134.334 20 -251.001 20c-78 0 -139.667 -3 -185 -9c-5.33301 -2.66699 -10 -5.33398 -14 -8.00098c-24.667 -17.333 -38.667 -52.666 -42 -105.999v-366h589c40 0 60 -19.667 60 -59s-20 -59 -60 -59h-589l1 -460c2 -58.667 11.333 -97 28 -115
c18.667 -22 62 -33 130 -33h217c146 0 254.333 21 325 63c13.333 6 27 9 41 9zM576.001 1550c8.66699 -13.333 13 -24 13 -32c0 -4.66699 -1.33301 -8.66699 -4 -12c-6.66699 -7.33301 -15 -11 -25 -11c-13.333 0 -29 7.33301 -47 22c-4 3.33301 -91 71.333 -261 204
c-50.667 36 -76 68.333 -76 97c0 16 7.66699 31 23 45c10 8.66699 42 13 96 13c40 0 133.667 -108.667 281 -326z" />
    <glyph glyph-name="Eacute" unicode="&#xc9;" horiz-adv-x="1103" 
d="M981 186c63.333 0 95.001 -31 95.001 -93s-31.667 -93 -95 -93h-831c-59.333 0 -89 29 -89 87l-1 1261c0 58 29.667 87 89 87h762c65.333 0 98 -32 98 -96s-32.667 -96 -98 -96c-13.333 0 -26.333 2.66699 -39 8c-56 28.667 -103 48 -141 58
c-50.667 13.333 -134.334 20 -251.001 20c-78 0 -139.667 -3 -185 -9c-5.33301 -2.66699 -10 -5.33398 -14 -8.00098c-24.667 -17.333 -38.667 -52.666 -42 -105.999v-366h589c40 0 60 -19.667 60 -59s-20 -59 -60 -59h-589l1 -460c2 -58.667 11.333 -97 28 -115
c18.667 -22 62 -33 130 -33h217c146 0 254.333 21 325 63c13.333 6 27 9 41 9zM519.001 1550c147.333 217.333 240.999 326 280.999 326c54.667 0 87 -4.33301 97 -13c15.333 -14 23 -29 23 -45c0 -28.667 -25.333 -61 -76 -97c-170 -132.667 -257 -200.667 -261 -204
c-18 -14.667 -34 -22 -48 -22c-9.33301 0 -17.666 3.66699 -24.999 11c-2.66699 3.33301 -4 7.33301 -4 12c0 8 4.33301 18.667 13 32z" />
    <glyph glyph-name="Ecircumflex" unicode="&#xca;" horiz-adv-x="1103" 
d="M981 186c63.333 0 95.001 -31 95.001 -93s-31.667 -93 -95 -93h-831c-59.333 0 -89 29 -89 87l-1 1261c0 58 29.667 87 89 87h762c65.333 0 98 -32 98 -96s-32.667 -96 -98 -96c-13.333 0 -26.333 2.66699 -39 8c-56 28.667 -103 48 -141 58
c-50.667 13.333 -134.334 20 -251.001 20c-78 0 -139.667 -3 -185 -9c-5.33301 -2.66699 -10 -5.33398 -14 -8.00098c-24.667 -17.333 -38.667 -52.666 -42 -105.999v-366h589c40 0 60 -19.667 60 -59s-20 -59 -60 -59h-589l1 -460c2 -58.667 11.333 -97 28 -115
c18.667 -22 62 -33 130 -33h217c146 0 254.333 21 325 63c13.333 6 27 9 41 9zM897.001 1550c9.33301 -12.667 14 -23.334 14 -32.001c0 -4.66699 -1.66699 -8.66699 -5 -12c-7.33301 -7.33301 -16 -11 -26 -11c-14 0 -30.333 7.33301 -49 22
c-3.33301 2.66699 -88 66.667 -254 192c-166.667 -125.333 -251.667 -189.333 -255 -192c-18.667 -14.667 -35 -22 -49 -22c-10 0 -18.667 3.66699 -26 11c-3.33301 3.33301 -5 7.33301 -5 12c0 8.66699 4.66699 19.334 14 32.001c150.667 214 244.667 322.667 282 326h77
c37.333 -3.33301 131.333 -112 282 -326z" />
    <glyph glyph-name="Edieresis" unicode="&#xcb;" horiz-adv-x="1086" 
d="M966 187c62 0 92.998 -31 92.998 -93c0 -62.667 -31 -94 -93 -94h-817c-58.667 -0 -88 29.333 -88 88l-1 1268c0 58.667 29.333 88 88 88h749c64 0 96 -32.333 96 -97s-32 -97 -96 -97c-13.333 0 -26 2.66699 -38 8c-55.333 28.667 -101.666 48.334 -138.999 59.001
c-50 13.333 -132.333 20 -247 20c-76.667 0 -137.334 -3.33301 -182.001 -10c-5.33301 -2 -9.66602 -4.33301 -12.999 -7c-24.667 -17.333 -38.667 -53 -42 -107v-368h579c40 0 60 -19.667 60 -59c0 -40 -20 -60 -60 -60h-579l1 -463c2 -58.667 11 -97.334 27 -116.001
c18.667 -22 61.334 -33 128.001 -33h214c143.333 0 250 21.333 320 64c12.667 6 26 9 40 9zM344.998 1582c-78 0 -117 31.667 -117 95c0 64 39 96 117 96c77.333 0 116 -32 116 -96c0 -63.333 -38.667 -95 -116 -95zM706.998 1582c-78 0 -117 31.667 -117 95
c0 64 39 96 117 96c77.333 0 116 -32 116 -96c0 -63.333 -38.667 -95 -116 -95z" />
    <glyph glyph-name="Igrave" unicode="&#xcc;" horiz-adv-x="654" 
d="M447 1450c56.667 0 85 -29.667 85 -89v-1299h-1c-6.66699 -51.333 -34.667 -77 -84 -77c-56.667 0 -85 29.667 -85 89v1287c0 59.333 28.333 89 85 89zM460 1550c8.66699 -13.333 13 -24 13 -32c0 -4.66699 -1.33301 -8.66699 -4 -12c-6.66699 -7.33301 -15 -11 -25 -11
c-13.333 0 -29 7.33301 -47 22c-4 3.33301 -91 71.333 -261 204c-50.667 36 -76 68.333 -76 97c0 16 7.66699 31 23 45c10 8.66699 42 13 96 13c40 0 133.667 -108.667 281 -326z" />
    <glyph glyph-name="Iacute" unicode="&#xcd;" horiz-adv-x="655" 
d="M145 1450c56.667 0 85 -29.667 85 -89v-1299h-1c-6.66699 -51.333 -34.667 -77 -84 -77c-56.667 0 -85 29.667 -85 89v1287c0 59.333 28.333 89 85 89zM132 1550c147.333 217.333 240.999 326 280.999 326c54.667 0 87 -4.33301 97 -13c15.333 -14 23 -29 23 -45
c0 -28.667 -25.333 -61 -76 -97c-170 -132.667 -257 -200.667 -261 -204c-18 -14.667 -34 -22 -48 -22c-9.33301 0 -17.666 3.66699 -24.999 11c-2.66699 3.33301 -4 7.33301 -4 12c0 8 4.33301 18.667 13 32z" />
    <glyph glyph-name="Icircumflex" unicode="&#xce;" horiz-adv-x="851" 
d="M390 1450c56.667 0 85 -29.667 85 -89v-1299h-1c-6.66699 -51.333 -34.667 -77 -84 -77c-56.667 0 -85 29.667 -85 89v1287c0 59.333 28.333 89 85 89zM715 1550c9.33301 -12.667 14 -23.334 14 -32.001c0 -4.66699 -1.66699 -8.66699 -5 -12
c-7.33301 -7.33301 -16 -11 -26 -11c-14 0 -30.333 7.33301 -49 22c-3.33301 2.66699 -88 66.667 -254 192c-166.667 -125.333 -251.667 -189.333 -255 -192c-18.667 -14.667 -35 -22 -49 -22c-10 0 -18.667 3.66699 -26 11c-3.33301 3.33301 -5 7.33301 -5 12
c0 8.66699 4.66699 19.334 14 32.001c150.667 214 244.667 322.667 282 326h77c37.333 -3.33301 131.333 -112 282 -326z" />
    <glyph glyph-name="Idieresis" unicode="&#xcf;" horiz-adv-x="777" 
d="M367 1450c56.667 0 85 -29.667 85 -89v-1299h-1c-6.66699 -51.333 -34.667 -77 -84 -77c-56.667 0 -85 29.667 -85 89v1287c0 59.333 28.333 89 85 89zM177 1582c-78 0 -117 31.667 -117 95c0 64 39 96 117 96c77.333 0 116 -32 116 -96c0 -63.333 -38.667 -95 -116 -95z
M539 1582c-78 0 -117 31.667 -117 95c0 64 39 96 117 96c77.333 0 116 -32 116 -96c0 -63.333 -38.667 -95 -116 -95z" />
    <glyph glyph-name="Eth" unicode="&#xd0;" horiz-adv-x="1674" 
d="M1168 237c122 108.667 183.002 268.333 183.002 479c0 114.667 -16 213 -48 295c-39.333 100 -102 177.333 -188 232c-100 62 -231.333 93 -394 93c-72.667 0 -119 -12.667 -139 -38c-22 -28.667 -34 -93 -36 -193v-318h308c46 0 69 -23.333 69 -70
c0 -46 -23 -69 -69 -69h-308v-379c2 -68 15.667 -113.333 41 -136c27.333 -24 83.666 -36 168.999 -36c169.333 0 306.666 46.667 411.999 140zM1346 1240c137.333 -130 206 -309.668 206 -539.001c0 -222 -74 -395.333 -222 -520
c-142.667 -120.667 -335.334 -181 -578.001 -181h-292c-58 0 -87 29 -87 87v561h-304c-46 0 -69 23 -69 69c0 46.667 23 70 69 70h304v561c0 54.667 27.333 83.334 82 86.001l325 1c240.667 0 429.334 -65 566.001 -195z" />
    <glyph glyph-name="Ntilde" unicode="&#xd1;" horiz-adv-x="1305" 
d="M1175 76c-0.666992 -5.33301 -2.33301 -11 -5 -17c-14.667 -38.667 -42.667 -58 -84 -58c-30.667 0 -55 12.667 -73 38l-828 1129l-1 -1013v-103c-5.33301 -34.667 -25.333 -52 -60 -52c-40.667 -0 -61 20.333 -61 61v1284c0 60 30 90 90 90c22.667 0 42.667 -8 60 -24
l7 -6c6 -6.66699 9.66699 -11 11 -13l823 -1124v1106c0 40.667 20.333 61 61 61s61 -20.333 61 -61zM379.001 1524c-10 -19.333 -20.668 -28.998 -32.001 -28.998c-3.33301 0 -6.66602 1 -9.99902 3c-11.333 5.33301 -17 13.666 -17 24.999c0 2 0.333008 4.33301 1 7l2 10
c19.333 66.667 40 114.667 62 144c33.333 44 79 66 137 66h3c21.333 0 57 -6.33301 107 -19l51 -13l53 -12c18.667 -4 30.334 -6 35.001 -6c24 0 43.667 6.66699 59 20c4.66699 4.66699 18.334 28.667 41.001 72c10 19.333 20.667 29 32 29c3.33301 0 6.66602 -1 9.99902 -3
c12 -5.33301 18 -14 18 -26c0 -2 -0.333008 -4.33301 -1 -7l-3 -9c-18.667 -66.667 -39.334 -114.667 -62.001 -144c-33.333 -44.667 -79 -67 -137 -67h-3c-21.333 0 -56.666 6.33301 -105.999 19c-6 1.33301 -23.333 6 -52 14l-53 11c-18 4 -29.667 6.33301 -35 7
c-24 0 -43.667 -7 -59 -21c-4.66699 -4.66699 -18.334 -28.334 -41.001 -71.001z" />
    <glyph glyph-name="Ograve" unicode="&#xd2;" horiz-adv-x="1433" 
d="M1030 282c74 110.667 111.001 255.667 111.001 435c0 192 -42.667 344.333 -128 457c-86 113.333 -201.667 170 -347 170c-114 0 -209 -31.667 -285 -95c-68 -56.667 -118.667 -134.667 -152 -234c-30 -88.667 -45 -188 -45 -298c0 -188 43.333 -339 130 -453
c86 -114 200.333 -171 343 -171c163.333 0 287.666 63 372.999 189zM1147 1246c126.667 -136 190.001 -312.331 190.001 -528.998c0 -214.667 -63 -390.334 -189 -527.001s-288 -205 -486 -205c-196.667 0 -358.334 68.667 -485.001 206s-190 312.666 -190 525.999
c0 214 62.667 389.667 188 527s286 206 482 206c200 0 363.333 -68 490 -204zM678.002 1550c8.66699 -13.333 13 -24 13 -32c0 -4.66699 -1.33301 -8.66699 -4 -12c-6.66699 -7.33301 -15 -11 -25 -11c-13.333 0 -29 7.33301 -47 22c-4 3.33301 -91 71.333 -261 204
c-50.667 36 -76 68.333 -76 97c0 16 7.66699 31 23 45c10 8.66699 42 13 96 13c40 0 133.667 -108.667 281 -326z" />
    <glyph glyph-name="Oacute" unicode="&#xd3;" horiz-adv-x="1433" 
d="M1030 282c74 110.667 111.001 255.667 111.001 435c0 192 -42.667 344.333 -128 457c-86 113.333 -201.667 170 -347 170c-114 0 -209 -31.667 -285 -95c-68 -56.667 -118.667 -134.667 -152 -234c-30 -88.667 -45 -188 -45 -298c0 -188 43.333 -339 130 -453
c86 -114 200.333 -171 343 -171c163.333 0 287.666 63 372.999 189zM1147 1246c126.667 -136 190.001 -312.331 190.001 -528.998c0 -214.667 -63 -390.334 -189 -527.001s-288 -205 -486 -205c-196.667 0 -358.334 68.667 -485.001 206s-190 312.666 -190 525.999
c0 214 62.667 389.667 188 527s286 206 482 206c200 0 363.333 -68 490 -204zM631.002 1550c147.333 217.333 240.999 326 280.999 326c54.667 0 87 -4.33301 97 -13c15.333 -14 23 -29 23 -45c0 -28.667 -25.333 -61 -76 -97c-170 -132.667 -257 -200.667 -261 -204
c-18 -14.667 -34 -22 -48 -22c-9.33301 0 -17.666 3.66699 -24.999 11c-2.66699 3.33301 -4 7.33301 -4 12c0 8 4.33301 18.667 13 32z" />
    <glyph glyph-name="Ocircumflex" unicode="&#xd4;" horiz-adv-x="1433" 
d="M988 1550c9.33301 -12.667 14 -23.334 14 -32.001c0 -4.66699 -1.66699 -8.66699 -5 -12c-7.33301 -7.33301 -16 -11 -26 -11c-14 0 -30.333 7.33301 -49 22c-3.33301 2.66699 -88 66.667 -254 192c-166.667 -125.333 -251.667 -189.333 -255 -192
c-18.667 -14.667 -35 -22 -49 -22c-10 0 -18.667 3.66699 -26 11c-3.33301 3.33301 -5 7.33301 -5 12c0 8.66699 4.66699 19.334 14 32.001c150.667 214 244.667 322.667 282 326h77c37.333 -3.33301 131.333 -112 282 -326zM1030 282
c74 110.667 111.001 255.667 111.001 435c0 192 -42.667 344.333 -128 457c-86 113.333 -201.667 170 -347 170c-114 0 -209 -31.667 -285 -95c-68 -56.667 -118.667 -134.667 -152 -234c-30 -88.667 -45 -188 -45 -298c0 -188 43.333 -339 130 -453
c86 -114 200.333 -171 343 -171c163.333 0 287.666 63 372.999 189zM1147 1246c126.667 -136 190.001 -312.331 190.001 -528.998c0 -214.667 -63 -390.334 -189 -527.001s-288 -205 -486 -205c-196.667 0 -358.334 68.667 -485.001 206s-190 312.666 -190 525.999
c0 214 62.667 389.667 188 527s286 206 482 206c200 0 363.333 -68 490 -204z" />
    <glyph glyph-name="Otilde" unicode="&#xd5;" horiz-adv-x="1433" 
d="M415 1524c-10 -19.333 -20.668 -28.998 -32.001 -28.998c-3.33301 0 -6.66602 1 -9.99902 3c-11.333 5.33301 -17 13.666 -17 24.999c0 2 0.333008 4.33301 1 7l2 10c19.333 66.667 40 114.667 62 144c33.333 44 79 66 137 66h3c21.333 0 57 -6.33301 107 -19l51 -13
l53 -12c18.667 -4 30.334 -6 35.001 -6c24 0 43.667 6.66699 59 20c4.66699 4.66699 18.334 28.667 41.001 72c10 19.333 20.667 29 32 29c3.33301 0 6.66602 -1 9.99902 -3c12 -5.33301 18 -14 18 -26c0 -2 -0.333008 -4.33301 -1 -7l-3 -9
c-18.667 -66.667 -39.334 -114.667 -62.001 -144c-33.333 -44.667 -79 -67 -137 -67h-3c-21.333 0 -56.666 6.33301 -105.999 19c-6 1.33301 -23.333 6 -52 14l-53 11c-18 4 -29.667 6.33301 -35 7c-24 0 -43.667 -7 -59 -21
c-4.66699 -4.66699 -18.334 -28.334 -41.001 -71.001zM1030 282.002c74 110.667 111.001 255.667 111.001 435c0 192 -42.667 344.333 -128 457c-86 113.333 -201.667 170 -347 170c-114 0 -209 -31.667 -285 -95c-68 -56.667 -118.667 -134.667 -152 -234
c-30 -88.667 -45 -188 -45 -298c0 -188 43.333 -339 130 -453c86 -114 200.333 -171 343 -171c163.333 0 287.666 63 372.999 189zM1147 1246c126.667 -136 190.001 -312.331 190.001 -528.998c0 -214.667 -63 -390.334 -189 -527.001s-288 -205 -486 -205
c-196.667 0 -358.334 68.667 -485.001 206s-190 312.666 -190 525.999c0 214 62.667 389.667 188 527s286 206 482 206c200 0 363.333 -68 490 -204z" />
    <glyph glyph-name="Odieresis" unicode="&#xd6;" horiz-adv-x="1433" 
d="M1030 282c74 110.667 111.001 255.667 111.001 435c0 192 -42.667 344.333 -128 457c-86 113.333 -201.667 170 -347 170c-114 0 -209 -31.667 -285 -95c-68 -56.667 -118.667 -134.667 -152 -234c-30 -88.667 -45 -188 -45 -298c0 -188 43.333 -339 130 -453
c86 -114 200.333 -171 343 -171c163.333 0 287.666 63 372.999 189zM1147 1246c126.667 -136 190.001 -312.331 190.001 -528.998c0 -214.667 -63 -390.334 -189 -527.001s-288 -205 -486 -205c-196.667 0 -358.334 68.667 -485.001 206s-190 312.666 -190 525.999
c0 214 62.667 389.667 188 527s286 206 482 206c200 0 363.333 -68 490 -204zM475.002 1582c-78 0 -117 31.667 -117 95c0 64 39 96 117 96c77.333 0 116 -32 116 -96c0 -63.333 -38.667 -95 -116 -95zM837.002 1582c-78 0 -117 31.667 -117 95c0 64 39 96 117 96
c77.333 0 116 -32 116 -96c0 -63.333 -38.667 -95 -116 -95z" />
    <glyph glyph-name="multiply" unicode="&#xd7;" horiz-adv-x="1192" 
d="M869 1092c16.667 17.333 33.334 26 50.001 26c17.333 0 34.333 -8.66699 51 -26c17.333 -16.667 26 -33.334 26 -50.001s-8.66699 -33.667 -26 -51l-273 -273l273 -273c17.333 -16.667 26 -33.334 26 -50.001s-8.66699 -33.667 -26 -51
c-16.667 -16.667 -33.667 -25 -51 -25c-16.667 0 -33.334 8.33301 -50.001 25l-273 273l-273 -273c-16.667 -16.667 -33.667 -25 -51 -25c-16.667 0 -33.334 8.33301 -50.001 25c-16.667 17.333 -25 34.333 -25 51s8.33301 33.334 25 50.001l273 273l-273 273
c-16.667 17.333 -25 34.333 -25 51s8.33301 33.334 25 50.001c16.667 17.333 33.334 26 50.001 26c17.333 0 34.333 -8.66699 51 -26l273 -273z" />
    <glyph glyph-name="Oslash" unicode="&#xd8;" horiz-adv-x="1433" 
d="M982 1374c60.667 -32 115.666 -74.665 164.999 -127.998c126.667 -136 190 -312.333 190 -529c0 -214.667 -63 -390.334 -189 -527.001s-288 -205 -486 -205c-109.333 0 -208 21.333 -296 64l-92 -198c-8 -17.333 -19.667 -26 -35 -26c-6.66699 0 -14 1.66699 -22 5
c-17.333 8 -26 19.333 -26 34c0 6.66699 1.66699 14 5 22l96 206c-41.333 27.333 -79.666 60.333 -114.999 99c-126.667 137.333 -190 312.666 -190 525.999c0 214 62.667 389.667 188 527s286 206 482 206c90 0 172.333 -13.667 247 -41l85 183c8 17.333 19.667 26 35 26
c6.66699 0 14 -1.66699 22 -5c17.333 -8 26 -19.333 26 -34c0 -6.66699 -1.66699 -14 -5 -22zM350.999 220.002l504 1085c-56 26 -119 39 -189 39c-114 0 -209 -31.667 -285 -95c-68 -56.667 -118.667 -134.667 -152 -234c-30 -88.667 -45 -188 -45 -298
c0 -188 43.333 -339 130 -453c12 -16 24.333 -30.667 37 -44zM928.999 1260l-509.999 -1098c68 -46 147.333 -69 238 -69c163.333 0 287.666 63 372.999 189c74 110.667 111 255.667 111 435c0 192 -42.667 344.333 -128 457c-25.333 33.333 -53.333 62 -84 86z" />
    <glyph glyph-name="Ugrave" unicode="&#xd9;" horiz-adv-x="1271" 
d="M1082 1435c40 0 60.0029 -19.998 60.0029 -59.998v-824c0 -164.667 -43 -298.334 -129 -401.001c-92 -110 -235 -165 -429 -165c-200.667 0 -344.334 59 -431.001 177c-70 96 -107.333 238.667 -112 428l-1 758c0 57.333 28 86 84 86c56.667 0 85 -28.667 85 -86v-783
c6.66699 -108.667 25 -197.334 55 -266.001c34 -76.667 83 -131 147 -163c50 -25.333 112.333 -38 187 -38c79.333 0 145 11.333 197 34c65.333 28.667 115.666 75.667 150.999 141c49.333 94 74.666 197 75.999 309v793c0 40 20 60 60 60zM747.003 1550
c8.66699 -13.333 13 -24 13 -32c0 -4.66699 -1.33301 -8.66699 -4 -12c-6.66699 -7.33301 -15 -11 -25 -11c-13.333 0 -29 7.33301 -47 22c-4 3.33301 -91 71.333 -261 204c-50.667 36 -76 68.333 -76 97c0 16 7.66699 31 23 45c10 8.66699 42 13 96 13
c40 0 133.667 -108.667 281 -326z" />
    <glyph glyph-name="Uacute" unicode="&#xda;" horiz-adv-x="1271" 
d="M1082 1435c40 0 60.0029 -19.998 60.0029 -59.998v-824c0 -164.667 -43 -298.334 -129 -401.001c-92 -110 -235 -165 -429 -165c-200.667 0 -344.334 59 -431.001 177c-70 96 -107.333 238.667 -112 428l-1 758c0 57.333 28 86 84 86c56.667 0 85 -28.667 85 -86v-783
c6.66699 -108.667 25 -197.334 55 -266.001c34 -76.667 83 -131 147 -163c50 -25.333 112.333 -38 187 -38c79.333 0 145 11.333 197 34c65.333 28.667 115.666 75.667 150.999 141c49.333 94 74.666 197 75.999 309v793c0 40 20 60 60 60zM414.003 1550
c147.333 217.333 240.999 326 280.999 326c54.667 0 87 -4.33301 97 -13c15.333 -14 23 -29 23 -45c0 -28.667 -25.333 -61 -76 -97c-170 -132.667 -257 -200.667 -261 -204c-18 -14.667 -34 -22 -48 -22c-9.33301 0 -17.666 3.66699 -24.999 11
c-2.66699 3.33301 -4 7.33301 -4 12c0 8 4.33301 18.667 13 32z" />
    <glyph glyph-name="Ucircumflex" unicode="&#xdb;" horiz-adv-x="1271" 
d="M1082 1435c40 0 60.0029 -19.998 60.0029 -59.998v-824c0 -164.667 -43 -298.334 -129 -401.001c-92 -110 -235 -165 -429 -165c-200.667 0 -344.334 59 -431.001 177c-70 96 -107.333 238.667 -112 428l-1 758c0 57.333 28 86 84 86c56.667 0 85 -28.667 85 -86v-783
c6.66699 -108.667 25 -197.334 55 -266.001c34 -76.667 83 -131 147 -163c50 -25.333 112.333 -38 187 -38c79.333 0 145 11.333 197 34c65.333 28.667 115.666 75.667 150.999 141c49.333 94 74.666 197 75.999 309v793c0 40 20 60 60 60zM927.003 1550
c9.33301 -12.667 14 -23.334 14 -32.001c0 -4.66699 -1.66699 -8.66699 -5 -12c-7.33301 -7.33301 -16 -11 -26 -11c-14 0 -30.333 7.33301 -49 22c-3.33301 2.66699 -88 66.667 -254 192c-166.667 -125.333 -251.667 -189.333 -255 -192c-18.667 -14.667 -35 -22 -49 -22
c-10 0 -18.667 3.66699 -26 11c-3.33301 3.33301 -5 7.33301 -5 12c0 8.66699 4.66699 19.334 14 32.001c150.667 214 244.667 322.667 282 326h77c37.333 -3.33301 131.333 -112 282 -326z" />
    <glyph glyph-name="Udieresis" unicode="&#xdc;" horiz-adv-x="1271" 
d="M1082 1435c40 0 60.0029 -19.998 60.0029 -59.998v-824c0 -164.667 -43 -298.334 -129 -401.001c-92 -110 -235 -165 -429 -165c-200.667 0 -344.334 59 -431.001 177c-70 96 -107.333 238.667 -112 428l-1 758c0 57.333 28 86 84 86c56.667 0 85 -28.667 85 -86v-783
c6.66699 -108.667 25 -197.334 55 -266.001c34 -76.667 83 -131 147 -163c50 -25.333 112.333 -38 187 -38c79.333 0 145 11.333 197 34c65.333 28.667 115.666 75.667 150.999 141c49.333 94 74.666 197 75.999 309v793c0 40 20 60 60 60zM415.003 1582
c-78 0 -117 31.667 -117 95c0 64 39 96 117 96c77.333 0 116 -32 116 -96c0 -63.333 -38.667 -95 -116 -95zM777.003 1582c-78 0 -117 31.667 -117 95c0 64 39 96 117 96c77.333 0 116 -32 116 -96c0 -63.333 -38.667 -95 -116 -95z" />
    <glyph glyph-name="Yacute" unicode="&#xdd;" horiz-adv-x="1112" 
d="M1099 1351c-42 -112.667 -122.669 -259 -242.002 -439l-41 -62l-181 -260l-1 -515c-7.33301 -50 -35.666 -75 -84.999 -75c-57.333 0 -86 29 -86 87v445c0 18 -17 54.333 -51 109c-18.667 30 -59.334 90.667 -122.001 182c-66 96 -115.667 171.667 -149 227
c-62 101.333 -96 157.333 -102 168l-37 75l-4 7c-4.66699 12 -7 24.333 -7 37c0 65.333 32 98 96 98c46.667 0 77.334 -22.333 92.001 -67l3 -12c24 -84.667 64.667 -175 122 -271c3.33301 -5.33301 19.333 -29 48 -71l109 -155c50 -70 90 -122.667 120 -158
c204.667 240 340.667 470.333 408 691c8.66699 28.667 27.334 43 56.001 43c39.333 0 59 -20 59 -60c0 -6 -1 -12.333 -3 -19zM551.998 1550c147.333 217.333 240.999 326 280.999 326c54.667 0 87 -4.33301 97 -13c15.333 -14 23 -29 23 -45c0 -28.667 -25.333 -61 -76 -97
c-170 -132.667 -257 -200.667 -261 -204c-18 -14.667 -34 -22 -48 -22c-9.33301 0 -17.666 3.66699 -24.999 11c-2.66699 3.33301 -4 7.33301 -4 12c0 8 4.33301 18.667 13 32z" />
    <glyph glyph-name="Thorn" unicode="&#xde;" horiz-adv-x="1077" 
d="M728 551c89.333 66 134 153.667 134 263c0 87.333 -36 156.333 -108 207c-71.333 51.333 -169 77 -293 77c-108.667 0 -183.667 -8 -225 -24v-643c220 0 384 40 492 120zM912 1103c96.667 -62.667 144.999 -162.001 144.999 -298.001
c0 -145.333 -60.333 -259.666 -181 -342.999c-140 -96 -353.333 -144 -640 -144v-213c0 -70 -29 -105 -87 -105c-58.667 0 -88 35 -88 105v1243c0 58 29.333 87 88 87c58 0 87 -29 87 -87v-151h230c200.667 0 349.334 -31.333 446.001 -94z" />
    <glyph glyph-name="germandbls" unicode="&#xdf;" horiz-adv-x="1080" 
d="M911 640c76.667 -72 115 -158.334 115 -259.001c0 -182 -83.667 -301 -251 -357c-47.333 -16 -93 -24 -137 -24c-101.333 0 -194.666 42.667 -279.999 128c-16.667 16.667 -25 32.334 -25 47.001c0 9.33301 3.66699 18.333 11 27c9.33301 11.333 19.666 17 30.999 17
c10.667 0 22.334 -4.66699 35.001 -14c68 -48.667 134 -73 198 -73c36 0 71.333 7.66699 106 23c87.333 39.333 131 111 131 215v2c-2 210.667 -118 316.334 -348 317.001c-32.667 2 -50.334 20.667 -53.001 56v8c0 31.333 17.667 52.333 53 63
c70.667 24 106 95.333 106 214c0 24.667 -1.66699 51.667 -5 81c-16 146.667 -88.667 220 -218 220c-38.667 0 -70.334 -7 -95.001 -21c-35.333 -20.667 -53 -72 -53 -154v-1077c-6.66699 -50 -35 -75 -85 -75c-58 0 -87 28.667 -87 86v1100c0 163.333 107 245 321 245
c243.333 0 380 -95.333 410 -286c5.33301 -32.667 8 -63 8 -91c0 -142.667 -62.333 -239.334 -187 -290.001c122.667 -14 222.334 -56.667 299.001 -128z" />
    <glyph glyph-name="agrave" unicode="&#xe0;" horiz-adv-x="1043" 
d="M648 179c77.333 57.333 115.999 148.667 115.999 274l-4 143c-185.333 0 -322.333 -28.333 -411 -85c-76 -49.333 -114 -118 -114 -206c0 -54.667 19.333 -99.667 58 -135c38 -34.667 87.667 -52 149 -52c82.667 0 151.334 20.333 206.001 61zM813.999 905.001
c75.333 -80 112.998 -208.333 112.998 -385v-416c0 -51.333 -25.667 -77 -77 -77l-17 2c-45.333 6.66699 -68.333 33 -69 79v71c-51.333 -57.333 -102.333 -99.666 -153 -126.999c-66 -34.667 -141.333 -52 -226 -52c-96 0 -176.333 27.667 -241 83
c-64 56 -96 125.333 -96 208c0 128.667 50.667 225 152 289c112.667 72 292.334 108 539.001 108c-11.333 71.333 -42.666 127.666 -93.999 168.999c-50.667 42 -115 63 -193 63c-30 0 -55.333 -3.66699 -76 -11c-21.333 -6.66699 -53.666 -22 -96.999 -46
c-36 -19.333 -60 -31.333 -72 -36s-25.333 -7 -40 -7c-16.667 0 -29 2.33301 -37 7c-15.333 8.66699 -23 25 -23 49c0 46 30.333 82.333 91 109s142.667 40 246 40c171.333 0 294.666 -40 369.999 -120zM511.997 1140c8.66699 -13.333 13 -24 13 -32
c0 -4.66699 -1.33301 -8.66699 -4 -12c-6.66699 -7.33301 -15 -11 -25 -11c-13.333 0 -29 7.33301 -47 22c-4 3.33301 -91 71.333 -261 204c-50.667 36 -76 68.333 -76 97c0 16 7.66699 31 23 45c10 8.66699 42 13 96 13c40 0 133.667 -108.667 281 -326z" />
    <glyph glyph-name="aacute" unicode="&#xe1;" horiz-adv-x="1043" 
d="M648 179c77.333 57.333 115.999 148.667 115.999 274l-4 143c-185.333 0 -322.333 -28.333 -411 -85c-76 -49.333 -114 -118 -114 -206c0 -54.667 19.333 -99.667 58 -135c38 -34.667 87.667 -52 149 -52c82.667 0 151.334 20.333 206.001 61zM813.999 905.001
c75.333 -80 112.998 -208.333 112.998 -385v-416c0 -51.333 -25.667 -77 -77 -77l-17 2c-45.333 6.66699 -68.333 33 -69 79v71c-51.333 -57.333 -102.333 -99.666 -153 -126.999c-66 -34.667 -141.333 -52 -226 -52c-96 0 -176.333 27.667 -241 83
c-64 56 -96 125.333 -96 208c0 128.667 50.667 225 152 289c112.667 72 292.334 108 539.001 108c-11.333 71.333 -42.666 127.666 -93.999 168.999c-50.667 42 -115 63 -193 63c-30 0 -55.333 -3.66699 -76 -11c-21.333 -6.66699 -53.666 -22 -96.999 -46
c-36 -19.333 -60 -31.333 -72 -36s-25.333 -7 -40 -7c-16.667 0 -29 2.33301 -37 7c-15.333 8.66699 -23 25 -23 49c0 46 30.333 82.333 91 109s142.667 40 246 40c171.333 0 294.666 -40 369.999 -120zM480.997 1140c147.333 217.333 240.999 326 280.999 326
c54.667 0 87 -4.33301 97 -13c15.333 -14 23 -29 23 -45c0 -28.667 -25.333 -61 -76 -97c-170 -132.667 -257 -200.667 -261 -204c-18 -14.667 -34 -22 -48 -22c-9.33301 0 -17.666 3.66699 -24.999 11c-2.66699 3.33301 -4 7.33301 -4 12c0 8 4.33301 18.667 13 32z" />
    <glyph glyph-name="acircumflex" unicode="&#xe2;" horiz-adv-x="1043" 
d="M648 179c77.333 57.333 115.999 148.667 115.999 274l-4 143c-185.333 0 -322.333 -28.333 -411 -85c-76 -49.333 -114 -118 -114 -206c0 -54.667 19.333 -99.667 58 -135c38 -34.667 87.667 -52 149 -52c82.667 0 151.334 20.333 206.001 61zM813.999 905.001
c75.333 -80 112.998 -208.333 112.998 -385v-416c0 -51.333 -25.667 -77 -77 -77l-17 2c-45.333 6.66699 -68.333 33 -69 79v71c-51.333 -57.333 -102.333 -99.666 -153 -126.999c-66 -34.667 -141.333 -52 -226 -52c-96 0 -176.333 27.667 -241 83
c-64 56 -96 125.333 -96 208c0 128.667 50.667 225 152 289c112.667 72 292.334 108 539.001 108c-11.333 71.333 -42.666 127.666 -93.999 168.999c-50.667 42 -115 63 -193 63c-30 0 -55.333 -3.66699 -76 -11c-21.333 -6.66699 -53.666 -22 -96.999 -46
c-36 -19.333 -60 -31.333 -72 -36s-25.333 -7 -40 -7c-16.667 0 -29 2.33301 -37 7c-15.333 8.66699 -23 25 -23 49c0 46 30.333 82.333 91 109s142.667 40 246 40c171.333 0 294.666 -40 369.999 -120zM809.997 1140c9.33301 -12.667 14 -23.334 14 -32.001
c0 -4.66699 -1.66699 -8.66699 -5 -12c-7.33301 -7.33301 -16 -11 -26 -11c-14 0 -30.333 7.33301 -49 22c-3.33301 2.66699 -88 66.667 -254 192c-166.667 -125.333 -251.667 -189.333 -255 -192c-18.667 -14.667 -35 -22 -49 -22c-10 0 -18.667 3.66699 -26 11
c-3.33301 3.33301 -5 7.33301 -5 12c0 8.66699 4.66699 19.334 14 32.001c150.667 214 244.667 322.667 282 326h77c37.333 -3.33301 131.333 -112 282 -326z" />
    <glyph glyph-name="atilde" unicode="&#xe3;" horiz-adv-x="1043" 
d="M648 179c77.333 57.333 115.999 148.667 115.999 274l-4 143c-185.333 0 -322.333 -28.333 -411 -85c-76 -49.333 -114 -118 -114 -206c0 -54.667 19.333 -99.667 58 -135c38 -34.667 87.667 -52 149 -52c82.667 0 151.334 20.333 206.001 61zM813.999 905.001
c75.333 -80 112.998 -208.333 112.998 -385v-416c0 -51.333 -25.667 -77 -77 -77l-17 2c-45.333 6.66699 -68.333 33 -69 79v71c-51.333 -57.333 -102.333 -99.666 -153 -126.999c-66 -34.667 -141.333 -52 -226 -52c-96 0 -176.333 27.667 -241 83
c-64 56 -96 125.333 -96 208c0 128.667 50.667 225 152 289c112.667 72 292.334 108 539.001 108c-11.333 71.333 -42.666 127.666 -93.999 168.999c-50.667 42 -115 63 -193 63c-30 0 -55.333 -3.66699 -76 -11c-21.333 -6.66699 -53.666 -22 -96.999 -46
c-36 -19.333 -60 -31.333 -72 -36s-25.333 -7 -40 -7c-16.667 0 -29 2.33301 -37 7c-15.333 8.66699 -23 25 -23 49c0 46 30.333 82.333 91 109s142.667 40 246 40c171.333 0 294.666 -40 369.999 -120zM237.997 1114c-10 -19.333 -20.668 -28.998 -32.001 -28.998
c-3.33301 0 -6.66602 1 -9.99902 3c-11.333 5.33301 -17 13.666 -17 24.999c0 2 0.333008 4.33301 1 7l2 10c19.333 66.667 40 114.667 62 144c33.333 44 79 66 137 66h3c21.333 0 57 -6.33301 107 -19l51 -13l53 -12c18.667 -4 30.334 -6 35.001 -6
c24 0 43.667 6.66699 59 20c4.66699 4.66699 18.334 28.667 41.001 72c10 19.333 20.667 29 32 29c3.33301 0 6.66602 -1 9.99902 -3c12 -5.33301 18 -14 18 -26c0 -2 -0.333008 -4.33301 -1 -7l-3 -9c-18.667 -66.667 -39.334 -114.667 -62.001 -144
c-33.333 -44.667 -79 -67 -137 -67h-3c-21.333 0 -56.666 6.33301 -105.999 19c-6 1.33301 -23.333 6 -52 14l-53 11c-18 4 -29.667 6.33301 -35 7c-24 0 -43.667 -7 -59 -21c-4.66699 -4.66699 -18.334 -28.334 -41.001 -71.001z" />
    <glyph glyph-name="adieresis" unicode="&#xe4;" horiz-adv-x="1043" 
d="M648 179c77.333 57.333 115.999 148.667 115.999 274l-4 143c-185.333 0 -322.333 -28.333 -411 -85c-76 -49.333 -114 -118 -114 -206c0 -54.667 19.333 -99.667 58 -135c38 -34.667 87.667 -52 149 -52c82.667 0 151.334 20.333 206.001 61zM813.999 905.001
c75.333 -80 112.998 -208.333 112.998 -385v-416c0 -51.333 -25.667 -77 -77 -77l-17 2c-45.333 6.66699 -68.333 33 -69 79v71c-51.333 -57.333 -102.333 -99.666 -153 -126.999c-66 -34.667 -141.333 -52 -226 -52c-96 0 -176.333 27.667 -241 83
c-64 56 -96 125.333 -96 208c0 128.667 50.667 225 152 289c112.667 72 292.334 108 539.001 108c-11.333 71.333 -42.666 127.666 -93.999 168.999c-50.667 42 -115 63 -193 63c-30 0 -55.333 -3.66699 -76 -11c-21.333 -6.66699 -53.666 -22 -96.999 -46
c-36 -19.333 -60 -31.333 -72 -36s-25.333 -7 -40 -7c-16.667 0 -29 2.33301 -37 7c-15.333 8.66699 -23 25 -23 49c0 46 30.333 82.333 91 109s142.667 40 246 40c171.333 0 294.666 -40 369.999 -120zM306.997 1172c-78 0 -117 31.667 -117 95c0 64 39 96 117 96
c77.333 0 116 -32 116 -96c0 -63.333 -38.667 -95 -116 -95zM668.997 1172c-78 0 -117 31.667 -117 95c0 64 39 96 117 96c77.333 0 116 -32 116 -96c0 -63.333 -38.667 -95 -116 -95z" />
    <glyph glyph-name="aring" unicode="&#xe5;" horiz-adv-x="1043" 
d="M648 179c77.333 57.333 115.999 148.667 115.999 274l-4 143c-185.333 0 -322.333 -28.333 -411 -85c-76 -49.333 -114 -118 -114 -206c0 -54.667 19.333 -99.667 58 -135c38 -34.667 87.667 -52 149 -52c82.667 0 151.334 20.333 206.001 61zM813.999 905.001
c75.333 -80 112.998 -208.333 112.998 -385v-416c0 -51.333 -25.667 -77 -77 -77l-17 2c-45.333 6.66699 -68.333 33 -69 79v71c-51.333 -57.333 -102.333 -99.666 -153 -126.999c-66 -34.667 -141.333 -52 -226 -52c-96 0 -176.333 27.667 -241 83
c-64 56 -96 125.333 -96 208c0 128.667 50.667 225 152 289c112.667 72 292.334 108 539.001 108c-11.333 71.333 -42.666 127.666 -93.999 168.999c-50.667 42 -115 63 -193 63c-30 0 -55.333 -3.66699 -76 -11c-21.333 -6.66699 -53.666 -22 -96.999 -46
c-36 -19.333 -60 -31.333 -72 -36s-25.333 -7 -40 -7c-16.667 0 -29 2.33301 -37 7c-15.333 8.66699 -23 25 -23 49c0 46 30.333 82.333 91 109s142.667 40 246 40c171.333 0 294.666 -40 369.999 -120zM384.997 1274c0 -30 10.167 -54 30.5 -72s42.833 -27 67.5 -27
s47.167 9 67.5 27s30.5 42 30.5 72c0 28.667 -10.333 52 -31 70s-43 27 -67 27s-46.333 -9 -67 -27s-31 -41.333 -31 -70zM284.997 1274c0 52 18.5 97.333 55.5 136s84.5 58 142.5 58c59.333 0 107.666 -19.5 144.999 -58.5s56 -84.167 56 -135.5
c0 -52.667 -18.667 -98.334 -56 -137.001s-85.666 -58 -144.999 -58c-58 0 -105.5 19.333 -142.5 58s-55.5 84.334 -55.5 137.001z" />
    <glyph glyph-name="ae" unicode="&#xe6;" horiz-adv-x="1700" 
d="M1031 836c-58.667 -60.667 -97.334 -149.333 -116.001 -266c48.667 -4.66699 87 -8 115 -10l78 -2c101.333 0 183 19.333 245 58c62.667 39.333 94 91.333 94 156c0 46 -17.667 83.667 -53 113c-35.333 28.667 -80.666 43 -135.999 43c-93.333 0 -169 -30.667 -227 -92z
M734 493.001l-94.002 18.998l-32 6l-20 2c-42 4 -71.667 6 -89 6c-81.333 0 -148.666 -21.667 -201.999 -65c-52.667 -43.333 -79 -98.666 -79 -165.999c0 -52 19.333 -94 58 -126s89.334 -48 152.001 -48c32.667 0 68 5.33301 106 16c37.333 10.667 67 23.334 89 38.001
c36 26.667 63.667 65 83 115c18.667 50.667 28 110.667 28 180v23zM1621 264.999c5.33301 -8.66699 8.00293 -16.6699 8.00293 -24.0029c0 -21.333 -11.667 -47.333 -35 -78c-24 -30 -53 -56.333 -87 -79c-36.667 -26 -82 -46.667 -136 -62
c-53.333 -14.667 -107.333 -22 -162 -22c-74 0 -142.667 15.667 -206 47c-36 16.667 -66.333 35.334 -91 56.001c-24.667 20 -56.667 53 -96 99c-16.667 -20 -28.667 -33.667 -36 -41c-11.333 -12 -21.666 -22.333 -30.999 -31
c-47.333 -45.333 -100.333 -78.666 -159 -99.999c-22.667 -8 -51.334 -15 -86.001 -21c-35.333 -6 -65 -9 -89 -9c-107.333 0 -195.333 28.667 -264 86c-68.667 56.667 -103 129.334 -103 218.001c0 74.667 29.333 143 88 205c58 62 128 100.333 210 115
c28 4.66699 63 7 105 7c47.333 0 103.333 -3 168 -9c17.333 -2 51.666 -7.66699 102.999 -17c0 96.667 -24.667 172.334 -74 227.001c-48.667 54 -115.667 81.667 -201 83c-46 0 -101.333 -17.333 -166 -52c-36 -19.333 -60 -31.333 -72 -36s-25 -7 -39 -7
c-16.667 0 -29 2.33301 -37 7c-14.667 8 -22 24 -22 48c0 45.333 30 81 90 107c52.667 22.667 122.667 35.334 210 38.001l36 1c38 0 78 -4.66699 120 -14s80.333 -22.333 115 -39c35.333 -16 66 -37.333 92 -64c16 -15.333 28 -28.666 36 -39.999
c8.66699 -11.333 20.667 -31 36 -59l27 40c29.333 32 61.666 61.667 96.999 89c41.333 28 86.666 50.333 135.999 67c49.333 16 99 24 149 24c105.333 0 192 -25.333 260 -76s102 -115.334 102 -194.001c0 -98.667 -44 -172.334 -132 -221.001
c-88.667 -48.667 -224 -73 -406 -73h-160c0 -100.667 30.333 -181.334 91 -242.001c60 -61.333 139 -92 237 -92c52 0 99.667 8.66699 143 26c44 18 87.333 46.667 130 86l23 21c13.333 12.667 28 19 44 19l22 -6z" />
    <glyph glyph-name="ccedilla" unicode="&#xe7;" horiz-adv-x="981" 
d="M457 -6c-106 12 -196.329 56.9971 -270.996 134.997c-88.667 92.667 -133 209.667 -133 351c0 156.667 48 288.334 144 395.001c96.667 106.667 216.334 160 359.001 160c88.667 0 165.667 -19.333 231 -58c64.667 -38.667 97 -84.334 97 -137.001
c0 -23.333 -8.66699 -43.333 -26 -60s-38 -25 -62 -25c-32 0 -59.333 14 -82 42c-28.667 40.667 -47.667 65.667 -57 75c-30 32.667 -68.333 49 -115 49c-78 0 -141 -23.667 -189 -71c-40.667 -40.667 -70.334 -96.667 -89.001 -168c-14.667 -58 -22 -122.667 -22 -194
c0 -107.333 28.667 -195.666 86 -264.999c58 -68.667 132.667 -103 224 -103c39.333 0 81 8 125 24c43.333 16 75.666 35 96.999 57l45 46c26 24 45 36 57 36l24 -3c12.667 -6.66699 19 -20 19 -40c0 -44.667 -36 -95 -108 -151c-84.667 -66 -181.667 -99 -291 -99h-1v-97
c23.333 4.66699 44.666 7 63.999 7c50 0 90 -14 120 -42c29.333 -27.333 44 -64.333 44 -111c0 -50 -17 -90.333 -51 -121c-33.333 -30.667 -77 -48 -131 -52c-6.66699 -0.666992 -13.334 -1 -20.001 -1c-24 0 -49.333 3 -76 9
c-62.667 12.667 -130.334 36.334 -203.001 71.001c-18 8.66699 -27 20.667 -27 36c0 6 1.33301 12.333 4 19c6 15.333 15.333 23 28 23c7.33301 0 15.333 -2.33301 24 -7c44 -22 87 -39.333 129 -52c34.667 -10 68 -15 100 -15c30.667 0 54.667 7.33301 72 22
c16.667 14.667 25 35.334 25 62.001c0 27.333 -8.66699 49 -26 65c-18 16 -42.667 24 -74 24c-14 0 -23.667 -0.333008 -29 -1h-5c-19.333 0 -29.333 11.333 -30 34v131z" />
    <glyph glyph-name="egrave" unicode="&#xe8;" horiz-adv-x="1049" 
d="M624 562c110.667 49.333 166 120.001 166 212.001c0 50 -18 90.333 -54 121s-84.667 46 -146 46c-117.333 0 -210.333 -54 -279 -162c-55.333 -86.667 -83 -181.334 -83 -284.001c165.333 0 297.333 22.333 396 67zM957 274.001
c8.66699 0 14.335 -2.99902 17.002 -8.99902c2.66699 -6.66699 4 -15.334 4 -26.001v-11c0 -46 -40 -95 -120 -147c-92.667 -60.667 -199.334 -91 -320.001 -91c-144.667 0 -262 43.667 -352 131c-89.333 87.333 -134 202 -134 344c0 164.667 54 301 162 409
c108 107.333 244.333 161 409 161c103.333 0 187.333 -24.333 252 -73s97 -112.667 97 -192c0 -56.667 -10.333 -101.334 -31 -134.001c-32.667 -51.333 -96.667 -95.666 -192 -132.999c-119.333 -48 -288 -86.667 -506 -116c0 -82 35 -147.667 105 -197
c63.333 -44.667 139.666 -67 228.999 -67c50.667 0 110 14.667 178 44l188 104zM512.001 1140c8.66699 -13.333 13 -24 13 -32c0 -4.66699 -1.33301 -8.66699 -4 -12c-6.66699 -7.33301 -15 -11 -25 -11c-13.333 0 -29 7.33301 -47 22c-4 3.33301 -91 71.333 -261 204
c-50.667 36 -76 68.333 -76 97c0 16 7.66699 31 23 45c10 8.66699 42 13 96 13c40 0 133.667 -108.667 281 -326z" />
    <glyph glyph-name="eacute" unicode="&#xe9;" horiz-adv-x="1049" 
d="M624 562c110.667 49.333 166 120.001 166 212.001c0 50 -18 90.333 -54 121s-84.667 46 -146 46c-117.333 0 -210.333 -54 -279 -162c-55.333 -86.667 -83 -181.334 -83 -284.001c165.333 0 297.333 22.333 396 67zM957 274.001
c8.66699 0 14.335 -2.99902 17.002 -8.99902c2.66699 -6.66699 4 -15.334 4 -26.001v-11c0 -46 -40 -95 -120 -147c-92.667 -60.667 -199.334 -91 -320.001 -91c-144.667 0 -262 43.667 -352 131c-89.333 87.333 -134 202 -134 344c0 164.667 54 301 162 409
c108 107.333 244.333 161 409 161c103.333 0 187.333 -24.333 252 -73s97 -112.667 97 -192c0 -56.667 -10.333 -101.334 -31 -134.001c-32.667 -51.333 -96.667 -95.666 -192 -132.999c-119.333 -48 -288 -86.667 -506 -116c0 -82 35 -147.667 105 -197
c63.333 -44.667 139.666 -67 228.999 -67c50.667 0 110 14.667 178 44l188 104zM504.001 1140c147.333 217.333 240.999 326 280.999 326c54.667 0 87 -4.33301 97 -13c15.333 -14 23 -29 23 -45c0 -28.667 -25.333 -61 -76 -97c-170 -132.667 -257 -200.667 -261 -204
c-18 -14.667 -34 -22 -48 -22c-9.33301 0 -17.666 3.66699 -24.999 11c-2.66699 3.33301 -4 7.33301 -4 12c0 8 4.33301 18.667 13 32z" />
    <glyph glyph-name="ecircumflex" unicode="&#xea;" horiz-adv-x="1049" 
d="M624 562c110.667 49.333 166 120.001 166 212.001c0 50 -18 90.333 -54 121s-84.667 46 -146 46c-117.333 0 -210.333 -54 -279 -162c-55.333 -86.667 -83 -181.334 -83 -284.001c165.333 0 297.333 22.333 396 67zM957 274.001
c8.66699 0 14.335 -2.99902 17.002 -8.99902c2.66699 -6.66699 4 -15.334 4 -26.001v-11c0 -46 -40 -95 -120 -147c-92.667 -60.667 -199.334 -91 -320.001 -91c-144.667 0 -262 43.667 -352 131c-89.333 87.333 -134 202 -134 344c0 164.667 54 301 162 409
c108 107.333 244.333 161 409 161c103.333 0 187.333 -24.333 252 -73s97 -112.667 97 -192c0 -56.667 -10.333 -101.334 -31 -134.001c-32.667 -51.333 -96.667 -95.666 -192 -132.999c-119.333 -48 -288 -86.667 -506 -116c0 -82 35 -147.667 105 -197
c63.333 -44.667 139.666 -67 228.999 -67c50.667 0 110 14.667 178 44l188 104zM830.001 1140c9.33301 -12.667 14 -23.334 14 -32.001c0 -4.66699 -1.66699 -8.66699 -5 -12c-7.33301 -7.33301 -16 -11 -26 -11c-14 0 -30.333 7.33301 -49 22
c-3.33301 2.66699 -88 66.667 -254 192c-166.667 -125.333 -251.667 -189.333 -255 -192c-18.667 -14.667 -35 -22 -49 -22c-10 0 -18.667 3.66699 -26 11c-3.33301 3.33301 -5 7.33301 -5 12c0 8.66699 4.66699 19.334 14 32.001c150.667 214 244.667 322.667 282 326h77
c37.333 -3.33301 131.333 -112 282 -326z" />
    <glyph glyph-name="edieresis" unicode="&#xeb;" horiz-adv-x="1049" 
d="M624 562c110.667 49.333 166 120.001 166 212.001c0 50 -18 90.333 -54 121s-84.667 46 -146 46c-117.333 0 -210.333 -54 -279 -162c-55.333 -86.667 -83 -181.334 -83 -284.001c165.333 0 297.333 22.333 396 67zM957 274.001
c8.66699 0 14.335 -2.99902 17.002 -8.99902c2.66699 -6.66699 4 -15.334 4 -26.001v-11c0 -46 -40 -95 -120 -147c-92.667 -60.667 -199.334 -91 -320.001 -91c-144.667 0 -262 43.667 -352 131c-89.333 87.333 -134 202 -134 344c0 164.667 54 301 162 409
c108 107.333 244.333 161 409 161c103.333 0 187.333 -24.333 252 -73s97 -112.667 97 -192c0 -56.667 -10.333 -101.334 -31 -134.001c-32.667 -51.333 -96.667 -95.666 -192 -132.999c-119.333 -48 -288 -86.667 -506 -116c0 -82 35 -147.667 105 -197
c63.333 -44.667 139.666 -67 228.999 -67c50.667 0 110 14.667 178 44l188 104zM337.001 1172c-78 0 -117 31.667 -117 95c0 64 39 96 117 96c77.333 0 116 -32 116 -96c0 -63.333 -38.667 -95 -116 -95zM699.001 1172c-78 0 -117 31.667 -117 95c0 64 39 96 117 96
c77.333 0 116 -32 116 -96c0 -63.333 -38.667 -95 -116 -95z" />
    <glyph glyph-name="igrave" unicode="&#xec;" horiz-adv-x="673" 
d="M582 84c0 -56 -27 -84 -81 -84s-81 28 -81 84v858c0.666992 56 27.667 84 81 84c54 0 81 -28 81 -84v-858zM500 1140c8.66699 -13.333 13 -24 13 -32c0 -4.66699 -1.33301 -8.66699 -4 -12c-6.66699 -7.33301 -15 -11 -25 -11c-13.333 0 -29 7.33301 -47 22
c-4 3.33301 -91 71.333 -261 204c-50.667 36 -76 68.333 -76 97c0 16 7.66699 31 23 45c10 8.66699 42 13 96 13c40 0 133.667 -108.667 281 -326z" />
    <glyph glyph-name="iacute" unicode="&#xed;" horiz-adv-x="653" 
d="M262 84c0 -56 -27 -84 -81 -84s-81 28 -81 84v858c0.666992 56 27.667 84 81 84c54 0 81 -28 81 -84v-858zM161 1140c147.333 217.333 240.999 326 280.999 326c54.667 0 87 -4.33301 97 -13c15.333 -14 23 -29 23 -45c0 -28.667 -25.333 -61 -76 -97
c-170 -132.667 -257 -200.667 -261 -204c-18 -14.667 -34 -22 -48 -22c-9.33301 0 -17.666 3.66699 -24.999 11c-2.66699 3.33301 -4 7.33301 -4 12c0 8 4.33301 18.667 13 32z" />
    <glyph glyph-name="icircumflex" unicode="&#xee;" horiz-adv-x="860" 
d="M508 84c0 -56 -27 -84 -81 -84s-81 28 -81 84v858c0.666992 56 27.667 84 81 84c54 0 81 -28 81 -84v-858zM755 1140c9.33301 -12.667 14 -23.334 14 -32.001c0 -4.66699 -1.66699 -8.66699 -5 -12c-7.33301 -7.33301 -16 -11 -26 -11c-14 0 -30.333 7.33301 -49 22
c-3.33301 2.66699 -88 66.667 -254 192c-166.667 -125.333 -251.667 -189.333 -255 -192c-18.667 -14.667 -35 -22 -49 -22c-10 0 -18.667 3.66699 -26 11c-3.33301 3.33301 -5 7.33301 -5 12c0 8.66699 4.66699 19.334 14 32.001c150.667 214 244.667 322.667 282 326h77
c37.333 -3.33301 131.333 -112 282 -326z" />
    <glyph glyph-name="idieresis" unicode="&#xef;" horiz-adv-x="786" 
d="M484 84c0 -56 -27 -84 -81 -84s-81 28 -81 84v858c0.666992 56 27.667 84 81 84c54 0 81 -28 81 -84v-858zM217 1172c-78 0 -117 31.667 -117 95c0 64 39 96 117 96c77.333 0 116 -32 116 -96c0 -63.333 -38.667 -95 -116 -95zM579 1172c-78 0 -117 31.667 -117 95
c0 64 39 96 117 96c77.333 0 116 -32 116 -96c0 -63.333 -38.667 -95 -116 -95z" />
    <glyph glyph-name="eth" unicode="&#xf0;" horiz-adv-x="1175" 
d="M841 225c55.333 80 82.999 174 82.999 282c0 103.333 -29.333 195 -88 275c-68 94 -160.667 141 -278 141c-85.333 0 -162.666 -35 -231.999 -105c-75.333 -77.333 -113 -173.333 -113 -288c0 -128.667 30 -231.667 90 -309c66 -87.333 162.333 -131 289 -131
c104 0 187 45 249 135zM961.999 143c-100.667 -102.667 -222.329 -154.003 -364.996 -154.003c-172.667 0 -307.667 40 -405 120c-109.333 88.667 -164 222 -164 400c0 148.667 51.333 273.334 154 374.001c102.667 100 228.667 150 378 150h6
c16 -0.666992 61.667 -9.33398 137 -26.001c-4 12.667 -21 38.334 -51 77.001c-32 40 -79 91.333 -141 154l-140 -70c-50 -24 -90.667 -40.667 -122 -50c-6 -2 -11.667 -3 -17 -3c-16.667 0 -29.667 10 -39 30c-2.66699 6 -4 11.667 -4 17
c0 12.667 8.33301 24.334 25 35.001c23.333 14.667 98.666 54.334 225.999 119.001c-18.667 18 -77.334 80.333 -176.001 187c-12.667 13.333 -19 26 -19 38c0 13.333 7 25.666 21 36.999c13.333 11.333 27.333 17 42 17c14 0 28.667 -5 44 -15
c18.667 -13.333 90.667 -81.666 216 -204.999l258 127c15.333 8 28.666 12 39.999 12c16 0 28.667 -7 38 -21c6.66699 -10 10 -19.667 10 -29c0 -14.667 -10 -27 -30 -37l-242 -122l141 -130c91.333 -89.333 163.666 -179.666 216.999 -270.999
c75.333 -128.667 113 -256.667 113 -384c0 -148.667 -50.333 -274.334 -151 -377.001z" />
    <glyph glyph-name="ntilde" unicode="&#xf1;" horiz-adv-x="1033" 
d="M830 909c58.667 -76.667 88 -189.333 88 -338l-1 -490c0 -54 -27 -81 -81 -81s-81 27 -81 81l-1 490c0 118 -20 203.333 -60 256c-36 47.333 -91.333 71 -166 71c-65.333 0 -121.333 -15 -168 -45c-64.667 -41.333 -98 -107 -100 -197v-575c0 -54 -27 -81 -81 -81
s-81 27 -81 81v863c0 54 27 81 81 81s81 -27 81 -81v-67c95.333 97.333 199.333 146 312 146c114 0 200 -38 258 -114zM268 1114c-10 -19.333 -20.668 -28.998 -32.001 -28.998c-3.33301 0 -6.66602 1 -9.99902 3c-11.333 5.33301 -17 13.666 -17 24.999
c0 2 0.333008 4.33301 1 7l2 10c19.333 66.667 40 114.667 62 144c33.333 44 79 66 137 66h3c21.333 0 57 -6.33301 107 -19l51 -13l53 -12c18.667 -4 30.334 -6 35.001 -6c24 0 43.667 6.66699 59 20c4.66699 4.66699 18.334 28.667 41.001 72c10 19.333 20.667 29 32 29
c3.33301 0 6.66602 -1 9.99902 -3c12 -5.33301 18 -14 18 -26c0 -2 -0.333008 -4.33301 -1 -7l-3 -9c-18.667 -66.667 -39.334 -114.667 -62.001 -144c-33.333 -44.667 -79 -67 -137 -67h-3c-21.333 0 -56.666 6.33301 -105.999 19c-6 1.33301 -23.333 6 -52 14l-53 11
c-18 4 -29.667 6.33301 -35 7c-24 0 -43.667 -7 -59 -21c-4.66699 -4.66699 -18.334 -28.334 -41.001 -71.001z" />
    <glyph glyph-name="ograve" unicode="&#xf2;" horiz-adv-x="1170" 
d="M822 215c64 75.333 96 174.332 96 296.999c0 120.667 -32 219.334 -96 296.001c-63.333 76 -145.333 114 -246 114c-100 0 -181.667 -38.333 -245 -115c-64 -76 -96 -174.333 -96 -295c0 -118 32 -216 96 -294c63.333 -78 143.333 -117 240 -117
c103.333 0 187 38 251 114zM951 887.999c98 -98 147 -224.333 147 -379c0 -150.667 -49 -275 -147 -373c-98 -97.333 -223 -146 -375 -146c-154 0 -279.667 48.667 -377 146c-97.333 98 -146 223.333 -146 376c0 153.333 48.333 279 145 377
c96.667 97.333 221.667 146 375 146c154.667 0 280.667 -49 378 -147zM594 1140c8.66699 -13.333 13 -24 13 -32c0 -4.66699 -1.33301 -8.66699 -4 -12c-6.66699 -7.33301 -15 -11 -25 -11c-13.333 0 -29 7.33301 -47 22c-4 3.33301 -91 71.333 -261 204
c-50.667 36 -76 68.333 -76 97c0 16 7.66699 31 23 45c10 8.66699 42 13 96 13c40 0 133.667 -108.667 281 -326z" />
    <glyph glyph-name="oacute" unicode="&#xf3;" horiz-adv-x="1170" 
d="M822 215c64 75.333 96 174.332 96 296.999c0 120.667 -32 219.334 -96 296.001c-63.333 76 -145.333 114 -246 114c-100 0 -181.667 -38.333 -245 -115c-64 -76 -96 -174.333 -96 -295c0 -118 32 -216 96 -294c63.333 -78 143.333 -117 240 -117
c103.333 0 187 38 251 114zM951 887.999c98 -98 147 -224.333 147 -379c0 -150.667 -49 -275 -147 -373c-98 -97.333 -223 -146 -375 -146c-154 0 -279.667 48.667 -377 146c-97.333 98 -146 223.333 -146 376c0 153.333 48.333 279 145 377
c96.667 97.333 221.667 146 375 146c154.667 0 280.667 -49 378 -147zM567 1140c147.333 217.333 240.999 326 280.999 326c54.667 0 87 -4.33301 97 -13c15.333 -14 23 -29 23 -45c0 -28.667 -25.333 -61 -76 -97c-170 -132.667 -257 -200.667 -261 -204
c-18 -14.667 -34 -22 -48 -22c-9.33301 0 -17.666 3.66699 -24.999 11c-2.66699 3.33301 -4 7.33301 -4 12c0 8 4.33301 18.667 13 32z" />
    <glyph glyph-name="ocircumflex" unicode="&#xf4;" horiz-adv-x="1170" 
d="M822 215c64 75.333 96 174.332 96 296.999c0 120.667 -32 219.334 -96 296.001c-63.333 76 -145.333 114 -246 114c-100 0 -181.667 -38.333 -245 -115c-64 -76 -96 -174.333 -96 -295c0 -118 32 -216 96 -294c63.333 -78 143.333 -117 240 -117
c103.333 0 187 38 251 114zM951 887.999c98 -98 147 -224.333 147 -379c0 -150.667 -49 -275 -147 -373c-98 -97.333 -223 -146 -375 -146c-154 0 -279.667 48.667 -377 146c-97.333 98 -146 223.333 -146 376c0 153.333 48.333 279 145 377
c96.667 97.333 221.667 146 375 146c154.667 0 280.667 -49 378 -147zM882 1140c9.33301 -12.667 14 -23.334 14 -32.001c0 -4.66699 -1.66699 -8.66699 -5 -12c-7.33301 -7.33301 -16 -11 -26 -11c-14 0 -30.333 7.33301 -49 22c-3.33301 2.66699 -88 66.667 -254 192
c-166.667 -125.333 -251.667 -189.333 -255 -192c-18.667 -14.667 -35 -22 -49 -22c-10 0 -18.667 3.66699 -26 11c-3.33301 3.33301 -5 7.33301 -5 12c0 8.66699 4.66699 19.334 14 32.001c150.667 214 244.667 322.667 282 326h77c37.333 -3.33301 131.333 -112 282 -326z
" />
    <glyph glyph-name="otilde" unicode="&#xf5;" horiz-adv-x="1170" 
d="M822 215c64 75.333 96 174.332 96 296.999c0 120.667 -32 219.334 -96 296.001c-63.333 76 -145.333 114 -246 114c-100 0 -181.667 -38.333 -245 -115c-64 -76 -96 -174.333 -96 -295c0 -118 32 -216 96 -294c63.333 -78 143.333 -117 240 -117
c103.333 0 187 38 251 114zM951 887.999c98 -98 147 -224.333 147 -379c0 -150.667 -49 -275 -147 -373c-98 -97.333 -223 -146 -375 -146c-154 0 -279.667 48.667 -377 146c-97.333 98 -146 223.333 -146 376c0 153.333 48.333 279 145 377
c96.667 97.333 221.667 146 375 146c154.667 0 280.667 -49 378 -147zM308 1114c-10 -19.333 -20.668 -28.998 -32.001 -28.998c-3.33301 0 -6.66602 1 -9.99902 3c-11.333 5.33301 -17 13.666 -17 24.999c0 2 0.333008 4.33301 1 7l2 10c19.333 66.667 40 114.667 62 144
c33.333 44 79 66 137 66h3c21.333 0 57 -6.33301 107 -19l51 -13l53 -12c18.667 -4 30.334 -6 35.001 -6c24 0 43.667 6.66699 59 20c4.66699 4.66699 18.334 28.667 41.001 72c10 19.333 20.667 29 32 29c3.33301 0 6.66602 -1 9.99902 -3c12 -5.33301 18 -14 18 -26
c0 -2 -0.333008 -4.33301 -1 -7l-3 -9c-18.667 -66.667 -39.334 -114.667 -62.001 -144c-33.333 -44.667 -79 -67 -137 -67h-3c-21.333 0 -56.666 6.33301 -105.999 19c-6 1.33301 -23.333 6 -52 14l-53 11c-18 4 -29.667 6.33301 -35 7c-24 0 -43.667 -7 -59 -21
c-4.66699 -4.66699 -18.334 -28.334 -41.001 -71.001z" />
    <glyph glyph-name="odieresis" unicode="&#xf6;" horiz-adv-x="1170" 
d="M822 215c64 75.333 96 174.332 96 296.999c0 120.667 -32 219.334 -96 296.001c-63.333 76 -145.333 114 -246 114c-100 0 -181.667 -38.333 -245 -115c-64 -76 -96 -174.333 -96 -295c0 -118 32 -216 96 -294c63.333 -78 143.333 -117 240 -117
c103.333 0 187 38 251 114zM951 887.999c98 -98 147 -224.333 147 -379c0 -150.667 -49 -275 -147 -373c-98 -97.333 -223 -146 -375 -146c-154 0 -279.667 48.667 -377 146c-97.333 98 -146 223.333 -146 376c0 153.333 48.333 279 145 377
c96.667 97.333 221.667 146 375 146c154.667 0 280.667 -49 378 -147zM377 1172c-78 0 -117 31.667 -117 95c0 64 39 96 117 96c77.333 0 116 -32 116 -96c0 -63.333 -38.667 -95 -116 -95zM739 1172c-78 0 -117 31.667 -117 95c0 64 39 96 117 96c77.333 0 116 -32 116 -96
c0 -63.333 -38.667 -95 -116 -95z" />
    <glyph glyph-name="divide" unicode="&#xf7;" horiz-adv-x="1108" 
d="M556 953c-78 0 -117 31.667 -117 95c0 64 39 96 117 96c77.333 0 116 -32 116 -96c0 -63.333 -38.667 -95 -116 -95zM556 263c-78 0 -117 31.667 -117 95c0 64 39 96 117 96c77.333 0 116 -32 116 -96c0 -63.333 -38.667 -95 -116 -95zM961 643h-809
c-45.333 0 -68 25.333 -68 76s22.667 76 68 76h809c45.333 0 68 -25.333 68 -76s-22.667 -76 -68 -76z" />
    <glyph glyph-name="oslash" unicode="&#xf8;" horiz-adv-x="1170" 
d="M828 978c45.333 -22.667 86.333 -52.667 123 -90c98 -98 147 -224.333 147 -379c0 -150.667 -49 -275 -147 -373c-98 -97.333 -223 -146 -375 -146c-70 0 -134.333 10 -193 30l-79 -169c-8 -17.333 -19.667 -26 -35 -26c-6.66699 0 -14 1.66699 -22 5
c-17.333 8 -26 19.333 -26 34c0 6.66699 1.66699 14 5 22l79 169c-38.667 22 -74 49 -106 81c-97.333 98 -146 223.333 -146 376c0 153.333 48.333 279 145 377c96.667 97.333 221.667 146 375 146c63.333 0 122 -8.33301 176 -25l90 195c8 17.333 19.667 26 35 26
c6.66699 0 14 -1.66699 22 -5c17.333 -8 26 -19.333 26 -34c0 -6.66699 -1.66699 -14 -5 -22zM364 182l333 718c-36.667 14.667 -77 22 -121 22c-100 0 -181.667 -38.333 -245 -115c-64 -76 -96 -174.333 -96 -295c0 -118 32 -216 96 -294
c10.667 -12.667 21.667 -24.667 33 -36zM772 857l-337 -725.001c40.667 -20.667 86 -31 136 -31c103.333 0 187 38 251 114c64 75.333 96 174.333 96 297c0 120.667 -32 219.334 -96 296.001c-15.333 18.667 -32 35 -50 49z" />
    <glyph glyph-name="ugrave" unicode="&#xf9;" horiz-adv-x="1036" 
d="M178 115c-58.667 76.667 -88 190 -88 340l1 488c0 54.667 27 82 81 82s81 -27.333 81 -82v-488c0.666992 -119.333 21 -205.333 61 -258c36.667 -47.333 92 -71 166 -71c65.333 0 121.333 15 168 45c64.667 41.333 98 107.333 100 198v574c0 54.667 27 82 81 82
s81 -27.333 81 -82v-833c0 -54 -27 -81 -81 -81s-81 27 -81 81v36c-95.333 -97.333 -199.333 -146 -312 -146c-114 -0 -200 38.333 -258 115zM512 1140c8.66699 -13.333 13 -24 13 -32c0 -4.66699 -1.33301 -8.66699 -4 -12c-6.66699 -7.33301 -15 -11 -25 -11
c-13.333 0 -29 7.33301 -47 22c-4 3.33301 -91 71.333 -261 204c-50.667 36 -76 68.333 -76 97c0 16 7.66699 31 23 45c10 8.66699 42 13 96 13c40 0 133.667 -108.667 281 -326z" />
    <glyph glyph-name="uacute" unicode="&#xfa;" horiz-adv-x="1036" 
d="M178 115c-58.667 76.667 -88 190 -88 340l1 488c0 54.667 27 82 81 82s81 -27.333 81 -82v-488c0.666992 -119.333 21 -205.333 61 -258c36.667 -47.333 92 -71 166 -71c65.333 0 121.333 15 168 45c64.667 41.333 98 107.333 100 198v574c0 54.667 27 82 81 82
s81 -27.333 81 -82v-833c0 -54 -27 -81 -81 -81s-81 27 -81 81v36c-95.333 -97.333 -199.333 -146 -312 -146c-114 -0 -200 38.333 -258 115zM481 1140c147.333 217.333 240.999 326 280.999 326c54.667 0 87 -4.33301 97 -13c15.333 -14 23 -29 23 -45
c0 -28.667 -25.333 -61 -76 -97c-170 -132.667 -257 -200.667 -261 -204c-18 -14.667 -34 -22 -48 -22c-9.33301 0 -17.666 3.66699 -24.999 11c-2.66699 3.33301 -4 7.33301 -4 12c0 8 4.33301 18.667 13 32z" />
    <glyph glyph-name="ucircumflex" unicode="&#xfb;" horiz-adv-x="1036" 
d="M178 115c-58.667 76.667 -88 190 -88 340l1 488c0 54.667 27 82 81 82s81 -27.333 81 -82v-488c0.666992 -119.333 21 -205.333 61 -258c36.667 -47.333 92 -71 166 -71c65.333 0 121.333 15 168 45c64.667 41.333 98 107.333 100 198v574c0 54.667 27 82 81 82
s81 -27.333 81 -82v-833c0 -54 -27 -81 -81 -81s-81 27 -81 81v36c-95.333 -97.333 -199.333 -146 -312 -146c-114 -0 -200 38.333 -258 115zM820 1140c9.33301 -12.667 14 -23.334 14 -32.001c0 -4.66699 -1.66699 -8.66699 -5 -12c-7.33301 -7.33301 -16 -11 -26 -11
c-14 0 -30.333 7.33301 -49 22c-3.33301 2.66699 -88 66.667 -254 192c-166.667 -125.333 -251.667 -189.333 -255 -192c-18.667 -14.667 -35 -22 -49 -22c-10 0 -18.667 3.66699 -26 11c-3.33301 3.33301 -5 7.33301 -5 12c0 8.66699 4.66699 19.334 14 32.001
c150.667 214 244.667 322.667 282 326h77c37.333 -3.33301 131.333 -112 282 -326z" />
    <glyph glyph-name="udieresis" unicode="&#xfc;" horiz-adv-x="1036" 
d="M178 115c-58.667 76.667 -88 190 -88 340l1 488c0 54.667 27 82 81 82s81 -27.333 81 -82v-488c0.666992 -119.333 21 -205.333 61 -258c36.667 -47.333 92 -71 166 -71c65.333 0 121.333 15 168 45c64.667 41.333 98 107.333 100 198v574c0 54.667 27 82 81 82
s81 -27.333 81 -82v-833c0 -54 -27 -81 -81 -81s-81 27 -81 81v36c-95.333 -97.333 -199.333 -146 -312 -146c-114 -0 -200 38.333 -258 115zM307 1172c-78 0 -117 31.667 -117 95c0 64 39 96 117 96c77.333 0 116 -32 116 -96c0 -63.333 -38.667 -95 -116 -95zM669 1172
c-78 0 -117 31.667 -117 95c0 64 39 96 117 96c77.333 0 116 -32 116 -96c0 -63.333 -38.667 -95 -116 -95z" />
    <glyph glyph-name="yacute" unicode="&#xfd;" horiz-adv-x="1062" 
d="M969 969c-4.66699 -342.667 -86.667 -664.332 -246 -964.999c-60.667 -128 -144 -235.667 -250 -323c-98.667 -81.333 -202.334 -122 -311.001 -122c-33.333 0 -61.333 9.33301 -84 28c-23.333 18 -35 40.333 -35 67c0 21.333 7.33301 37.666 22 48.999
c14 12 34.333 18 61 18c6 0 23.333 -1.33301 52 -4l59 -4c72 0 138.333 28.333 199 85c66 62 118.667 139 158 231c-25.333 -10 -47.333 -17.667 -66 -23c-19.333 -4.66699 -39.333 -7 -60 -7c-102 0 -183.333 57.667 -244 173c-78 146.667 -127.333 322.667 -148 528
l-5 251c2.66699 52 29.667 78 81 78c54 0 81 -27 81 -81c0 -198 13 -351.667 39 -461c22 -94.667 56.333 -179 103 -253c50.667 -81.333 106 -122 166 -122c66.667 0 124.667 51 174 153c40.667 84 73.334 202.667 98.001 356c7.33301 50 17.333 167 30 351
c1.33301 40.667 22.333 61 63 61c37.333 0 58.333 -19 63 -57v-7zM481 1140c147.333 217.333 240.999 326 280.999 326c54.667 0 87 -4.33301 97 -13c15.333 -14 23 -29 23 -45c0 -28.667 -25.333 -61 -76 -97c-170 -132.667 -257 -200.667 -261 -204
c-18 -14.667 -34 -22 -48 -22c-9.33301 0 -17.666 3.66699 -24.999 11c-2.66699 3.33301 -4 7.33301 -4 12c0 8 4.33301 18.667 13 32z" />
    <glyph glyph-name="thorn" unicode="&#xfe;" horiz-adv-x="1136" 
d="M777 225c60 82.667 90.001 187.333 90.001 314c0 104.667 -30 191.667 -90 261c-59.333 68.667 -134 103 -224 103c-72 0 -134.667 -13.667 -188 -41c-54 -27.333 -84.667 -61.333 -92 -102v-544c75.333 -76.667 168 -115 278 -115c91.333 0 166.666 41.333 225.999 124z
M898.001 901.999c96.667 -90.667 145 -211.668 145 -363.001c0 -155.333 -46 -284.666 -138 -387.999c-91.333 -102.667 -206.666 -154 -345.999 -154h-21c-31.333 0 -63 4 -95 12c-51.333 13.333 -109.333 38 -174 74l-1 -429c-0.666992 -54.667 -28 -82 -82 -82
c-54.667 0 -82 27.333 -82 82v1699c0 54.667 27.333 82 82 82c54 0 81.333 -27.333 82 -82v-455c54 42.667 104.667 74 152 94c53.333 22 109.666 33 168.999 33c119.333 0 222.333 -41 309 -123z" />
    <glyph glyph-name="ydieresis" unicode="&#xff;" horiz-adv-x="1062" 
d="M969 969c-4.66699 -342.667 -86.667 -664.332 -246 -964.999c-60.667 -128 -144 -235.667 -250 -323c-98.667 -81.333 -202.334 -122 -311.001 -122c-33.333 0 -61.333 9.33301 -84 28c-23.333 18 -35 40.333 -35 67c0 21.333 7.33301 37.666 22 48.999
c14 12 34.333 18 61 18c6 0 23.333 -1.33301 52 -4l59 -4c72 0 138.333 28.333 199 85c66 62 118.667 139 158 231c-25.333 -10 -47.333 -17.667 -66 -23c-19.333 -4.66699 -39.333 -7 -60 -7c-102 0 -183.333 57.667 -244 173c-78 146.667 -127.333 322.667 -148 528
l-5 251c2.66699 52 29.667 78 81 78c54 0 81 -27 81 -81c0 -198 13 -351.667 39 -461c22 -94.667 56.333 -179 103 -253c50.667 -81.333 106 -122 166 -122c66.667 0 124.667 51 174 153c40.667 84 73.334 202.667 98.001 356c7.33301 50 17.333 167 30 351
c1.33301 40.667 22.333 61 63 61c37.333 0 58.333 -19 63 -57v-7zM357 1172c-78 0 -117 31.667 -117 95c0 64 39 96 117 96c77.333 0 116 -32 116 -96c0 -63.333 -38.667 -95 -116 -95zM719 1172c-78 0 -117 31.667 -117 95c0 64 39 96 117 96c77.333 0 116 -32 116 -96
c0 -63.333 -38.667 -95 -116 -95z" />
    <glyph glyph-name="circumflex" unicode="&#x2c6;" horiz-adv-x="948" 
d="M774 1108c9.33301 -12.667 14 -23.334 14 -32.001c0 -4.66699 -1.66699 -8.66699 -5 -12c-7.33301 -7.33301 -16 -11 -26 -11c-14 0 -30.333 7.33301 -49 22c-3.33301 2.66699 -88 66.667 -254 192c-166.667 -125.333 -251.667 -189.333 -255 -192
c-18.667 -14.667 -35 -22 -49 -22c-10 0 -18.667 3.66699 -26 11c-3.33301 3.33301 -5 7.33301 -5 12c0 8.66699 4.66699 19.334 14 32.001c150.667 214 244.667 322.667 282 326h77c37.333 -3.33301 131.333 -112 282 -326z" />
    <glyph glyph-name="caron" unicode="&#x2c7;" horiz-adv-x="1127" 
d="M602 1053h-77c-37.333 2.66699 -131.333 111 -282 325c-9.33301 13.333 -14 24.333 -14 33c0 4.66699 1.66699 8.66699 5 12c7.33301 7.33301 16 11 26 11c14 0 30.333 -7.66699 49 -23c3.33301 -2.66699 88.333 -66.334 255 -191.001
c166 124.667 250.667 188.334 254 191.001c18.667 15.333 35 23 49 23c10 0 18.667 -3.66699 26 -11c3.33301 -3.33301 5 -7.33301 5 -12c0 -8.66699 -4.66699 -19.667 -14 -33c-150.667 -214 -244.667 -322.333 -282 -325z" />
    <glyph glyph-name="uni02C9" unicode="&#x2c9;" horiz-adv-x="1068" 
d="M760 1180h-437c-47.333 0 -71 25.333 -71 76s23.667 76 71 76h437c47.333 0 71 -25.333 71 -76s-23.667 -76 -71 -76z" />
    <glyph glyph-name="breve" unicode="&#x2d8;" horiz-adv-x="1071" 
d="M224 1285c-8 15.333 -12 27.666 -12 36.999c0 4.66699 1.33301 8.66699 4 12c6 8.66699 14 13 24 13s22.333 -4.66699 37 -14c77.333 -48.667 162.333 -73 255 -73c92 0 177 24.333 255 73c14 9.33301 26.333 14 37 14c10 0 18 -4.33301 24 -13
c2.66699 -3.33301 4 -7.33301 4 -12c0 -9.33301 -4 -21.666 -12 -36.999c-63.333 -126 -166 -189 -308 -189s-244.667 63 -308 189z" />
    <glyph glyph-name="dotaccent" unicode="&#x2d9;" horiz-adv-x="1042" 
d="M535 1161c-78 0 -117 31.667 -117 95c0 64 39 96 117 96c77.333 0 116 -32 116 -96c0 -63.333 -38.667 -95 -116 -95z" />
    <glyph glyph-name="ring" unicode="&#x2da;" horiz-adv-x="1068" 
d="M435 1274c0 -30 10.167 -54 30.5 -72s42.833 -27 67.5 -27s47.167 9 67.5 27s30.5 42 30.5 72c0 28.667 -10.333 52 -31 70s-43 27 -67 27s-46.333 -9 -67 -27s-31 -41.333 -31 -70zM335 1274c0 52 18.5 97.333 55.5 136s84.5 58 142.5 58
c59.333 0 107.666 -19.5 144.999 -58.5s56 -84.167 56 -135.5c0 -52.667 -18.667 -98.334 -56 -137.001s-85.666 -58 -144.999 -58c-58 0 -105.5 19.333 -142.5 58s-55.5 84.334 -55.5 137.001z" />
    <glyph glyph-name="ogonek" unicode="&#x2db;" horiz-adv-x="1068" 
d="M714 -265c8.66699 15.333 18.334 23 29.001 23c6 0 12.333 -2 19 -6s10 -10.333 10 -19c0 -15.333 -9.33301 -36.666 -28 -63.999c-30 -44.667 -70.667 -73.334 -122 -86.001c-16 -4 -32 -6 -48 -6c-29.333 0 -59.333 6.33301 -90 19c-62.667 24.667 -94 66 -94 124
c0 8.66699 0.666992 17.667 2 27c7.33301 48.667 39 101.667 95 159c33.333 34 68.333 65.333 105 94h99l-134 -150c-19.333 -32 -29 -60.333 -29 -85c0 -15.333 3.66699 -29 11 -41c16.667 -28.667 41.667 -43 75 -43c4.66699 0 9.66699 0.333008 15 1
c39.333 4 67.666 21.667 84.999 53z" />
    <glyph glyph-name="tilde" unicode="&#x2dc;" horiz-adv-x="1072" 
d="M296 1125c-10 -19.333 -20.668 -28.998 -32.001 -28.998c-3.33301 0 -6.66602 1 -9.99902 3c-11.333 5.33301 -17 13.666 -17 24.999c0 2 0.333008 4.33301 1 7l2 10c19.333 66.667 40 114.667 62 144c33.333 44 79 66 137 66h3c21.333 0 57 -6.33301 107 -19l51 -13
l53 -12c18.667 -4 30.334 -6 35.001 -6c24 0 43.667 6.66699 59 20c4.66699 4.66699 18.334 28.667 41.001 72c10 19.333 20.667 29 32 29c3.33301 0 6.66602 -1 9.99902 -3c12 -5.33301 18 -14 18 -26c0 -2 -0.333008 -4.33301 -1 -7l-3 -9
c-18.667 -66.667 -39.334 -114.667 -62.001 -144c-33.333 -44.667 -79 -67 -137 -67h-3c-21.333 0 -56.666 6.33301 -105.999 19c-6 1.33301 -23.333 6 -52 14l-53 11c-18 4 -29.667 6.33301 -35 7c-24 0 -43.667 -7 -59 -21
c-4.66699 -4.66699 -18.334 -28.334 -41.001 -71.001z" />
    <glyph glyph-name="hungarumlaut" unicode="&#x2dd;" horiz-adv-x="1188" 
d="M545 1110c147.333 217.333 240.999 326 280.999 326c54.667 0 87 -4.33301 97 -13c15.333 -14 23 -29 23 -45c0 -28.667 -25.333 -61 -76 -97c-170 -132.667 -257 -200.667 -261 -204c-18 -14.667 -34 -22 -48 -22c-9.33301 0 -17.666 3.66699 -24.999 11
c-2.66699 3.33301 -4 7.33301 -4 12c0 8 4.33301 18.667 13 32zM254.999 1110c147.333 217.333 240.999 326 280.999 326c54.667 0 87 -4.33301 97 -13c15.333 -14 23 -29 23 -45c0 -28.667 -25.333 -61 -76 -97c-170 -132.667 -257 -200.667 -261 -204
c-18 -14.667 -34 -22 -48 -22c-9.33301 0 -17.666 3.66699 -24.999 11c-2.66699 3.33301 -4 7.33301 -4 12c0 8 4.33301 18.667 13 32z" />
    <glyph glyph-name="uni0401" unicode="&#x401;" horiz-adv-x="1086" 
d="M966 187c62 0 92.998 -31 92.998 -93c0 -62.667 -31 -94 -93 -94h-817c-58.667 -0 -88 29.333 -88 88l-1 1268c0 58.667 29.333 88 88 88h749c64 0 96 -32.333 96 -97s-32 -97 -96 -97c-13.333 0 -26 2.66699 -38 8c-55.333 28.667 -101.666 48.334 -138.999 59.001
c-50 13.333 -132.333 20 -247 20c-76.667 0 -137.334 -3.33301 -182.001 -10c-5.33301 -2 -9.66602 -4.33301 -12.999 -7c-24.667 -17.333 -38.667 -53 -42 -107v-368h579c40 0 60 -19.667 60 -59c0 -40 -20 -60 -60 -60h-579l1 -463c2 -58.667 11 -97.334 27 -116.001
c18.667 -22 61.334 -33 128.001 -33h214c143.333 0 250 21.333 320 64c12.667 6 26 9 40 9zM344.998 1582c-78 0 -117 31.667 -117 95c0 64 39 96 117 96c77.333 0 116 -32 116 -96c0 -63.333 -38.667 -95 -116 -95zM706.998 1582c-78 0 -117 31.667 -117 95
c0 64 39 96 117 96c77.333 0 116 -32 116 -96c0 -63.333 -38.667 -95 -116 -95z" />
    <glyph glyph-name="uni0410" unicode="&#x410;" 
d="M837 613c-83.333 223.333 -169.333 428.667 -258 616c-52.667 -100.667 -108 -223 -166 -367c-33.333 -83.333 -65 -166.333 -95 -249h519zM1199 131.001c4.66699 -12 7 -24 7 -36c0 -63.333 -31.667 -95 -95 -95c-44.667 0 -74.334 21.333 -89.001 64
c-34.667 119.333 -83 265 -145 437h-598c-64.667 -189.333 -107.334 -336.333 -128.001 -441c-8 -40 -32.333 -60 -73 -60c-50.667 0 -76 25.333 -76 76l3 21l60 201c30.667 88.667 68.334 190.667 113.001 306c54.667 146 108 277.667 160 395l80 181
c38.667 84.667 71.334 149.334 98.001 194.001c36 60.667 63.667 91 83 91c34.667 0 73.667 -44 117 -132c186.667 -380.667 347.667 -781.334 483 -1202z" />
    <glyph glyph-name="uni0411" unicode="&#x411;" horiz-adv-x="1130" 
d="M773 175c72 51.333 107.999 120.333 107.999 207c0 109.333 -44.667 197 -134 263c-108 79.333 -272 119 -492 119v-479c0.666992 -83.333 21.334 -137.333 62.001 -162c26.667 -16 81 -24 163 -24c124 0 221.667 25.333 293 76zM894.999 733
c120.667 -82.667 181.001 -196.667 181.001 -342c0 -136 -48.333 -235.333 -145 -298c-96.667 -62 -245.334 -93 -446.001 -93h-318c-58 0 -87 29 -87 87v1261c0 58 29 87 87 87h796c64 0 96 -32 96 -96s-32 -96 -96 -96c-13.333 0 -26 2.66699 -38 8
c-54.667 28.667 -100.667 48 -138 58c-49.333 13.333 -131.333 20 -246 20c-138.667 0 -223 -10 -253 -30c-21.333 -14 -32.333 -53 -33 -117v-305c286.667 0 500 -48 640 -144z" />
    <glyph glyph-name="uni0412" unicode="&#x412;" horiz-adv-x="1188" 
d="M833 179c74 48 111.001 116 111.001 204c0 100.667 -42.667 183 -128 247c-68.667 52.667 -135.334 79 -200.001 79c-17.333 0 -74.333 -10.333 -171 -31l-194 -43v-359c0 -80.667 17.333 -130 52 -148c26 -14 97.333 -21 214 -21c136.667 0 242 24 316 72zM251.001 745
l277 57c105.333 25.333 182.333 58 231 98c64 50.667 96 120.667 96 210c0 76.667 -27.667 132.667 -83 168c-55.333 34.667 -144 52 -266 52c-114 0 -183 -7 -207 -21c-32 -18.667 -48 -70 -48 -154v-410zM1022 651c74.667 -72 112.001 -158.668 112.001 -260.001
c0 -67.333 -15 -127.333 -45 -180c-36.667 -64 -93.334 -113.667 -170.001 -149c-88 -41.333 -200.667 -62 -338 -62h-416c-56.667 0 -85 29 -85 87v1261c0 58 28.333 87 85 87h441c126 0 228.667 -23.667 308 -71c85.333 -50.667 128 -123 128 -217
c0 -83.333 -25 -154.666 -75 -213.999s-128.333 -110.333 -235 -153c119.333 -14 216 -57 290 -129z" />
    <glyph glyph-name="uni0413" unicode="&#x413;" horiz-adv-x="1060" 
d="M895 1253c-54 28 -99.334 47 -136.001 57c-49.333 13.333 -130 20 -242 20c-137.333 0 -220.666 -10 -249.999 -30c-22 -14.667 -33 -56 -33 -124l-1 -1090c0 -57.333 -28.667 -86 -86 -86s-86 28.667 -86 86v1262c0 58 28.667 87 86 87h785c63.333 0 95 -31.667 95 -95
s-31.667 -95 -95 -95c-12.667 0 -25 2.66699 -37 8z" />
    <glyph glyph-name="uni0414" unicode="&#x414;" horiz-adv-x="1379" 
d="M506 857c-114.667 -291.333 -197.001 -541.333 -247.001 -750h836c-121.333 399.333 -262.666 772.666 -423.999 1120c-52 -99.333 -107 -222.666 -165 -369.999zM1367 63c18 -34.667 26.998 -81.332 26.998 -139.999c0 -14 -5.33301 -26.667 -16 -38
c-10.667 -10 -23 -15.333 -37 -16c-22 4.66699 -45 18.667 -69 42c-32 30.667 -58.667 52.667 -80 66c-23.333 15.333 -61.333 23.333 -114 24h-786c-53.333 -0.666992 -91.666 -8.66699 -114.999 -24c-20.667 -13.333 -47.334 -35.333 -80.001 -66
c-24 -23.333 -47 -37.333 -69 -42c-14 0.666992 -26.333 6 -37 16c-10.667 11.333 -16 24 -16 38c6.66699 67.333 14.334 114.333 23.001 141c4.66699 20 33 34.333 85 43h24c32 109.333 50 169.666 54 180.999c30 89.333 67 192.333 111 309
c54.667 146.667 107.667 279.334 159 398.001l80 182c38 86 70.333 151.333 97 196c36 61.333 63.333 92 82 92c34.667 0 73.334 -44.333 116.001 -133c186 -383.333 346 -787.333 480 -1212c1.33301 -2.66699 4.33301 -7 9 -13c40 -12.667 64 -27.334 72 -44.001z" />
    <glyph glyph-name="uni0415" unicode="&#x415;" horiz-adv-x="1103" 
d="M981 186c63.333 0 95.001 -31 95.001 -93s-31.667 -93 -95 -93h-831c-59.333 0 -89 29 -89 87l-1 1261c0 58 29.667 87 89 87h762c65.333 0 98 -32 98 -96s-32.667 -96 -98 -96c-13.333 0 -26.333 2.66699 -39 8c-56 28.667 -103 48 -141 58
c-50.667 13.333 -134.334 20 -251.001 20c-78 0 -139.667 -3 -185 -9c-5.33301 -2.66699 -10 -5.33398 -14 -8.00098c-24.667 -17.333 -38.667 -52.666 -42 -105.999v-366h589c40 0 60 -19.667 60 -59s-20 -59 -60 -59h-589l1 -460c2 -58.667 11.333 -97 28 -115
c18.667 -22 62 -33 130 -33h217c146 0 254.333 21 325 63c13.333 6 27 9 41 9z" />
    <glyph glyph-name="uni0416" unicode="&#x416;" horiz-adv-x="1912" 
d="M1861 90c0 -60 -29.9951 -89.999 -89.9951 -89.999c-42.667 0 -71 20.333 -85 61l-4 12c-62 217.333 -202.333 439 -421 665l-132 -123l-103 -93l-1 -447c-7.33301 -50 -36.333 -75 -87 -75c-50 0 -78.667 25 -86 75l-1 447l-103 93l-132 123
c-218.667 -226 -359 -447.667 -421 -665l-4 -12c-14 -40.667 -42.333 -61 -85 -61c-60 0 -90 30 -90 90l3 24c45.333 143.333 122.666 291 231.999 443c81.333 113.333 164.666 214 249.999 302c-104 105.333 -234.333 256 -391 452c-15.333 14 -23 31.333 -23 52
c0 48 24 72 72 72c21.333 0 39.666 -8.66699 54.999 -26c2.66699 -3.33301 4.66699 -6.33301 6 -9c230 -316.667 440.333 -559 631 -727v675c0 58 29.333 87 88 87c58 0 87 -29 87 -87v-675c190.667 167.333 401 409.666 631 726.999l6 9l1 1c14.667 16.667 32.667 25 54 25
c48 0 72 -24 72 -72c0 -20.667 -7.66699 -38 -23 -52c-156.667 -196 -287 -346.667 -391 -452c85.333 -88 168.666 -188.667 249.999 -302c109.333 -152 186.666 -299.667 231.999 -443z" />
    <glyph glyph-name="uni0417" unicode="&#x417;" horiz-adv-x="1282" 
d="M877 793c217.333 -54 326.002 -180.997 326.002 -380.997c0 -80 -26 -155.333 -78 -226c-58 -78 -124.333 -134 -199 -168c-70 -32 -179.333 -48 -328 -48c-123.333 0 -227.666 19 -312.999 57c-136 60.667 -227 139.667 -273 237l-6 14l-2 5l1 -1
c-2.66699 9.33301 -4 17.666 -4 24.999c0 60.667 30.333 91 91 91c41.333 0 69.333 -19.333 84 -58c50.667 -93.333 113.667 -157.333 189 -192c92 -42.667 188 -64 288 -64c105.333 0 191 28 257 84c63.333 54 95.666 129.333 96.999 226v8
c0 72.667 -18.667 132.334 -56 179.001c-20.667 25.333 -47.334 47.666 -80.001 66.999c-72 42.667 -161 64 -267 64h-199c-36.667 0 -64.667 6.66699 -84 20c-17.333 12 -26 25.667 -26 41s8 29 24 41c18 12.667 44.667 19 80 19h205c74 0 136 14 186 42
c22 9.33301 41.667 20.666 59 33.999c60 46 90 107.333 90 184c0 161.333 -99 246.333 -297 255c-11.333 0.666992 -22.666 1 -33.999 1c-113.333 0 -204 -25 -272 -75l-4 -2c-4 -3.33301 -7 -5.66602 -9 -6.99902c-18 -14 -36.667 -30.333 -56 -49l-7 -7l3 4l-2 -2
c-18.667 -21.333 -42.334 -32 -71.001 -32c-29.333 0 -53 10.667 -71 32c-9.33301 13.333 -14 27.666 -14 42.999c0 31.333 14.333 54.666 43 69.999c121.333 94 267.666 141 438.999 141c93.333 0 182 -15.667 266 -47c84.667 -31.333 152.667 -76 204 -134
c51.333 -58.667 77 -126.667 77 -204c0 -78 -21 -140.667 -63 -188c-36 -40 -100.667 -73 -194 -99z" />
    <glyph glyph-name="uni0418" unicode="&#x418;" horiz-adv-x="1348" 
d="M243 31c-17.333 -20.667 -38.999 -31 -64.999 -31c-57.333 0 -86 29 -86 87v1261c0 58 28.667 87 86 87s86 -29 86 -87v-1083l780 1124c3.33301 6.66699 7.33301 12.667 12 18l2 2c17.333 17.333 37.666 26 60.999 26c57.333 0 86 -29 86 -87l-1 -1273
c-6.66699 -50 -35 -75 -85 -75c-57.333 0 -86 29 -86 87v1085l-785 -1133z" />
    <glyph glyph-name="uni0419" unicode="&#x419;" horiz-adv-x="1312" 
d="M1105 1435c58 0 87.002 -29 87.002 -87l-1 -1273c-6.66699 -50 -35.334 -75 -86.001 -75c-58 0 -87 29 -87 87v1085l-797 -1133l-6 -8c-17.333 -20.667 -39.333 -31 -66 -31c-58 0 -87 29 -87 87v1261c0 58 29 87 87 87s87 -29 87 -87v-1083l793 1124
c3.33301 6.66699 7.66602 12.667 12.999 18l2 3c16.667 16.667 37 25 61 25zM362.002 1546c-35.333 28.667 -65 62.335 -89 101.002c-23.333 38 -35 75 -35 111c0 28 8.33301 42 25 42l5 -2c13.333 -6.66699 32 -25.334 56 -56.001c35.333 -46.667 75 -85 119 -115
c46 -32 110.333 -48 193 -48c57.333 0 113.333 13.333 168 40c54 27.333 97.333 64 130 110l24 33c6 8 12.667 14.667 20 20c5.33301 4 12 6 20 6c13.333 0 20 -11.333 20 -34c0 -26.667 -8.33301 -56 -25 -88c-18 -34.667 -37 -63.334 -57 -86.001
c-78 -86 -181 -129 -309 -129c-100 0 -188.333 31.667 -265 95z" />
    <glyph glyph-name="uni041A" unicode="&#x41a;" horiz-adv-x="1110" 
d="M1057 90c0 -60 -29.665 -89.999 -88.998 -89.999c-42 0 -70 20.333 -84 61l-3 12c-62 217.333 -201 439 -417 665l-129 -123l-102 -93l-1 -447c-7.33301 -50 -35.666 -75 -84.999 -75c-57.333 0 -86 29 -86 87v1261c0 58 28.667 87 86 87s86 -29 86 -87v-675
c188 167.333 395.667 409.666 623 726.999c1.33301 2.66699 3.66602 6 6.99902 10c14 16.667 31.667 25 53 25c46.667 0 70 -24 70 -72c0 -20.667 -7.33301 -38 -22 -52c-154.667 -196 -283.334 -346.667 -386.001 -452c84 -88 166.333 -188.667 247 -302
c107.333 -152 183.666 -299.667 228.999 -443c2 -8.66699 3 -16.667 3 -24z" />
    <glyph glyph-name="uni041B" unicode="&#x41b;" horiz-adv-x="1316" 
d="M39 97l59.999 201.001c30.667 89.333 68 191.333 112 306c55.333 145.333 108.666 277 159.999 395l80 181c38.667 84.667 71.334 149.334 98.001 194.001c36 60.667 63.667 91 83 91c34.667 0 73.334 -44 116.001 -132c186.667 -380.667 347.667 -781.334 483 -1202
c4.66699 -12 7 -24 7 -36c0 -63.333 -31.333 -95 -94 -95c-44.667 0 -74.667 21.333 -90 64c-113.333 391.333 -260.666 779.666 -441.999 1165c-52 -98.667 -107 -221 -165 -367c-136.667 -340.667 -224 -608 -262 -802c-8.66699 -40 -33.334 -60 -74.001 -60
c-50 -0 -75 25.333 -75 76z" />
    <glyph glyph-name="uni041C" unicode="&#x41c;" horiz-adv-x="1501" 
d="M1272 1434c58 0 86.999 -29 86.999 -87l-1 -1272c-7.33301 -50 -36 -75 -86 -75c-58.667 0 -88 29 -88 87v987l-394 -851l-2 -2c-16 -30 -38.667 -45 -68 -45c-8 0 -16.667 1.33301 -26 4c-24 6 -41.667 20 -53 42l-447 861l-1 -1030
c-5.33301 -35.333 -25.666 -53 -60.999 -53c-41.333 -0 -62 20.333 -62 61l3 1304c12 46.667 38 70 78 70c10 0 21 -1.33301 33 -4c26 -6.66699 45.333 -22 58 -46l498 -990l451 985c15.333 36 42.333 54 81 54z" />
    <glyph glyph-name="uni041D" unicode="&#x41d;" horiz-adv-x="1375" 
d="M1145 1435c58 0 87 -29 87 -87l-1 -1273c-7.33301 -50 -36 -75 -86 -75c-58 0 -87 29 -87 87v649h-823v-661h-1c-7.33301 -50 -36 -75 -86 -75c-58 0 -87 29 -87 87v1261c0 58 29 87 87 87s87 -29 87 -87v-495h823v495c0 58 29 87 87 87z" />
    <glyph glyph-name="uni041E" unicode="&#x41e;" horiz-adv-x="1433" 
d="M1030 282c74 110.667 111.001 255.667 111.001 435c0 192 -42.667 344.333 -128 457c-86 113.333 -201.667 170 -347 170c-114 0 -209 -31.667 -285 -95c-68 -56.667 -118.667 -134.667 -152 -234c-30 -88.667 -45 -188 -45 -298c0 -188 43.333 -339 130 -453
c86 -114 200.333 -171 343 -171c163.333 0 287.666 63 372.999 189zM1147 1246c126.667 -136 190.001 -312.331 190.001 -528.998c0 -214.667 -63 -390.334 -189 -527.001s-288 -205 -486 -205c-196.667 0 -358.334 68.667 -485.001 206s-190 312.666 -190 525.999
c0 214 62.667 389.667 188 527s286 206 482 206c200 0 363.333 -68 490 -204z" />
    <glyph glyph-name="uni041F" unicode="&#x41f;" horiz-adv-x="1317" 
d="M1088 1435c57.333 0 86 -29 86 -87l-1 -1273c-6.66699 -50 -35 -75 -85 -75c-57.333 0 -86 29 -86 87v1231h-769v-1243h-2c-6.66699 -50 -34.667 -75 -84 -75c-57.333 0 -86 29 -86 87v1261c0 57.333 28.333 86.333 85 87h942z" />
    <glyph glyph-name="uni0420" unicode="&#x420;" horiz-adv-x="1144" 
d="M765 790c89.333 66 134.001 153.667 134.001 263c0 86.667 -36 155.667 -108 207c-71.333 50.667 -169 76 -293 76c-82 0 -136.333 -8 -163 -24c-40.667 -24.667 -61.334 -78.667 -62.001 -162v-479c220 0 384 39.667 492 119zM949.001 1342
c96.667 -62.667 144.999 -162 144.999 -298c0 -145.333 -60.333 -259.333 -181 -342c-140 -96 -353.333 -144 -640 -144v-483h-1c-7.33301 -50 -36.333 -75 -87 -75c-58 0 -87 29 -87 87v1261c0 58 29 87 87 87h318c200.667 0 349.334 -31 446.001 -93z" />
    <glyph glyph-name="uni0421" unicode="&#x421;" horiz-adv-x="1292" 
d="M1218 347c10.667 -12 15.999 -24.001 15.999 -36.001c0 -41.333 -24 -86.666 -72 -135.999c-51.333 -52.667 -117.333 -96.334 -198 -131.001c-92 -39.333 -189 -59 -291 -59c-210 0 -376.667 69.333 -500 208c-116 130.667 -174 300 -174 508
c0 217.333 67 396.333 201 537c134.667 141.333 306.334 212 515.001 212c81.333 0 169.333 -13.667 264 -41c80 -23.333 132.333 -45.666 157 -66.999c25.333 -18.667 38 -43.667 38 -75c0 -62 -31 -93 -93 -93c-25.333 0 -47 9 -65 27c-46 43.333 -84.667 74 -116 92
c-66.667 37.333 -139.334 56 -218.001 56c-138.667 0 -254.334 -59.667 -347.001 -179c-92 -120 -138 -270.333 -138 -451c0 -184 46.333 -332 139 -444c93.333 -112.667 216 -169 368 -169c71.333 0 140.333 13.333 207 40c66.667 26 120 61.667 160 107
c20.667 32 37.334 55.333 50.001 70c22 28 43.667 42 65 42c10.667 0 21.334 -6 32.001 -18z" />
    <glyph glyph-name="uni0422" unicode="&#x422;" horiz-adv-x="1142" 
d="M1048 1435c62.667 0 93.999 -32 93.999 -96s-31.333 -96 -94 -96c-13.333 0 -25.666 2.66699 -36.999 8c-54 28.667 -99 48 -135 58c-34.667 9.33301 -85.334 15.666 -152.001 18.999c-28 -3.33301 -45.333 -9.66602 -52 -18.999c-10 -13.333 -15 -50 -15 -110l-2 -1124
c-6.66699 -50 -34.667 -75 -84 -75c-57.333 0 -86 29 -86 87v1157c-1.33301 21.333 -3 36 -5 44c-6 21.333 -28 34.333 -66 39c-64.667 -2.66699 -114 -8.66699 -148 -18c-36 -10 -81 -29.333 -135 -58c-11.333 -5.33301 -23.666 -8 -36.999 -8c-62.667 0 -94 32 -94 96
s31.333 96 94 96h954z" />
    <glyph glyph-name="uni0423" unicode="&#x423;" horiz-adv-x="1339" 
d="M1305 1361c-21.333 -158.667 -88.3359 -366 -201.003 -622c-57.333 -130 -115.666 -246.667 -174.999 -350c-162 -279.333 -358.333 -419 -589 -419c-26.667 0 -48.667 10 -66 30c-15.333 16.667 -23 36 -23 58c0 50 24.333 79 73 87l16 2c10 0 20.333 -2 31 -6l38 -1h17
c165.333 0 303.333 114.333 414 343c-28 -23.333 -81.667 -35 -161 -35c-160 0 -313 136.333 -459 409c-116.667 217.333 -175 373.333 -175 468c0 6.66699 0.333008 12.667 1 18c0 61.333 30.667 92 92 92c53.333 0 84 -26.667 92 -80
c103.333 -508.667 273 -765.667 509 -771c20.667 0 49.334 3 86.001 9c132.667 23.333 248.334 281.333 347.001 774c0 44.667 22 67 66 67c44.667 0 67 -22.333 67 -67v-6z" />
    <glyph glyph-name="uni0424" unicode="&#x424;" horiz-adv-x="1907" 
d="M1480 551c90 66 134.999 153.667 134.999 263c0 87.333 -36 156.333 -108 207c-72 51.333 -170 77 -294 77c-109.333 0 -184.666 -8 -225.999 -24v-643c220.667 0 385 40 493 120zM317.999 551c108 -80 272.332 -120 492.999 -120v643
c-41.333 16 -116.666 24 -225.999 24c-124 0 -222 -25.667 -294 -77c-72 -50.667 -108 -119.667 -108 -207c0 -109.333 45 -197 135 -263zM1665 1103c97.333 -62.667 146 -162 146 -298c0 -145.333 -60.333 -259.666 -181 -342.999c-140.667 -96 -355 -144 -643 -144v-213
c0 -70 -29.333 -105 -88 -105s-88 35 -88 105v213c-288 0 -502.333 48 -643 144c-120.667 83.333 -181 197.666 -181 342.999c0 136 48.667 235.333 146 298c96.667 62.667 245.667 94 447 94h231v151c0 58 29.333 87 88 87s88 -29 88 -87v-151h231
c201.333 0 350.333 -31.333 447 -94z" />
    <glyph glyph-name="uni0425" unicode="&#x425;" horiz-adv-x="1103" 
d="M1045 98c0 -65.333 -32.334 -98 -97.001 -98c-55.333 -0 -87.333 27.333 -96 82h-1c-38 140.667 -107.333 267 -208 379l-150 166l-7 7l-7 -8c-142 -177.333 -251.333 -370.666 -328 -579.999c-10.667 -30 -31.667 -45 -63 -45c-44.667 0 -67 22.333 -67 67
c0 13.333 3.66699 25.333 11 36c125.333 248.667 252.666 451 381.999 607l-49 59c-37.333 45.333 -72.333 91 -105 137c-45.333 64 -93 137.667 -143 221c-64 106 -96 169.667 -96 191v3l-1 15c0 65.333 32.333 98 97 98c60 0 92.333 -30.333 97 -91
c6 -62.667 34.667 -133.334 86 -212.001c52.667 -80 129 -176 229 -288c146 176 253.667 355 323 537c7.33301 36 29 54 65 54c44.667 0 67 -22.333 67 -67c0 -17.333 -5.66699 -32.333 -17 -45c-115.333 -219.333 -238.666 -406 -369.999 -560
c62 -67.333 121.333 -137 178 -209c46.667 -60 92.334 -123 137.001 -189c63.333 -94 105 -170.333 125 -229l4 -12l-1 4c3.33301 -10.667 5 -20.667 5 -30z" />
    <glyph glyph-name="uni0426" unicode="&#x426;" horiz-adv-x="1331" 
d="M1266 64c18 -35.333 26.999 -81.667 26.999 -139c0 -14.667 -5.66699 -27.334 -17 -38.001c-10.667 -10 -23 -15.333 -37 -16c-22 4.66699 -45.333 18.334 -70 41.001c-32 30.667 -58.667 52.667 -80 66c-15.333 10 -37.333 17 -66 21l-875 1c-58 0 -87 29 -87 87l1 1272
c7.33301 50 36 75 86 75c58 0 87 -29 87 -87v-1230h782v1242c-0.666992 0 -1 0.333008 -1 1l2 -1c6.66699 50 35.334 75 86.001 75c58 0 87 -29 87 -87l2 -1240c40 -12.667 64.333 -27 73 -43z" />
    <glyph glyph-name="uni0427" unicode="&#x427;" horiz-adv-x="1283" 
d="M1061 1435c57.333 0 86 -29.001 86 -87.001l-1 -1273c-6.66699 -50 -35 -75 -85 -75c-57.333 0 -86 29 -86 87v498c-147.333 -108.667 -287 -163 -419 -163c-135.333 0 -263 56.667 -383 170c-92.667 87.333 -139 197.333 -139 330v426c0 58 28.667 87 86 87
s86 -29 86 -87v-391c0 -125.333 30 -211.666 90 -258.999c102 -81.333 207.333 -122 316 -122c117.333 0 238.333 47.333 363 142v630c0 58 28.667 87 86 87z" />
    <glyph glyph-name="uni0428" unicode="&#x428;" horiz-adv-x="2225" 
d="M1992 1435c58 0 87 -29 87 -87v-1261c0 -57.333 -28.667 -86.333 -86 -87h-1906c-58 0 -87 29 -87 87l1 1273c7.33301 50 36 75 86 75c58 0 87 -29 87 -87v-1231h779v1243c6.66699 50 35.667 75 87 75c58 0 87 -29 87 -87v-1231h779v1243c7.33301 50 36 75 86 75z" />
    <glyph glyph-name="uni0429" unicode="&#x429;" horiz-adv-x="2281" 
d="M2216 64c18 -35.333 27 -81.667 27 -139c0 -14.667 -5.33301 -27.334 -16 -38.001c-10.667 -10 -23.334 -15.333 -38.001 -16c-22 4.66699 -45 18.334 -69 41.001c-32 30.667 -58.667 52.667 -80 66c-15.333 10 -37.333 17 -66 21l-1826 1c-58 0 -87 29 -87 87l1 1272
c7.33301 50 36 75 86 75c58 0 87 -29 87 -87v-1230h780v1242c6.66699 50 35.667 75 87 75c58 0 87 -29 87 -87v-1230h780v1242c6.66699 50 35.334 75 86.001 75c58 0 87 -29 87 -87l2 -1240c40 -12.667 64 -27 72 -43z" />
    <glyph glyph-name="uni042A" unicode="&#x42a;" horiz-adv-x="1601" 
d="M1168 175c70 51.333 105 120.333 105 207c0 109.333 -44 197 -132 263c-105.333 79.333 -266.333 119 -483 119v-479c0.666992 -83.333 21 -137.333 61 -162c26 -16 79.667 -24 161 -24c121.333 0 217.333 25.333 288 76zM1287 733
c118.667 -82.667 178 -196.667 178 -342c0 -136 -47.333 -235.333 -142 -298c-95.333 -62 -241.333 -93 -438 -93h-313c-57.333 0 -86 29 -86 87v1171c-0.666992 14 -2 24 -4 30c-6.66699 22.667 -28.667 35.667 -66 39c-8 0.666992 -16.667 1 -26 1
c-35.333 0 -76 -6.33301 -122 -19c-36.667 -10 -81.667 -29.333 -135 -58c-12 -5.33301 -24.667 -8 -38 -8c-62.667 0 -94 32 -94 96s31.333 96 94 96h477c50 0 78.333 -25 85 -75l1 -483c282 0 491.667 -48 629 -144z" />
    <glyph glyph-name="uni042B" unicode="&#x42b;" horiz-adv-x="1512" 
d="M1293 1434c57.333 0 85.999 -29 85.999 -87v-1272h-1c-7.33301 -50 -35.666 -75 -84.999 -75c-57.333 0 -86 29 -86 87v1260c0 58 28.667 87 86 87zM848.999 383c0 109.333 -44 196.668 -132 262.001c-106 79.333 -267.333 119 -484 119v-479
c0.666992 -82.667 21 -136.334 61 -161.001c26 -16.667 79.667 -25 161 -25c122 0 218 25.667 288 77c70.667 50.667 106 119.667 106 207zM1041 392.002c0 -136.667 -47.667 -235.999 -143 -297.999c-94.667 -62 -240.667 -93 -438 -93h-313c-57.333 0 -86 29 -86 87v1260
c0 58 28.667 87 86 87c50 0 78.333 -25 85 -75h1v-482c282.667 0 492.667 -48.333 630 -145c118.667 -82.667 178 -196.334 178 -341.001z" />
    <glyph glyph-name="uni042C" unicode="&#x42c;" horiz-adv-x="1107" 
d="M862 382c0 109.333 -44.668 197 -134.001 263c-108 79.333 -272 119 -492 119v-479c0.666992 -83.333 21.334 -137.333 62.001 -162c26.667 -16 81 -24 163 -24c124 0 221.667 25.333 293 76c72 51.333 108 120.333 108 207zM1057 391
c0 -136 -48.332 -235.333 -144.999 -298c-96.667 -62 -245.334 -93 -446.001 -93h-318c-58 0 -87 29 -87 87v1261c0 58 29 87 87 87c50.667 0 79.667 -25 87 -75h1v-483c286.667 0 500 -48 640 -144c120.667 -82.667 181 -196.667 181 -342z" />
    <glyph glyph-name="uni042D" unicode="&#x42d;" horiz-adv-x="1294" 
d="M1053 1249c137.333 -144 206.002 -327 206.002 -549c0 -211.333 -59.333 -384 -178 -518c-125.333 -141.333 -295 -212 -509 -212c-104 0 -203.333 20 -298 60c-82 35.333 -149 80 -201 134c-49.333 50.667 -74 96.667 -74 138c0 12.667 5.33301 25.334 16 38.001
c11.333 12 22.333 18 33 18c21.333 0 43.666 -14.333 66.999 -43c12 -15.333 28.667 -39 50 -71c41.333 -46.667 95.666 -83.334 162.999 -110.001c68 -26.667 138.667 -40 212 -40c154.667 0 279.667 57.333 375 172c94.667 114 142 265 142 453v3h-590
c-39.333 0 -59 19.667 -59 59s19.667 59 59 59h583c-16.667 132 -61.334 245 -134.001 339c-94.667 122 -212.667 183 -354 183c-80 0 -154.333 -19 -223 -57c-31.333 -18 -70.333 -49.333 -117 -94c-18.667 -18.667 -41 -28 -67 -28c-63.333 0 -95 31.667 -95 95
c0 32 13 57.667 39 77c25.333 22 79 44.667 161 68c95.333 28 185 42 269 42c212.667 0 387.334 -72 524.001 -216z" />
    <glyph glyph-name="uni042E" unicode="&#x42e;" horiz-adv-x="1916" 
d="M1509 273c75.333 112.667 112.998 260.667 112.998 444c0 196 -43.333 351.667 -130 467c-86.667 114.667 -203.667 172 -351 172c-115.333 0 -211.666 -32 -288.999 -96c-68.667 -58 -119.667 -137.667 -153 -239c-30 -90 -45 -191.333 -45 -304
c0 -191.333 43.667 -345.333 131 -462c86.667 -116.667 202.334 -175 347.001 -175c165.333 0 291 64.333 377 193zM1628 1257c128 -139.333 191.999 -319.335 191.999 -540.002c0 -219.333 -63.667 -398.666 -191 -537.999s-291.333 -209 -492 -209
c-199.333 0 -363 70 -491 210s-192 319 -192 537v4h-221v-646h-1c-6.66699 -50 -35 -75 -85 -75c-57.333 0 -86 29 -86 87v1261c0 57.333 28.667 86 86 86s86 -28.667 86 -86v-509h229c19.333 164.667 80 303.334 182 416.001c126.667 140 289.334 210 488.001 210
c202.667 0 368 -69.333 496 -208z" />
    <glyph glyph-name="uni042F" unicode="&#x42f;" horiz-adv-x="1180" 
d="M866 1158c-0.666992 80.667 -21 133 -61 157c-26 16 -79.333 24 -160 24c-121.333 0 -217 -24.667 -287 -74c-70.667 -50 -106 -117.333 -106 -202c0 -106 44 -191 132 -255c105.333 -77.333 266 -116 482 -116v466zM951 1435c57.333 0 85.999 -28.333 85.999 -85v-1226
c0 -56.667 -28.667 -85 -86 -85c-49.333 0 -77.333 24.333 -84 73l-1 470c-117.333 0 -222.333 8 -315 24c-160 -188 -264.667 -366.333 -314 -535l-3 -12c-14 -39.333 -42 -59 -84 -59c-59.333 -0 -89 29.333 -89 88l3 23c44.667 139.333 121 283 229 431
c24 32.667 52.333 69.334 85 110.001c-53.333 19.333 -100 42.666 -140 69.999c-118 80.667 -177 191.667 -177 333c0 132 47.333 228.333 142 289s240.334 91 437.001 91h311z" />
    <glyph glyph-name="uni0430" unicode="&#x430;" horiz-adv-x="1043" 
d="M648 179c77.333 57.333 115.999 148.667 115.999 274l-4 143c-185.333 0 -322.333 -28.333 -411 -85c-76 -49.333 -114 -118 -114 -206c0 -54.667 19.333 -99.667 58 -135c38 -34.667 87.667 -52 149 -52c82.667 0 151.334 20.333 206.001 61zM813.999 905.001
c75.333 -80 112.998 -208.333 112.998 -385v-416c0 -51.333 -25.667 -77 -77 -77l-17 2c-45.333 6.66699 -68.333 33 -69 79v71c-51.333 -57.333 -102.333 -99.666 -153 -126.999c-66 -34.667 -141.333 -52 -226 -52c-96 0 -176.333 27.667 -241 83
c-64 56 -96 125.333 -96 208c0 128.667 50.667 225 152 289c112.667 72 292.334 108 539.001 108c-11.333 71.333 -42.666 127.666 -93.999 168.999c-50.667 42 -115 63 -193 63c-30 0 -55.333 -3.66699 -76 -11c-21.333 -6.66699 -53.666 -22 -96.999 -46
c-36 -19.333 -60 -31.333 -72 -36s-25.333 -7 -40 -7c-16.667 0 -29 2.33301 -37 7c-15.333 8.66699 -23 25 -23 49c0 46 30.333 82.333 91 109s142.667 40 246 40c171.333 0 294.666 -40 369.999 -120z" />
    <glyph glyph-name="uni0431" unicode="&#x431;" horiz-adv-x="1215" 
d="M870 221c64 74.667 96.001 172 96.001 292c0 119.333 -31.667 216.333 -95 291s-145 112 -245 112c-98.667 0 -179.334 -37.333 -242.001 -112c-63.333 -75.333 -95 -172.333 -95 -291c0 -116 31.667 -212.333 95 -289c62.667 -76.667 142 -115 238 -115
c102 0 184.667 37.333 248 112zM999.001 883c96.667 -96 145.003 -220.334 145.003 -373.001c0 -148 -48.667 -270 -146 -366s-221.333 -144 -372 -144c-152 0 -276.333 48 -373 144c-94 93.333 -142.333 212.666 -145 357.999c-2.66699 35.333 -4 74.333 -4 117
c0 97.333 7 213.333 21 348c22 207.333 107 357 255 449c33.333 21.333 68.666 38 105.999 50c39.333 12.667 87.666 25.334 144.999 38.001c59.333 12.667 103.333 22.667 132 30c16 4 40.667 13 74 27l31 15c14 9.33301 29 14 45 14c52.667 0 79 -26 79 -78
c0 -15.333 -10.333 -37.666 -31 -66.999c-22.667 -28.667 -51 -52.334 -85 -71.001c-35.333 -19.333 -73 -32.333 -113 -39l-267 -59c-40 -8 -87 -29.333 -141 -64c-82.667 -54 -128.334 -176 -137.001 -366c10.667 12.667 22 25.334 34 38.001c96 95.333 220 143 372 143
c152.667 0 277.667 -48 375 -144z" />
    <glyph glyph-name="uni0432" unicode="&#x432;" horiz-adv-x="1020" 
d="M697 147c72.667 33.333 109 82 109 146c0 41.333 -21.667 79.333 -65 114c-83.333 65.333 -177.333 98 -282 98l-206 -53v-278c14.667 -50 75 -75 181 -75c105.333 0 193 16 263 48zM431 929c-104 0 -163.333 -22.999 -178 -68.999v-308
c300.667 51.333 451 134.666 451 249.999c0 42.667 -27 74.667 -81 96c-50 20.667 -114 31 -192 31zM924 410.001c30 -34.667 45 -72.667 45 -114c0 -100 -40 -174.667 -120 -224c-82 -48 -190.333 -72 -325 -72h-353c-54 0 -81 27.333 -81 82v862c0 54 27 81 81 81h311
c120.667 -0.666992 213 -15 277 -43c80 -36.667 120 -100.667 120 -192c0 -43.333 -23 -84 -69 -122c-48 -38.667 -100.333 -67.667 -157 -87l-36 -12l37 -10c54 -14.667 105 -34.667 153 -60c47.333 -24 86.333 -53.667 117 -89z" />
    <glyph glyph-name="uni0433" unicode="&#x433;" horiz-adv-x="853" 
d="M765 1025c36.667 -6.66699 55 -28.333 55 -65c0 -42 -21 -63 -63 -63l-27 7v1c0 2.66699 -17.333 11 -52 25c-17.333 6.66699 -49.333 10 -96 10h-262c-7.33301 -4.66699 -11 -10.667 -11 -18v-840c0 -54.667 -27 -82 -81 -82c-54.667 -0 -82 27.333 -82 82v862
c0 54 27.333 81 82 81h537z" />
    <glyph glyph-name="uni0434" unicode="&#x434;" horiz-adv-x="980" 
d="M740 90c-44 139.333 -92.333 283.667 -145 433c-79.333 223.333 -128.333 339.666 -147 348.999c-11.333 -11.333 -59.333 -138.666 -144 -381.999c-92 -266 -138 -399.333 -138 -400h574zM972 53.001c15.333 -30 23.002 -69.9971 23.002 -119.997
c0 -12 -4.66699 -22.667 -14 -32c-8.66699 -8.66699 -19.334 -13.334 -32.001 -14.001c-18.667 4 -38.667 16 -60 36c-27.333 26 -50.333 44.667 -69 56c-20.667 13.333 -53.667 20.333 -99 21h-511c-46.667 -0.666992 -80 -7.66699 -100 -21c-18 -11.333 -41 -30 -69 -56
c-21.333 -20 -41.333 -32 -60 -36c-12.667 0.666992 -23.334 5.33398 -32.001 14.001c-9.33301 9.33301 -14 20 -14 32c6 57.333 12.667 97.333 20 120c4 17.333 29 29.666 75 36.999c26 91.333 76.667 237.666 152 438.999c112 298 184.333 460 217 486
c18 14.667 40.667 23 68 25h7c26 0 51.667 -10 77 -30c26.667 -20.667 95.667 -179.334 207 -476.001c94 -250 144.667 -398 152 -444c34 -10.667 54.667 -23 62 -37z" />
    <glyph glyph-name="uni0435" unicode="&#x435;" horiz-adv-x="1049" 
d="M624 562c110.667 49.333 166 120.001 166 212.001c0 50 -18 90.333 -54 121s-84.667 46 -146 46c-117.333 0 -210.333 -54 -279 -162c-55.333 -86.667 -83 -181.334 -83 -284.001c165.333 0 297.333 22.333 396 67zM957 274.001
c8.66699 0 14.335 -2.99902 17.002 -8.99902c2.66699 -6.66699 4 -15.334 4 -26.001v-11c0 -46 -40 -95 -120 -147c-92.667 -60.667 -199.334 -91 -320.001 -91c-144.667 0 -262 43.667 -352 131c-89.333 87.333 -134 202 -134 344c0 164.667 54 301 162 409
c108 107.333 244.333 161 409 161c103.333 0 187.333 -24.333 252 -73s97 -112.667 97 -192c0 -56.667 -10.333 -101.334 -31 -134.001c-32.667 -51.333 -96.667 -95.666 -192 -132.999c-119.333 -48 -288 -86.667 -506 -116c0 -82 35 -147.667 105 -197
c63.333 -44.667 139.666 -67 228.999 -67c50.667 0 110 14.667 178 44l188 104z" />
    <glyph glyph-name="uni0436" unicode="&#x436;" horiz-adv-x="1542" 
d="M1479 82c0 -54.667 -27.6631 -81.999 -82.9961 -81.999c-46.667 0 -74.667 22.667 -84 68c-24.667 97.333 -67.334 180 -128.001 248c-68.667 77.333 -122.334 135.333 -161.001 174c-35.333 -26 -68.333 -49 -99 -69c-38 -26 -64.667 -43.667 -80 -53l-1 -303
c-6 -28 -22.333 -47.667 -49 -59c-10.667 -4 -21.667 -6 -33 -6c-10.667 0 -21.334 2 -32.001 6c-26.667 11.333 -43 31 -49 59l-1 303c-15.333 9.33301 -42 27 -80 53l-99 69c-38.667 -38.667 -92.334 -96.667 -161.001 -174c-60.667 -68 -103.334 -150.667 -128.001 -248
h-2c-8 -45.333 -35.333 -68 -82 -68c-55.333 0 -83 27.333 -83 82v6c0 35.333 26 95.666 78 180.999c29.333 46.667 62.333 93 99 139c48 60.667 103.667 122 167 184c-78.667 68 -173.667 177.667 -285 329c-10.667 12 -16 25.667 -16 41c0 40.667 20.667 61 62 61
c24.667 0 43 -10.667 55 -32c88.667 -144.667 160 -243 214 -295s109 -98.667 165 -140l96 -67v455c0 38.667 18.667 64 56 76c9.33301 3.33301 18.333 5 27 5s17.667 -1.66699 27 -5c36.667 -12.667 55 -38 55 -76v-455l96 67c56 41.333 111 88 165 140
s125.333 150.333 214 295c12 21.333 30.333 32 55 32c41.333 0 62 -20.333 62 -61c0 -15.333 -5.33301 -29 -16 -41c-111.333 -151.333 -206.333 -261 -285 -329c62.667 -62 118.334 -123.333 167.001 -184c36.667 -46 69.667 -92.333 99 -139c52 -84.667 78 -145 78 -181
v-6z" />
    <glyph glyph-name="uni0437" unicode="&#x437;" horiz-adv-x="973" 
d="M682 566c137.333 -34.667 205.998 -123.665 205.998 -266.998c0 -56 -18 -108.667 -54 -158c-28 -38 -78.667 -73.667 -152 -107c-64 -29.333 -135.667 -44 -215 -44c-85.333 0 -157.666 13.333 -216.999 40c-118.667 52.667 -184.334 115.667 -197.001 189l-1 22
c4.66699 38.667 27 58 67 58c34.667 0 56.334 -16.333 65.001 -49c24.667 -49.333 61.667 -85.666 111 -108.999c58.667 -28.667 120 -43 184 -43c68 0 123 18.667 165 56c64 57.333 96 111 96 161s-31 96.333 -93 139c-50.667 34.667 -112.667 52 -186 52h-138
c-25.333 0 -45 5.66699 -59 17c-12 10 -18 21 -18 33c0 13.333 5.66699 24.666 17 33.999c12.667 10.667 31 16 55 16h143c58.667 0 106.667 15 144 45c38.667 30.667 58 71.667 58 123c0 108 -63.333 165 -190 171h-17c-91.333 0 -167.333 -30.667 -228 -92
c-11.333 -14 -26.333 -21 -45 -21c-39.333 0 -59 18.667 -59 56c0 21.333 10 37.666 30 48.999c84.667 65.333 186.334 98 305.001 98c65.333 0 127.333 -11 186 -33s106 -53.333 142 -94c35.333 -40.667 53 -88 53 -142c0 -54.667 -14.667 -98.334 -44 -131.001
c-29.333 -33.333 -67.333 -56.333 -114 -69z" />
    <glyph glyph-name="uni0438" unicode="&#x438;" horiz-adv-x="1050" 
d="M935 82c0 -54.667 -27.6689 -82 -83.002 -82s-83 27.333 -83 82v722l-498 -759c-15.333 -30 -39.666 -45 -72.999 -45c-55.333 -0 -83 27.333 -83 82v861c0 54.667 27.667 82 83 82c54.667 0 82.334 -27.333 83.001 -82v-719l500 761l5 7c16.667 22 38.667 33 66 33
c55.333 0 83 -27.333 83 -82v-861z" />
    <glyph glyph-name="uni0439" unicode="&#x439;" horiz-adv-x="1023" 
d="M316 1207c-24.667 20 -45.332 43.667 -61.999 71c-16.667 26.667 -25 52.667 -25 78c0 19.333 6 29 18 29l3 -1c9.33301 -4.66699 22.333 -17.667 39 -39c25.333 -32.667 53.333 -59.667 84 -81c32 -22.667 77.333 -34 136 -34c40 0 79 9.66699 117 29
c38 18.667 68.667 44.334 92 77.001c7.33301 10 12.666 17.667 15.999 23c4.66699 5.33301 9.66699 10 15 14c3.33301 2.66699 8 4 14 4c9.33301 0 14 -8 14 -24c0 -18.667 -6 -39.334 -18 -62.001c-12 -24 -25.333 -44 -40 -60c-54.667 -60 -127 -90 -217 -90
c-70 0 -132 22 -186 66zM908.002 82c0 -54.667 -27.335 -82 -82.002 -82s-82 27.333 -82 82v723l-491 -760c-15.333 -30 -39.666 -45 -72.999 -45c-54.667 -0 -82 27.333 -82 82v862c0 54.667 27.333 82 82 82c54 0 81.333 -27.333 82 -82v-720l494 762l5 7
c16.667 22 38.334 33 65.001 33c54.667 0 82 -27.333 82 -82v-862z" />
    <glyph glyph-name="uni043A" unicode="&#x43a;" horiz-adv-x="979" 
d="M901 82c0 -54.667 -27.334 -82 -82.001 -82c-46 0 -73.667 22.667 -83 68c-24.667 97.333 -67 180 -127 248c-68 77.333 -120.667 135.333 -158 174c-35.333 -26 -68.333 -49 -99 -69c-37.333 -26 -63.333 -43.667 -78 -53v-286c0 -54.667 -27.333 -82 -82 -82
s-82 27.333 -82 82v862c0 54 27.333 81 82 81s82 -27 82 -81v-455l95 67c54.667 41.333 108.667 88 162 140s124 150.333 212 295c12 21.333 30 32 54 32c41.333 0 62 -20.333 62 -61c0 -15.333 -5.33301 -29 -16 -41c-110.667 -151.333 -204.667 -261 -282 -329
c62 -62 117 -123.333 165 -184c36.667 -46 69.334 -92.333 98.001 -139c51.333 -84.667 77 -145 77 -181v-6z" />
    <glyph glyph-name="uni043B" unicode="&#x43b;" horiz-adv-x="985" 
d="M932 82c0 -54 -27 -80.999 -81 -80.999c-42 0 -68.667 20 -80 60c-43.333 137.333 -93 284.666 -149 441.999c-83.333 234 -134.333 355.667 -153 365c-11.333 -10.667 -59 -135.667 -143 -375c-106.667 -304 -159.667 -455 -159 -453
c-10.667 -26.667 -30.334 -40 -59.001 -40c-42 0 -63 21 -63 63l2 15c32.667 110.667 90 273.667 172 489c103.333 271.333 170.333 419 201 443c18 14.667 40.667 23 68 25h7c26.667 0 52.334 -9.66699 77.001 -29c24.667 -20 89.667 -167.333 195 -442
c84.667 -222 137.667 -372.667 159 -452z" />
    <glyph glyph-name="uni043C" unicode="&#x43c;" horiz-adv-x="1222" 
d="M1121 81c0 -54 -27.334 -81.001 -82.001 -81.001s-82 27 -82 81v703l-270 -596c-6.66699 -17.333 -18 -30.666 -34 -39.999c-17.333 -10.667 -33.666 -16 -48.999 -16c-24 0 -45 14.333 -63 43l-354 602v-729c0 -30 -15 -45 -45 -45c-30.667 0 -46 15 -46 45v897
c0 53.333 27 80 81 80c24 0 44.333 -9.66699 61 -29c1.33301 0 6 -6 14 -18l397 -666l303 661c18 34 47 51 87 51c54.667 0 82 -27 82 -81v-862z" />
    <glyph glyph-name="uni043D" unicode="&#x43d;" horiz-adv-x="1033" 
d="M918 82c0 -54.667 -27.6689 -82 -83.002 -82s-83 27.333 -83 82v449h-488v-449c0 -54.667 -27.667 -82 -83 -82s-83 27.333 -83 82v862c0 54 27.667 81 83 81c54.667 0 82.334 -27 83.001 -81v-324h488v324c0.666992 54 28.334 81 83.001 81c55.333 0 83 -27 83 -81v-862
z" />
    <glyph glyph-name="uni043E" unicode="&#x43e;" horiz-adv-x="1170" 
d="M822 215c64 75.333 96 174.332 96 296.999c0 120.667 -32 219.334 -96 296.001c-63.333 76 -145.333 114 -246 114c-100 0 -181.667 -38.333 -245 -115c-64 -76 -96 -174.333 -96 -295c0 -118 32 -216 96 -294c63.333 -78 143.333 -117 240 -117
c103.333 0 187 38 251 114zM951 887.999c98 -98 147 -224.333 147 -379c0 -150.667 -49 -275 -147 -373c-98 -97.333 -223 -146 -375 -146c-154 0 -279.667 48.667 -377 146c-97.333 98 -146 223.333 -146 376c0 153.333 48.333 279 145 377
c96.667 97.333 221.667 146 375 146c154.667 0 280.667 -49 378 -147z" />
    <glyph glyph-name="uni043F" unicode="&#x43f;" horiz-adv-x="1016" 
d="M918 82c0 -54.667 -27.667 -82 -83 -82s-83 27.333 -83 82v854h-488v-854c0 -54.667 -27.667 -82 -83 -82s-83 27.333 -83 82v862c0 45.333 23 72 69 80l668 1c55.333 0 83 -27 83 -81v-862z" />
    <glyph glyph-name="uni0440" unicode="&#x440;" horiz-adv-x="1126" 
d="M770 224c58.667 82.667 87.998 187.665 87.998 314.998c0 104.667 -29.333 191.334 -88 260.001c-58.667 69.333 -132.667 104 -222 104c-70.667 0 -132.667 -13.667 -186 -41s-83.666 -61.666 -90.999 -102.999l-4 -544c74.667 -76.667 167.667 -115 279 -115
c90.667 0 165.334 41.333 224.001 124zM889.998 901.998c95.333 -90.667 143 -211.667 143 -363c0 -156 -45.333 -285.333 -136 -388c-90.667 -103.333 -205 -155 -343 -155h-20c-31.333 0 -63 4.33301 -95 13c-50 12.667 -107.333 37 -172 73l-1 -1v-426
c0 -54.667 -27 -82 -81 -82s-81 27.333 -81 82v1289c1.33301 54 28.333 81 81 81c53.333 0 80.333 -27 81 -81v-47c53.333 42.667 103.333 74 150 94c52.667 22.667 108.667 34 168 34c118 0 220 -41 306 -123z" />
    <glyph glyph-name="uni0441" unicode="&#x441;" horiz-adv-x="981" 
d="M811 89c-84.667 -66 -181.666 -99.001 -290.999 -99.001c-134 0 -245.333 46.333 -334 139s-133 209.667 -133 351c0 156.667 48 288.334 144 395.001c96.667 106.667 216.334 160 359.001 160c88.667 0 165.667 -19.333 231 -58c64.667 -38.667 97 -84.334 97 -137.001
c0 -23.333 -8.66699 -43.333 -26 -60s-38 -25 -62 -25c-32 0 -59.333 14 -82 42c-28.667 40.667 -47.667 65.667 -57 75c-30 32.667 -68.333 49 -115 49c-78 0 -141 -23.667 -189 -71c-40.667 -40.667 -70.334 -96.667 -89.001 -168c-14.667 -58 -22 -122.667 -22 -194
c0 -107.333 28.667 -195.666 86 -264.999c58 -68.667 132.667 -103 224 -103c39.333 0 81 8 125 24c43.333 16 75.666 35 96.999 57l45 46c26 24 45 36 57 36l24 -3c12.667 -6.66699 19 -20 19 -40c0 -44.667 -36 -95 -108 -151z" />
    <glyph glyph-name="uni0442" unicode="&#x442;" horiz-adv-x="870" 
d="M789 1025c37.333 -4.66699 56 -25.667 56 -63c0 -42 -21.333 -63 -64 -63c-9.33301 0 -18.333 2 -27 6c0 4.66699 -18 13.667 -54 27c-16.667 6.66699 -49 10 -97 10l-74 -4c-8 -2 -12 -6.66699 -12 -14v-839c0 -56.667 -27.667 -85 -83 -85
c-54.667 -0 -82 28.333 -82 85v839c0 7.33301 -4 12 -12 14l-73 4c-48 0 -80.333 -3.33301 -97 -10c-36 -14 -54 -23 -54 -27c-8.66699 -4 -17.667 -6 -27 -6c-42.667 0 -64 21 -64 63c0 37.333 18.667 58.333 56 63h708z" />
    <glyph glyph-name="uni0443" unicode="&#x443;" horiz-adv-x="1027" 
d="M969 969c-4.66699 -342.667 -86.667 -664.332 -246 -964.999c-60.667 -128 -144 -235.667 -250 -323c-98.667 -81.333 -202.334 -122 -311.001 -122c-33.333 0 -61.333 9.33301 -84 28c-23.333 18 -35 40.333 -35 67c0 21.333 7.33301 37.666 22 48.999
c14 12 34.333 18 61 18c6 0 23.333 -1.33301 52 -4l59 -4c72 0 138.333 28.333 199 85c66 62 118.667 139 158 231c-25.333 -10 -47.333 -17.667 -66 -23c-19.333 -4.66699 -39.333 -7 -60 -7c-102 0 -183.333 57.667 -244 173c-78 146.667 -127.333 322.667 -148 528
l-5 251c2.66699 52 29.667 78 81 78c54 0 81 -27 81 -81c0 -198 13 -351.667 39 -461c22 -94.667 56.333 -179 103 -253c50.667 -81.333 106 -122 166 -122c66.667 0 124.667 51 174 153c40.667 84 73.334 202.667 98.001 356c7.33301 50 17.333 167 30 351
c1.33301 40.667 22.333 61 63 61c37.333 0 58.333 -19 63 -57v-7z" />
    <glyph glyph-name="uni0444" unicode="&#x444;" horiz-adv-x="1875" 
d="M1532 221c60.667 84 91 190.667 91 320c0 106.667 -30.333 195 -91 265c-60.667 70.667 -137 106 -229 106c-73.333 0 -137.333 -14 -192 -42s-86 -62.667 -94 -104l-4 -554c76.667 -78 172.667 -117 288 -117c93.333 0 170.333 42 231 126zM555 95
c115.333 0 211.333 39 288 117l-4 554c-8 41.333 -39.333 76 -94 104s-118.667 42 -192 42c-92 0 -168.333 -35.333 -229 -106c-60.667 -70 -91 -158.333 -91 -265c0 -129.333 30.333 -236 91 -320s137.667 -126 231 -126zM1655 911c98.667 -92.667 148 -216 148 -370
c0 -158 -46.667 -289.333 -140 -394s-211.333 -157 -354 -157h-21c-32 0 -64.333 4 -97 12c-52.667 13.333 -112 38.333 -178 75l-1 -383c0 -55.333 -28 -83 -84 -83s-84 27.667 -84 83l-1 383c-66 -36.667 -125.333 -61.667 -178 -75c-32.667 -8 -65 -12 -97 -12h-21
c-142 0 -260 52.333 -354 157c-93.333 104.667 -140 236 -140 394c0 154 49.333 277.333 148 370c88 83.333 193.333 125 316 125c60 0 117.333 -11.667 172 -35c48 -20 99.667 -51.667 155 -95v373c1.33301 54.667 29.333 82 84 82s82.667 -27.333 84 -82v-373
c55.333 43.333 107 75 155 95c54 23.333 111.333 35 172 35c122.667 0 228 -41.667 316 -125z" />
    <glyph glyph-name="uni0445" unicode="&#x445;" horiz-adv-x="960" 
d="M847 137c14.667 -20 21.999 -39 21.999 -57c0 -22 -11.667 -42 -35 -60c-17.333 -14 -34 -21 -50 -21c-22 0 -42.667 13.333 -62 40l-295 399c-75.333 -84 -124.666 -143.667 -147.999 -179c-40.667 -63.333 -63.667 -128 -69 -194c-2.66699 -40 -23.667 -60 -63 -60
c-42 0 -63 21.333 -63 64c0 50 24.333 111.333 73 184c21.333 32.667 45 65.667 71 99c33.333 44 79.333 100 138 168l-273 369c-14.667 20 -22 38.667 -22 56c0 22 11.667 42 35 60c17.333 13.333 34 20 50 20c22.667 0 43.667 -13 63 -39l269 -364
c62 66.667 103.333 115.667 124 147c42 62 66.333 126 73 192c3.33301 40 24 60 62 60h2c40.667 -1.33301 61 -22 61 -62v-4c-0.666992 -50 -26 -111 -76 -183c-22 -32 -46.333 -64.333 -73 -97c-27.333 -35.333 -65 -80 -113 -134z" />
    <glyph glyph-name="uni0446" unicode="&#x446;" horiz-adv-x="1034" 
d="M982 47c16 -36 24.001 -75.667 24.001 -119c0 -12 -5 -22.667 -15 -32c-8.66699 -8.66699 -19 -13.334 -31 -14.001c-18.667 4 -38.334 15.667 -59.001 35c-28 26 -51 45 -69 57c-20 12.667 -53 19.334 -99 20.001h-553c-54.667 0 -82 27.333 -82 82v866
c0 54.667 27.333 82 82 82s82 -27.333 82 -82v-859h484v859c0 54.667 27.333 82 82 82s82 -27.333 82 -82v-859h32c16.667 0 30 -12 40 -36z" />
    <glyph glyph-name="uni0447" unicode="&#x447;" horiz-adv-x="970" 
d="M787 1025c55.333 0 83.001 -27.332 83.001 -81.999v-862c0 -54 -27.667 -81 -83 -81c-54.667 0 -82.334 27 -83.001 81v342c-148 -64.667 -286.333 -97 -415 -97c-16.667 0 -33 0.666992 -49 2c-126.667 8.66699 -190 81.667 -190 219v396c0 54.667 27.667 82 83 82
s83 -27.333 83 -82v-378c0 -82.667 47 -124 141 -124c24.667 0 53 3 85 9c62 11.333 149.333 32.666 262 63.999v429c0 54.667 27.667 82 83 82z" />
    </font>
</defs>
</svg>
